<svg width="30" height="30" viewBox="0 0 30 30" fill="none" xmlns="http://www.w3.org/2000/svg">
<path d="M15 0C6.71484 0 0 6.71484 0 15C0 23.2852 6.71484 30 15 30C23.2852 30 30 23.2852 30 15C30 6.71484 23.2852 0 15 0ZM18.3105 12.457L18.1406 14.7012H15.8379V22.4941H12.9316V14.7012H11.3789V12.457H12.9316V10.9512C12.9316 10.2891 12.9492 9.26367 13.4297 8.625C13.9395 7.95117 14.6367 7.49414 15.8379 7.49414C17.7949 7.49414 18.6152 7.77539 18.6152 7.77539L18.2285 10.0723C18.2285 10.0723 17.584 9.88477 16.9805 9.88477C16.377 9.88477 15.8379 10.1016 15.8379 10.7051V12.457H18.3105Z" fill="white"/>
</svg>
