<svg width="30" height="30" viewBox="0 0 30 30" fill="none" xmlns="http://www.w3.org/2000/svg">
<g clip-path="url(#clip0_1_491)">
<path d="M15 17.6367C16.4531 17.6367 17.6426 16.4531 17.6426 14.9941C17.6426 14.4199 17.4551 13.8867 17.1446 13.4531C16.6641 12.791 15.8848 12.3516 15.0059 12.3516C14.127 12.3516 13.3477 12.7852 12.8672 13.4531C12.5567 13.8867 12.3692 14.4199 12.3692 14.9941C12.3633 16.4531 13.5469 17.6367 15 17.6367Z" fill="white"/>
<path d="M20.7656 11.7715V9.55664V9.22852H20.4375L18.2227 9.23438L18.2344 11.7773L20.7656 11.7715Z" fill="white"/>
<path d="M19.1016 15C19.1016 17.2617 17.2617 19.1016 15 19.1016C12.7383 19.1016 10.8984 17.2617 10.8984 15C10.8984 14.4551 11.0098 13.9336 11.2031 13.459H8.96484V19.5996C8.96484 20.3906 9.60938 21.0352 10.4004 21.0352H19.5996C20.3906 21.0352 21.0352 20.3906 21.0352 19.5996V13.459H18.7969C18.9961 13.9336 19.1016 14.4551 19.1016 15Z" fill="white"/>
<path d="M15 0C6.71484 0 0 6.71484 0 15C0 23.2852 6.71484 30 15 30C23.2852 30 30 23.2852 30 15C30 6.71484 23.2852 0 15 0ZM22.5 13.459V19.5996C22.5 21.1992 21.1992 22.5 19.5996 22.5H10.4004C8.80078 22.5 7.5 21.1992 7.5 19.5996V13.459V10.3945C7.5 8.79492 8.80078 7.49414 10.4004 7.49414H19.5996C21.1992 7.49414 22.5 8.79492 22.5 10.3945V13.459Z" fill="white"/>
</g>
<defs>
<clipPath id="clip0_1_491">
<rect width="30" height="30" fill="white"/>
</clipPath>
</defs>
</svg>
