<svg width="30" height="30" viewBox="0 0 30 30" fill="none" xmlns="http://www.w3.org/2000/svg">
<g clip-path="url(#clip0_1_488)">
<path d="M15 0C6.71572 0 0 6.71572 0 15C0 23.2843 6.71572 30 15 30C23.2843 30 30 23.2843 30 15C30 6.71572 23.2843 0 15 0ZM15.2886 12.7378C15.2936 12.738 15.2982 12.739 15.3033 12.7392C15.252 12.5194 15.2255 12.2902 15.2255 12.0547C15.2255 10.3961 16.5703 9.05133 18.2291 9.05133C19.0929 9.05133 19.8734 9.41607 20.4213 9.99984C20.9838 9.8891 21.5161 9.69668 22.0109 9.44186C22.1153 9.39123 22.2199 9.3409 22.3226 9.28518C22.1446 9.83209 21.8103 10.3054 21.3769 10.664C21.2595 10.7563 21.1389 10.8455 21.0062 10.9185C21.0152 10.9175 21.024 10.9155 21.033 10.9144C21.0242 10.9198 21.0169 10.9273 21.0079 10.9327C21.5002 10.8738 21.9723 10.7539 22.4207 10.5845C22.5212 10.5498 22.6215 10.5147 22.7211 10.476C22.3202 11.0712 21.8156 11.5948 21.2343 12.0146C21.24 12.1433 21.2429 12.2728 21.2429 12.4031C21.2429 16.372 18.222 20.9486 12.6974 20.9486C11.0013 20.9486 9.42252 20.4514 8.09332 19.5993C8.32828 19.627 8.56746 19.6412 8.80986 19.6412C9.93111 19.6412 10.9787 19.3324 11.8792 18.8009C12.106 18.6703 12.3279 18.5291 12.5397 18.3694C12.534 18.3693 12.5287 18.3679 12.523 18.3677C12.5285 18.3635 12.5345 18.3598 12.5399 18.3555C11.4019 18.3345 10.4198 17.6794 9.92818 16.7297C9.85494 16.5838 9.79225 16.4311 9.74279 16.2708C9.92361 16.3048 10.1088 16.3235 10.2994 16.3235C10.4981 16.3235 10.69 16.2979 10.8778 16.2612C10.9479 16.2513 11.0188 16.2431 11.0879 16.2318C11.0788 16.2299 11.0708 16.2259 11.0616 16.224C11.0711 16.2215 11.0813 16.2207 11.0907 16.2181C9.71672 15.9422 8.68137 14.7282 8.68137 13.2731C8.68137 13.2616 8.68148 13.2504 8.6816 13.2391L8.68301 13.2359C9.0065 13.4154 9.36814 13.5342 9.75117 13.5839C9.84545 13.5997 9.9399 13.6141 10.0343 13.6224C10.0279 13.6181 10.0223 13.6128 10.0159 13.6085C10.0248 13.6088 10.0333 13.6106 10.0421 13.6109C9.23619 13.0723 8.70598 12.1529 8.70598 11.1109C8.70598 10.6338 8.82246 10.1859 9.02045 9.78533C9.05203 9.7251 9.0801 9.66357 9.11637 9.60522C10.4471 11.2354 12.3693 12.3574 14.5539 12.6609C14.7977 12.6963 15.0421 12.7279 15.2895 12.7422C15.2891 12.7408 15.289 12.7392 15.2886 12.7378Z" fill="white"/>
</g>
<defs>
<clipPath id="clip0_1_488">
<rect width="30" height="30" fill="white"/>
</clipPath>
</defs>
</svg>
