<svg width="136" height="104" viewBox="0 0 136 104" fill="none" xmlns="http://www.w3.org/2000/svg">
<path d="M56.2377 91.1829C55.2694 88.9632 53.4953 87.2536 51.2411 86.3685C48.9872 85.4834 46.5232 85.5294 44.3041 86.4973C42.0847 87.4653 40.3748 89.2397 39.4897 91.4937C38.6049 93.7476 38.6506 96.2113 39.6175 98.4288L39.6416 98.4846C40.6099 100.704 42.3841 102.414 44.6385 103.299C45.7124 103.721 46.8339 103.931 47.9539 103.931C49.1845 103.931 50.4136 103.677 51.5755 103.17C53.7949 102.202 55.5048 100.428 56.3896 98.1738C57.2747 95.9199 57.2287 93.4562 56.2618 91.2386L56.2377 91.1829ZM52.6808 96.7173C52.1849 97.9807 51.2265 98.9752 49.9828 99.5177C48.7385 100.06 47.3572 100.086 46.0944 99.5896C44.8122 99.0871 43.8057 98.1042 43.2707 96.8377C42.728 95.5937 42.7023 94.2129 43.1988 92.9496C43.6947 91.6862 44.6531 90.6917 45.8968 90.1493C47.1416 89.6063 48.5226 89.5814 49.7849 90.0773C51.0482 90.5732 52.0428 91.5316 52.5844 92.7735C53.1486 94.0297 53.185 95.4357 52.6808 96.7173Z" fill="#FFD365"/>
<path d="M130.646 29.691C129.998 28.8017 128.752 28.6061 127.863 29.254C126.973 29.9019 126.778 31.1483 127.426 32.0373C131.303 37.358 132.824 44.0767 131.6 50.4705C129.588 60.9853 120.745 68.9095 110.096 69.7404C108.305 69.8801 106.78 71.1676 106.299 72.9487L105.524 75.8459C105.172 77.1576 104.331 78.2537 103.156 78.9326C101.981 79.611 100.611 79.7909 99.3002 79.4392C97.9893 79.0885 96.8935 78.2481 96.2151 77.0726C95.5364 75.8972 95.3566 74.5281 95.7083 73.2164L96.4839 70.3165C98.0727 64.3889 103.225 60.0864 109.303 59.6104C115.4 59.1344 120.465 54.5918 121.619 48.563C122.882 41.9519 119.029 35.3352 112.656 33.1724C109.064 31.9513 105.167 32.3404 101.916 34.0365C102.1 32.2578 102.135 30.447 102.002 28.6186C101.872 26.8346 101.587 25.0923 101.163 23.4037C105.977 21.8917 111.153 21.93 115.925 23.5493C117.793 24.1833 119.578 25.0533 121.23 26.1347C121.567 26.3549 121.945 26.4604 122.319 26.4604C122.969 26.4604 123.606 26.1429 123.988 25.5591C124.591 24.6384 124.333 23.4037 123.412 22.801C121.48 21.5358 119.391 20.5181 117.205 19.7762C111.623 17.8815 105.569 17.8389 99.9446 19.6113C95.6546 8.75347 85.3645 0.860691 73.2356 0.0664461C57.9713 -0.935525 44.2738 9.5007 41.0023 24.1786C34.073 20.4172 25.8203 19.7319 18.3751 22.4129C4.74832 27.3223 -2.87697 42.0693 1.01457 55.9811C1.35405 57.2062 1.79049 58.4334 2.31193 59.6295C3.28016 61.8492 5.05433 63.5588 7.30823 64.4436C9.56187 65.3284 12.0251 65.2825 14.245 64.3143C16.4644 63.346 18.174 61.5713 19.0588 59.3169C19.9436 57.0624 19.8977 54.5992 18.93 52.3817C18.7512 51.9718 18.5979 51.5412 18.4752 51.1061C17.1282 46.2862 19.7832 41.1765 24.521 39.4724C28.9933 37.8603 34.0334 39.817 36.2453 44.0235C38.2671 47.8712 37.471 52.6205 34.3091 55.5733C28.6195 60.8873 26.9001 69.275 30.0308 76.4434L31.2294 79.1932C32.7148 82.5989 36.0546 84.6347 39.5543 84.6344C40.7611 84.6344 41.9873 84.3922 43.1624 83.8806C45.3815 82.9123 47.0914 81.1376 47.9763 78.8832C48.8611 76.6288 48.8151 74.1656 47.8477 71.9488L46.6491 69.1958C46.5838 69.046 46.6149 68.8911 46.6855 68.8255C47.5141 68.0507 48.2995 67.22 49.0199 66.3567C49.7247 65.5117 49.6112 64.2555 48.766 63.5506C47.9213 62.8458 46.6651 62.9593 45.9601 63.8045C45.3449 64.5422 44.6734 65.2522 43.967 65.9126C42.65 67.1395 42.2601 69.0988 42.9964 70.7872L44.1952 73.541C44.7379 74.7837 44.7637 76.1639 44.2675 77.4273C43.7715 78.6909 42.8131 79.6857 41.5708 80.2278C39.0026 81.3462 36.0017 80.1675 34.8818 77.6007L33.683 74.8501C31.2267 69.225 32.5713 62.6485 37.0292 58.4852C41.499 54.3107 42.6272 47.6019 39.7727 42.1694C36.6403 36.2118 29.5022 33.4407 23.1716 35.7233C16.4806 38.1299 12.7322 45.3578 14.6395 52.1828C14.8124 52.7958 15.027 53.3983 15.278 53.9744C15.8207 55.2174 15.8465 56.5976 15.3503 57.8609C14.8544 59.1246 13.8962 60.1194 12.6523 60.6618C11.4083 61.2045 10.0278 61.2302 8.7647 60.7343C7.50162 60.2384 6.50708 59.2802 5.96492 58.0368C5.51813 57.012 5.14465 55.9619 4.85351 54.9119C1.52034 42.9955 8.05334 30.3668 19.7258 26.1615C26.5566 23.7018 34.1861 24.5555 40.3666 28.4175C40.3002 29.2471 40.2628 30.0804 40.2628 30.9105C40.2628 36.3879 44.7191 40.8442 50.1964 40.8442C50.2057 40.8442 50.215 40.8434 50.2243 40.8434C51.9252 45.8453 51.9209 51.2905 50.1781 56.333C49.8187 57.373 50.3707 58.5072 51.4104 58.8666C51.6261 58.941 51.8455 58.9763 52.0612 58.9763C52.887 58.9763 53.6592 58.4589 53.9443 57.6344C55.9238 51.9068 55.9798 45.7321 54.1485 40.0215C57.6645 38.4904 60.1298 34.9835 60.1298 30.9103C60.1298 30.388 60.1659 29.8658 60.2366 29.3574C61.0306 23.668 66.1714 19.5103 71.9375 19.891C77.3843 20.2477 81.7906 24.6206 82.1872 30.0629C82.5504 35.0406 79.5338 39.6735 74.8515 41.3292C66.7106 44.2074 61.2407 51.974 61.2407 60.6551V64.0236C61.2407 69.501 65.6967 73.9573 71.1741 73.9573C76.6514 73.9573 81.1077 69.501 81.1077 64.0236V60.6551C81.1077 60.381 81.2583 60.1364 81.474 60.0601C90.8188 56.7559 97.7898 49.2273 100.653 40.144C103.147 36.9463 107.509 35.6303 111.375 36.9447C115.877 38.4723 118.598 43.1454 117.706 47.8136C116.888 52.0834 113.306 55.3008 108.993 55.6373C101.234 56.2448 94.6609 61.7291 92.6357 69.2853L91.86 72.1847C91.2329 74.5234 91.554 76.9667 92.7648 79.0641C93.9761 81.1621 95.9317 82.6621 98.2701 83.2874C100.592 83.9125 103.047 83.5977 105.149 82.3827C107.246 81.1719 108.746 79.2168 109.373 76.8763L110.148 73.9828C110.192 73.8168 110.314 73.7193 110.406 73.7121C122.84 72.742 133.165 63.4926 135.515 51.219C136.944 43.7465 135.17 35.8994 130.646 29.691ZM80.1456 56.3038C78.3377 56.9429 77.1229 58.6918 77.1229 60.6554V64.0239C77.1229 67.3042 74.4541 69.973 71.1738 69.973C67.8935 69.973 65.2249 67.3042 65.2249 64.0239V60.6554C65.2249 53.6594 69.627 47.4027 76.1794 45.0861C82.5498 42.8335 86.6547 36.5367 86.1611 29.7733C85.6208 22.3587 79.6178 16.4011 72.1989 15.9152C71.8655 15.8932 71.5345 15.8823 71.2046 15.8823C63.7764 15.8823 57.3255 21.3894 56.2906 28.8067C56.1942 29.4968 56.1453 30.2045 56.1453 30.9105C56.1453 34.1908 53.4765 36.8597 50.1962 36.8597C46.9156 36.8597 44.247 34.1908 44.247 30.9105C44.247 29.6586 44.3344 28.3976 44.5068 27.1627C46.4446 13.2775 58.948 3.12336 72.9753 4.04245C86.2881 4.91427 97.0585 15.6044 98.0283 28.9084C98.9094 41.0036 91.5562 52.2691 80.1456 56.3038Z" fill="#FFD365"/>
<path d="M97.5295 86.0473C95.1906 85.4207 92.7479 85.7421 90.6507 86.9529C88.5535 88.1637 87.0535 90.1185 86.4282 92.4526L86.4117 92.5139C85.1181 97.3424 87.9935 102.323 92.8217 103.617C93.6048 103.826 94.3911 103.927 95.1657 103.927C99.1677 103.927 102.841 101.251 103.926 97.2026L103.94 97.15C104.567 94.8111 104.245 92.3681 103.035 90.2709C101.823 88.1743 99.8684 86.6742 97.5295 86.0473ZM100.09 96.1231L100.076 96.1757C99.3507 98.882 96.5589 100.493 93.8529 99.7684C91.1466 99.0432 89.535 96.2517 90.2589 93.5504C90.6002 92.2156 91.4486 91.0923 92.6429 90.404C93.8181 89.7253 95.1869 89.5452 96.4983 89.8964C97.8095 90.2478 98.9053 91.0886 99.5834 92.2637C100.262 93.4389 100.442 94.8082 100.09 96.1231Z" fill="#FFD365"/>
<path d="M71.1739 77.6538C65.6965 77.6538 61.2405 82.1101 61.2405 87.5875V87.6534C61.2405 93.1307 65.6965 97.587 71.1739 97.587C76.6512 97.587 81.1075 93.1307 81.1075 87.6534V87.5875C81.1075 82.1098 76.6512 77.6538 71.1739 77.6538ZM77.123 87.6531C77.123 90.9334 74.4542 93.6022 71.1739 93.6022C67.8935 93.6022 65.225 90.9334 65.225 87.6531V87.5872C65.225 84.3069 67.8938 81.6381 71.1739 81.6381C74.4542 81.6381 77.123 84.3069 77.123 87.5872V87.6531Z" fill="#FFD365"/>
</svg>
