<svg width="140" height="198" viewBox="0 0 140 198" fill="none" xmlns="http://www.w3.org/2000/svg">
    <path d="M70.0002 38.6527C79.6306 38.6527 87.4658 30.8175 87.4658 21.1871V14.4916C87.4658 6.69591 81.1234 0.353516 73.3277 0.353516H66.6728C58.8771 0.353516 52.5347 6.69591 52.5347 14.4916V21.1871C52.5351 30.8179 60.3699 38.6527 70.0002 38.6527ZM58.336 14.4916C58.336 9.89457 62.0761 6.15449 66.6732 6.15449H73.3281C77.9252 6.15449 81.6652 9.89457 81.6652 14.4916V21.1871C81.6652 27.6189 76.4328 32.8517 70.0006 32.8517C63.5685 32.8517 58.336 27.6193 58.336 21.1871V14.4916Z" fill="#FDFFA9"/>
    <path d="M98.308 58.3836L135.806 20.8846C138.117 18.5738 139.39 15.5005 139.39 12.2311C139.39 8.96125 138.117 5.88828 135.805 3.57601C131.032 -1.19239 123.268 -1.192 118.499 3.57717L115.499 6.57666C114.367 7.7094 114.367 9.54599 115.5 10.6783C116.633 11.8111 118.469 11.8111 119.601 10.6779L122.6 7.67885C125.109 5.17051 129.193 5.17128 131.704 7.67885C132.92 8.89434 133.589 10.5109 133.589 12.2311C133.589 13.9509 132.92 15.5674 131.704 16.7833L105.351 43.1402L96.2471 34.0362L109.887 20.3946C111.02 19.2618 111.019 17.4253 109.886 16.2929C108.754 15.1602 106.917 15.1602 105.785 16.2933L85.6774 36.4014C81.4899 40.5874 75.9229 42.8927 70.0016 42.8927C64.0792 42.8927 58.511 40.5862 54.3231 36.3987L21.5016 3.57717C16.732 -1.192 8.96878 -1.19239 4.19419 3.57717C1.88308 5.88828 0.610352 8.96125 0.610352 12.2311C0.610352 15.5005 1.88347 18.5738 4.19419 20.8846L41.6932 58.3836C42.7784 59.4688 43.3759 60.9117 43.3759 62.4458V68.3826C37.9323 74.7045 34.7866 82.8715 34.7866 91.4012C34.7866 109.617 48.6896 124.646 66.4417 126.436L56.6949 171.356L37.5428 171.357L45.0129 128.163C45.286 126.584 44.2279 125.083 42.6492 124.811C41.0698 124.537 39.5697 125.596 39.2971 127.174L31.3006 173.412L25.2943 186.994C24.2195 189.428 24.4454 192.212 25.8983 194.441C27.3505 196.67 29.8043 198 32.462 198H49.7879C54.1564 198 57.8722 194.763 58.4886 190.447L70.0008 137.393L81.5131 190.447C82.1291 194.763 85.8452 198 90.2137 198H107.54C110.198 198 112.651 196.67 114.103 194.441C115.556 192.212 115.782 189.428 114.707 186.993L108.701 173.412L98.1692 112.511C102.591 106.625 105.215 99.3137 105.215 91.4016C105.215 82.6081 101.975 74.5567 96.6261 68.3795C96.8118 65.4573 95.802 60.8254 98.308 58.3836ZM6.41133 12.2307C6.41133 10.5105 7.08076 8.89396 8.29509 7.67962C9.55158 6.42468 11.2006 5.7974 12.8496 5.7974C14.4979 5.7974 16.1461 6.42468 17.4003 7.67846L43.758 34.0362L34.6539 43.1402L8.29587 16.7825C7.08076 15.5674 6.41133 13.9509 6.41133 12.2307ZM52.7518 189.579C52.5627 191.073 51.288 192.199 49.7875 192.199H32.4616C31.4681 192.199 30.9394 191.552 30.758 191.274C30.5766 190.996 30.198 190.249 30.5998 189.339L35.9862 177.158L55.4357 177.157L52.7948 189.329C52.777 189.411 52.7627 189.495 52.7518 189.579ZM93.2067 117.863L102.458 171.357H83.3059L73.5588 126.436C81.0443 125.681 87.8438 122.572 93.2067 117.863ZM109.242 191.274C109.061 191.552 108.532 192.199 107.539 192.199H90.213C88.7124 192.199 87.4378 191.073 87.2487 189.579C87.2382 189.495 87.2239 189.411 87.2057 189.329L84.5648 177.159H104.014L109.4 189.338C109.802 190.249 109.424 190.995 109.242 191.274ZM70.0001 120.814C53.7817 120.814 40.5872 107.62 40.5872 91.4012C40.5872 81.0639 46.1178 71.3627 55.0208 66.0831C56.3983 65.2659 56.8531 63.4865 56.036 62.1086C55.2188 60.7311 53.4402 60.2763 52.0615 61.0934C51.0637 61.6851 50.1012 62.3236 49.1761 63.0043C49.3242 60.2036 48.1377 56.5884 45.7941 54.2816L38.7556 47.2423L47.8597 38.1382L50.2214 40.5C55.505 45.7835 62.5299 48.6933 70.0016 48.6933C77.4717 48.6933 84.4955 45.7847 89.7783 40.5035L92.1447 38.1378L101.249 47.2419L94.2071 54.2812C92.1501 56.2767 90.6685 59.7906 90.8236 63.0232C84.9871 58.729 77.7854 56.1878 70.0001 56.1878C68.5007 56.1878 66.9921 56.2833 65.5151 56.4708C63.9261 56.6731 62.8018 58.1253 63.0041 59.7144C63.2063 61.3034 64.657 62.4284 66.2476 62.2254C67.482 62.0684 68.7447 61.9887 70.0001 61.9887C86.2184 61.9887 99.4126 75.1832 99.4126 91.4012C99.4126 107.619 86.2184 120.814 70.0001 120.814Z" fill="#FDFFA9"/>
    <path d="M83.3162 75.1812C80.9877 75.1812 78.7987 76.088 77.1528 77.7344L66.1267 88.7605L60.8409 83.4742C57.4423 80.076 51.9124 80.076 48.5138 83.4746C45.1152 86.8728 45.1152 92.4027 48.5138 95.8013L59.5534 106.841C61.3657 108.653 63.746 109.559 66.1267 109.559C68.5074 109.559 70.8878 108.653 72.7 106.841L89.4799 90.061C91.1262 88.4147 92.0331 86.2258 92.0331 83.8973C92.0331 81.5692 91.1266 79.3803 89.4799 77.734C87.8332 76.088 85.6443 75.1812 83.3162 75.1812ZM85.3774 85.959L68.5975 102.739C67.2351 104.101 65.0176 104.101 63.6551 102.739L52.6159 91.6996C51.4792 90.563 51.4792 88.7133 52.6159 87.5767C53.1843 87.0082 53.9307 86.7239 54.6775 86.7239C55.4239 86.7239 56.1707 87.0082 56.7392 87.5763L63.1524 93.9895C64.7925 95.6296 67.4613 95.6296 69.1014 93.9895L81.2553 81.836C81.8056 81.2853 82.5377 80.9821 83.3165 80.9821C84.0954 80.9821 84.8275 81.2853 85.3782 81.836C85.9289 82.3867 86.2321 83.1188 86.2321 83.8977C86.2321 84.6766 85.9281 85.4087 85.3774 85.959Z" fill="#FDFFA9"/>
    </svg>
    