<svg width="139" height="204" viewBox="0 0 139 204" fill="none" xmlns="http://www.w3.org/2000/svg">
    <path d="M120.406 124.187C120.279 124.107 120.148 124.063 120.017 123.994C121.332 118.609 121.869 110.126 121.869 97.5134C121.873 83.7754 106.639 58.1079 69.9424 58.1079C33.2496 58.1079 18.0154 83.7754 18.0154 97.5171C18.0154 110.129 18.5529 118.612 19.8675 123.998C19.7368 124.067 19.606 124.107 19.4753 124.19C16.7044 125.93 15.4697 129.529 15.4697 135.848C15.4697 146.684 19.2029 155.668 24.7591 158.196C25.9394 158.73 27.1813 158.969 28.387 158.937C29.6108 173.833 36.0277 180.733 40.4218 185.461C40.883 185.959 41.2934 186.409 41.6965 186.856C41.4968 188.984 40.6506 193.581 37.0736 197.177C35.6573 198.6 35.6645 200.895 37.0881 202.312C37.7962 203.016 38.7259 203.368 39.652 203.368C40.5852 203.368 41.5185 203.012 42.2267 202.297C44.9903 199.515 46.6244 196.396 47.6013 193.596C54.1925 201.001 57.1014 203.368 69.9424 203.368C82.787 203.368 85.6922 201.001 92.2834 193.596C93.2603 196.396 94.8945 199.519 97.6617 202.297C98.3698 203.012 99.3031 203.368 100.236 203.368C101.162 203.368 102.092 203.016 102.797 202.312C104.22 200.895 104.227 198.596 102.811 197.173C99.2378 193.581 98.388 188.991 98.1846 186.859C98.5913 186.409 99.0053 185.952 99.4702 185.454C103.861 180.729 110.274 173.826 111.501 158.933C112.74 158.991 113.953 158.73 115.129 158.192C120.685 155.668 124.415 146.688 124.415 135.848C124.415 129.529 123.18 125.93 120.406 124.187ZM69.9424 65.3709C101.123 65.3709 114.61 86.6552 114.61 97.5171C114.61 113.241 113.651 120.022 112.863 122.934C111.498 119.611 110.161 113.005 109.366 109.073C107.205 98.3923 105.778 91.3326 100.447 91.3326C98.1846 91.3326 96.4814 91.6413 94.3243 92.0298C90.4858 92.7235 84.6899 93.7693 69.917 93.8783C69.8443 93.8783 69.7681 93.8819 69.6954 93.8855C61.6734 93.8492 55.7395 92.0734 50.9605 90.6426C47.6195 89.6403 44.7288 88.776 41.9725 88.776C35.4285 88.776 33.2787 98.0908 30.5587 109.882C29.658 113.779 28.2926 119.695 26.9961 122.847C26.2117 119.884 25.2748 113.085 25.2748 97.5171C25.2784 86.6552 38.7659 65.3709 69.9424 65.3709ZM112.119 151.587C111.886 151.685 111.469 151.881 110.459 151.002C109.377 150.065 107.866 149.847 106.57 150.435C105.277 151.024 104.442 152.317 104.442 153.74C104.442 169.435 98.733 175.576 94.1464 180.512C92.9262 181.826 91.7677 183.075 90.7945 184.405C89.4073 185.897 88.2234 187.233 87.163 188.425C81.3889 194.932 80.3503 196.105 69.9424 196.105C59.5308 196.105 58.4922 194.932 52.7145 188.417C51.6577 187.226 50.4738 185.893 49.0902 184.405C48.1206 183.072 46.9622 181.83 45.742 180.515C41.1518 175.58 35.443 169.439 35.443 153.74C35.443 152.317 34.6114 151.024 33.315 150.435C32.0258 149.843 30.5005 150.065 29.4256 151.002C28.4197 151.877 27.9875 151.688 27.7624 151.587C25.736 150.661 22.7327 145.021 22.7327 135.848C22.7327 132.884 23.0668 131.385 23.3029 130.695C23.3247 130.705 23.3428 130.713 23.3683 130.724C24.3342 131.461 25.4419 131.813 26.7274 131.813C32.9554 131.813 35.0254 122.854 37.6401 111.513C38.824 106.385 40.7668 97.9528 42.4627 96.0536C44.1187 96.1698 46.3412 96.838 48.8796 97.597C53.8802 99.0968 60.7292 101.149 69.9424 101.149C70.0368 101.149 70.1312 101.145 70.222 101.138C85.4344 101.014 91.5571 99.9102 95.6171 99.1767C97.0625 98.9152 98.1447 98.7191 99.2741 98.6392C100.28 100.796 101.449 106.552 102.245 110.514C104.558 121.943 106.555 131.817 113.157 131.817H113.165C114.447 131.817 115.558 131.464 116.52 130.727C116.542 130.716 116.56 130.709 116.582 130.698C116.818 131.388 117.152 132.884 117.152 135.848C117.152 145.021 114.149 150.661 112.119 151.587Z" fill="#FDFFA9"/>
    <path d="M62.6792 29.0559H72.1683L66.4959 46.0659C65.8604 47.9688 66.8881 50.0243 68.791 50.6598C69.1759 50.7869 69.5645 50.845 69.9422 50.845C71.4638 50.845 72.8801 49.8827 73.3885 48.3611L80.6515 26.572C81.0256 25.4644 80.8367 24.2478 80.154 23.3C79.4676 22.3522 78.3709 21.7929 77.2052 21.7929H67.7161L73.3885 4.78293C74.0204 2.88002 72.9963 0.824587 71.0934 0.189073C69.1868 -0.450073 67.135 0.584907 66.4995 2.48419L59.2365 24.2732C58.8661 25.3809 59.0549 26.5974 59.7376 27.5452C60.4167 28.4967 61.5135 29.0559 62.6792 29.0559Z" fill="#FDFFA9"/>
    <path d="M137.877 15.5942C136.457 14.1743 134.162 14.1743 132.742 15.5942L114.585 33.7518C113.757 34.5761 113.379 35.7491 113.568 36.9003C113.757 38.0515 114.487 39.0429 115.529 39.5658L124.982 44.2904L111.255 55.2721C109.69 56.525 109.435 58.8092 110.688 60.3744C111.404 61.275 112.457 61.7398 113.524 61.7398C114.32 61.7398 115.119 61.4784 115.79 60.9445L133.948 46.4185C134.914 45.645 135.419 44.4321 135.288 43.201C135.161 41.9699 134.409 40.8913 133.302 40.3357L123.282 35.3279L137.877 20.7328C139.297 19.3093 139.297 17.0142 137.877 15.5942Z" fill="#FDFFA9"/>
    <path d="M30.1808 59.2557C30.6893 60.7773 32.1055 61.7396 33.6272 61.7396C34.0048 61.7396 34.3934 61.6779 34.7747 61.5508C36.6776 60.9153 37.7053 58.8599 37.0698 56.957L29.8068 35.1679C29.4727 34.1692 28.7246 33.363 27.7514 32.9636C26.7745 32.5605 25.6778 32.5968 24.7372 33.0689L14.1259 38.3745L8.06495 17.1592C7.51296 15.2309 5.50837 14.1124 3.57641 14.6644C1.64807 15.2164 0.533199 17.2246 1.08156 19.1529L8.34458 44.5735C8.64236 45.6121 9.38682 46.4655 10.3746 46.9013C11.3587 47.3298 12.4918 47.308 13.4614 46.825L24.2433 41.4359L30.1808 59.2557Z" fill="#FDFFA9"/>
    </svg>
    