<svg width="186" height="186" viewBox="0 0 186 186" fill="none" xmlns="http://www.w3.org/2000/svg">
    <g clip-path="url(#clip0_2_1951)">
    <path d="M185.905 76.8725C185.389 73.2786 182.884 70.4842 179.367 69.5807L172.413 67.7934L180.278 57.0326C181.987 54.6935 182.235 51.7756 180.941 49.2279C179.652 46.6886 177.007 45.048 174.202 45.048C172.555 45.048 170.974 45.5936 169.627 46.6264L141.062 68.5337C138.361 70.6052 137.105 73.9648 137.786 77.3008C138.467 80.6368 140.938 83.2354 144.235 84.0825L147.621 84.953L139.082 93.8857C136.962 96.1024 136.386 99.2121 137.579 102.001C138.78 104.813 141.495 106.63 144.495 106.63C145.837 106.63 147.176 106.255 148.367 105.547L181.685 85.7104C184.804 83.8526 186.421 80.4664 185.905 76.8725ZM178.897 81.0277L145.579 100.864C145.231 101.071 144.857 101.18 144.495 101.18C143.68 101.18 142.932 100.662 142.589 99.8588C142.264 99.0984 142.425 98.273 143.02 97.6504L154.774 85.3548C155.443 84.6554 155.691 83.6542 155.425 82.7239C155.16 81.7935 154.42 81.0742 153.484 80.8334L145.591 78.8044C144.33 78.48 143.385 77.4861 143.124 76.2106C142.864 74.9344 143.344 73.6495 144.377 72.8568L172.943 50.9495C173.335 50.649 173.758 50.4965 174.202 50.4965C174.963 50.4965 175.719 50.9778 176.082 51.6946C176.438 52.3961 176.366 53.1499 175.878 53.8176L165.642 67.8235C165.109 68.5534 164.972 69.4997 165.277 70.3501C165.581 71.201 166.288 71.8451 167.163 72.0699L178.01 74.8577C179.376 75.209 180.311 76.2517 180.511 77.647C180.712 79.0431 180.109 80.3066 178.897 81.0277Z" fill="#FDFFA9"/>
    <path d="M44.7181 65.9675L11.4005 46.1316C10.2104 45.4225 8.871 45.048 7.52795 45.048C4.52833 45.048 1.81353 46.8647 0.611798 49.6762C-0.580491 52.4654 -0.00432667 55.5755 2.11506 57.7922L10.6543 66.7246L7.2682 67.595C3.9707 68.4422 1.49966 71.0407 0.818505 74.3768C0.137716 77.7128 1.39322 81.0724 4.09458 83.1438L32.6601 105.051C34.0064 106.084 35.5882 106.63 37.2349 106.63C40.0394 106.63 42.6845 104.989 43.9741 102.45C45.2678 99.9016 45.0197 96.9838 43.3104 94.645L35.4461 83.8846L42.4004 82.0972C45.9166 81.193 48.4218 78.399 48.938 74.8054C49.4542 71.2119 47.8376 67.8246 44.7181 65.9675ZM43.5451 74.0298C43.3446 75.4256 42.4095 76.4682 41.0443 76.8191L30.1971 79.6069C29.3219 79.8318 28.6153 80.4759 28.3105 81.3267C28.0058 82.1771 28.1423 83.1235 28.6756 83.8533L38.9122 97.8593C39.4001 98.527 39.4727 99.2808 39.1163 99.9823C38.7527 100.699 37.9967 101.18 37.2356 101.18C36.7921 101.18 36.3688 101.027 35.9769 100.727L7.41097 78.8193C6.37744 78.027 5.89754 76.7421 6.15801 75.4662C6.41849 74.19 7.36374 73.1961 8.62506 72.872L16.5177 70.8431C17.4546 70.6023 18.1935 69.883 18.4594 68.9526C18.7254 68.0222 18.4776 67.021 17.8088 66.3217L6.05448 54.0265C5.45906 53.4038 5.29776 52.5781 5.62326 51.8177C5.9662 51.0152 6.7142 50.4965 7.52904 50.4965C7.89087 50.4965 8.26541 50.6058 8.61307 50.8129L41.9314 70.6491C43.1419 71.3706 43.7453 72.6345 43.5451 74.0298Z" fill="#FDFFA9"/>
    <path d="M118.199 46.7321C116.074 45.9743 114.646 43.8996 114.646 41.5699V30.7151C114.646 29.2104 113.427 27.9905 111.922 27.9905C110.417 27.9905 109.197 29.21 109.197 30.7151V41.5699C109.197 46.1978 112.079 50.3348 116.368 51.8646C123.19 54.2989 127.774 60.802 127.774 68.0477C127.774 77.6328 120.267 85.1804 110.683 85.2305C110.652 85.2309 110.622 85.2309 110.591 85.2309C105.98 85.2309 101.655 83.4304 98.4037 80.1566C96.9622 78.7045 95.0437 77.9053 93.0017 77.9053C90.9597 77.9053 89.0416 78.7049 87.6008 80.1562C84.3483 83.4308 80.0238 85.2309 75.4138 85.2309C75.3825 85.2309 75.3509 85.2309 75.3201 85.2305C65.7367 85.1796 58.2299 77.6325 58.2299 68.0477C58.2299 60.8024 62.8141 54.2989 69.6362 51.8649C73.9251 50.3348 76.8066 46.1978 76.8066 41.5699V13.0382C76.8066 11.1571 78.3371 9.62695 80.2178 9.62695H105.786C107.667 9.62695 109.197 11.1575 109.197 13.0382V18.0009C109.197 19.5057 110.416 20.7256 111.921 20.7256C113.426 20.7256 114.646 19.506 114.646 18.0009V13.0382C114.646 8.15239 110.671 4.17773 105.786 4.17773H80.2178C75.3321 4.17773 71.3574 8.15239 71.3574 13.0382V41.5699C71.3574 43.9 69.9297 45.9743 67.8049 46.7325C58.8184 49.9385 52.7803 58.5043 52.7803 68.0473C52.7803 73.7683 54.8648 79.1514 58.6669 83.3175C56.2765 86.3022 55.025 89.6062 55.025 92.9996C55.025 96.3967 56.2787 99.7044 58.6741 102.691C55.1925 106.511 53.0022 111.537 52.8006 117.11C52.7465 118.614 53.9213 119.877 55.425 119.931C55.4584 119.932 55.4918 119.933 55.5249 119.933C56.9838 119.933 58.1924 118.777 58.2458 117.307C58.5793 108.082 66.0789 100.818 75.3193 100.769C75.3506 100.769 75.3815 100.769 75.4131 100.769C80.0231 100.769 84.3483 102.569 87.5993 105.843C89.0408 107.295 90.959 108.095 93.0006 108.095C95.043 108.095 96.9615 107.295 98.4026 105.843C101.654 102.569 105.979 100.769 110.59 100.769C110.62 100.769 110.651 100.769 110.682 100.769C120.266 100.82 127.773 108.367 127.773 117.952C127.773 125.198 123.189 131.701 116.367 134.135C112.078 135.665 109.196 139.802 109.196 144.43V172.962C109.196 174.843 107.666 176.373 105.785 176.373H80.2171C78.336 176.373 76.8059 174.843 76.8059 172.962V144.43C76.8059 139.802 73.9243 135.665 69.6358 134.135C66.2918 132.942 63.4342 130.771 61.3722 127.855C60.5036 126.626 58.8031 126.334 57.5745 127.204C56.3459 128.073 56.0549 129.772 56.9235 131.001C59.6361 134.838 63.399 137.696 67.8049 139.268C69.9293 140.026 71.357 142.1 71.357 144.43V172.962C71.357 177.848 75.3317 181.822 80.2175 181.822H105.785C110.671 181.822 114.646 177.848 114.646 172.962V144.43C114.646 142.1 116.073 140.026 118.199 139.268C127.185 136.062 133.223 127.496 133.223 117.953C133.223 112.232 131.138 106.849 127.336 102.683C129.727 99.6978 130.978 96.3938 130.978 93.0004C130.978 89.607 129.727 86.3025 127.336 83.3182C131.138 79.1521 133.223 73.769 133.223 68.048C133.223 58.5043 127.185 49.9385 118.199 46.7321ZM110.59 95.3203C104.518 95.3203 98.8204 97.6914 94.5373 102.005C94.1264 102.418 93.5815 102.646 93.0024 102.646C92.4233 102.646 91.8784 102.418 91.4676 102.004C87.1841 97.6911 81.4879 95.3203 75.4152 95.3203C75.3742 95.3203 75.3324 95.3206 75.2917 95.3206C70.6672 95.345 66.3757 96.7443 62.805 99.134C61.2596 97.165 60.4749 95.1092 60.4749 93C60.4749 90.8948 61.2567 88.843 62.7959 86.8773C66.4524 89.3269 70.7631 90.6554 75.2914 90.679C75.3328 90.679 75.3738 90.6794 75.4152 90.6794C81.4875 90.679 87.1845 88.3082 91.4683 83.995C91.8788 83.5812 92.4237 83.3534 93.0024 83.3534C93.5818 83.3534 94.1268 83.5812 94.5373 83.995C98.8204 88.3086 104.517 90.6794 110.59 90.6794C110.631 90.6794 110.672 90.679 110.712 90.679C115.241 90.6554 119.552 89.3269 123.209 86.8773C124.748 88.843 125.53 90.8948 125.53 93C125.53 95.1052 124.748 97.157 123.209 99.1227C119.552 96.6731 115.241 95.3446 110.712 95.321C110.671 95.3206 110.631 95.3203 110.59 95.3203Z" fill="#FDFFA9"/>
    </g>
    <defs>
    <clipPath id="clip0_2_1951">
    <rect width="186" height="186" fill="white"/>
    </clipPath>
    </defs>
    </svg>
    