
<svg width="168" height="168" viewBox="0 0 168 168" fill="none" xmlns="http://www.w3.org/2000/svg">
    <path d="M149.221 67.324L132.421 51.7243V35.1406C132.414 30.1242 130.419 25.3151 126.871 21.768C123.324 18.2208 118.515 16.2252 113.499 16.2188H113.307C112.651 11.7176 110.398 7.60246 106.959 4.62482C103.521 1.64718 99.1257 0.00565996 94.5769 0H64.8426C56.9594 0.00930002 49.4017 3.14501 43.8275 8.71927C38.2532 14.2935 35.1175 21.8512 35.1082 29.7344V51.7243L18.3083 67.324C16.8138 68.7143 15.616 70.3925 14.7868 72.2576C13.9576 74.1227 13.5142 76.1362 13.4832 78.1771L0 167.191L5.34137 168.002L18.857 78.7988C18.879 78.6639 18.8899 78.5273 18.8894 78.3906C18.8913 77.057 19.1672 75.7381 19.7001 74.5156C20.233 73.2931 21.0115 72.1932 21.9872 71.2841L54.1922 41.3821C54.637 40.9684 55.1928 40.6936 55.7915 40.5913C56.3902 40.489 57.0057 40.5637 57.5626 40.8062C58.1194 41.0488 58.5934 41.4486 58.9262 41.9567C59.2591 42.4647 59.4363 43.0589 59.4363 43.6663C59.4361 44.5213 59.1389 45.3497 58.5956 46.0099L35.7191 73.9764C35.3241 74.4592 35.1083 75.0637 35.1082 75.6875V100.016H40.5144V88.1705L46.0045 85.4187C46.2009 90.2477 47.3289 94.9932 49.3266 99.3939C44.4614 105.842 37.7656 110.675 30.1128 113.261L28.8477 113.683C28.2867 113.869 27.8024 114.235 27.4689 114.723C27.1355 115.211 26.9713 115.795 27.0015 116.386L29.7046 167.745L35.1109 167.459L33.689 140.468L46.9344 136.329C53.4894 148.648 67.9458 156.781 83.7644 156.781C99.5831 156.781 114.039 148.648 120.605 136.321L133.851 140.46L132.421 167.45L137.827 167.737L140.53 116.378C140.56 115.787 140.396 115.203 140.063 114.715C139.729 114.227 139.245 113.861 138.684 113.675L137.419 113.253C129.768 110.672 123.072 105.847 118.205 99.4047C120.201 95.0035 121.329 90.2583 121.527 85.4296L127.014 88.1705V100.016H132.421V75.6875C132.421 75.0637 132.205 74.4592 131.81 73.9764L108.931 46.0099C108.389 45.3489 108.093 44.5208 108.093 43.6663C108.092 43.0592 108.27 42.4653 108.602 41.9574C108.935 41.4494 109.408 41.0496 109.965 40.8068C110.521 40.564 111.136 40.4889 111.735 40.5906C112.333 40.6923 112.889 40.9665 113.334 41.3794L145.542 71.2841C146.517 72.1932 147.296 73.2931 147.829 74.5156C148.362 75.7381 148.638 77.057 148.639 78.3906C148.639 78.5255 148.65 78.6602 148.672 78.7934L162.188 167.997L167.529 167.186L154.046 78.1771C154.015 76.1362 153.571 74.1227 152.742 72.2576C151.913 70.3925 150.715 68.7143 149.221 67.324ZM108.314 53.8084L116.202 63.4369V83.7969C116.202 92.3998 112.784 100.65 106.701 106.734C100.618 112.817 92.3674 116.234 83.7644 116.234C75.1615 116.234 66.9109 112.817 60.8277 106.734C54.7445 100.65 51.3269 92.3998 51.3269 83.7969V63.4369L52.3622 62.1719H72.1951C77.742 62.1535 83.1669 60.5414 87.8236 57.5275C92.4804 54.5136 96.1728 50.2248 98.4613 45.1719L108.314 53.8084ZM99.1722 129.626L105.119 131.485C102.35 134.356 99.0302 136.639 95.3589 138.199C91.6876 139.758 87.7397 140.562 83.7509 140.562C79.7621 140.562 75.8142 139.758 72.1429 138.199C68.4716 136.639 65.1521 134.356 62.3827 131.485L68.3296 129.626C68.8834 129.458 69.3687 129.117 69.7142 128.653C70.0597 128.188 70.2471 127.626 70.2488 127.047V119.102C78.9415 122.487 88.5874 122.487 97.2801 119.102V127.047C97.28 127.622 97.4635 128.182 97.8038 128.646C98.1441 129.11 98.6235 129.453 99.1722 129.626ZM40.5144 76.6525L45.9207 70.0461V79.4232L40.5144 82.1263V76.6525ZM32.5078 118.143C40.1466 115.434 46.9266 110.74 52.1514 104.543C55.3986 109.464 59.7428 113.564 64.8426 116.521V125.06L33.389 134.886L32.5078 118.143ZM83.7644 151.375C70.311 151.375 58.0442 144.766 52.2001 134.672L56.7791 133.242C60.0603 137.223 64.1812 140.427 68.8466 142.628C73.512 144.828 78.6063 145.969 83.7644 145.969C88.9226 145.969 94.0169 144.828 98.6823 142.628C103.348 140.427 107.469 137.223 110.75 133.242L115.329 134.672C109.485 144.766 97.2179 151.375 83.7644 151.375ZM135.021 118.143L134.14 134.902L102.686 125.06V116.521C107.784 113.565 112.128 109.467 115.375 104.549C120.6 110.744 127.381 115.436 135.021 118.143ZM127.014 82.1263L121.608 79.4232V70.0461L127.014 76.6525V82.1263ZM111.212 35.1406C109.266 35.1441 107.38 35.8123 105.866 37.0344C104.352 38.2566 103.3 39.9593 102.886 41.8606L99.0587 38.5114C98.7157 38.2115 98.3025 38.0032 97.8574 37.9058C97.4124 37.8084 96.9499 37.825 96.513 37.9542C96.0761 38.0834 95.6789 38.3209 95.3584 38.6447C95.0379 38.9685 94.8044 39.368 94.6796 39.8062C93.2693 44.684 90.3158 48.9732 86.262 52.0309C82.2083 55.0885 77.2726 56.7498 72.1951 56.7656H56.7873L62.7828 49.4347C64.1142 47.8071 64.8419 45.7691 64.8426 43.6663C64.8424 42.0071 64.358 40.384 63.4489 38.996C62.5398 37.608 61.2455 36.5154 59.7246 35.8522C58.2036 35.1891 56.5223 34.9841 54.8866 35.2624C53.2509 35.5408 51.7319 36.2904 50.516 37.4194L40.5144 46.7046V29.7344C40.5216 23.2844 43.087 17.1006 47.6479 12.5397C52.2087 7.97884 58.3925 5.4134 64.8426 5.40625H94.5769C98.1602 5.41054 101.595 6.83588 104.129 9.36963C106.663 11.9034 108.088 15.3386 108.093 18.9219C108.093 19.6388 108.377 20.3263 108.884 20.8333C109.391 21.3402 110.079 21.625 110.796 21.625H113.499C117.082 21.6293 120.517 23.0546 123.051 25.5884C125.585 28.1221 127.01 31.5574 127.014 35.1406V46.7046L117.013 37.4167C115.437 35.9518 113.364 35.1385 111.212 35.1406Z" fill="#FDFFA9"/>
    <path d="M89.2355 76.2875C89.3518 76.7961 89.6127 77.2601 89.9868 77.6237C90.361 77.9873 90.8323 78.2348 91.344 78.3365L104.86 81.0396L105.919 75.7415L98.3343 74.2223L104.308 69.7405L101.064 65.4155L90.2519 73.5249C89.8337 73.8379 89.5151 74.2654 89.3347 74.7557C89.1543 75.246 89.1199 75.778 89.2355 76.2875Z" fill="#FDFFA9"/>
    <path d="M66.4647 65.4155L63.221 69.7405L69.1949 74.2223L61.5991 75.7415L62.6587 81.0396L76.1744 78.3365C76.6849 78.2324 77.1545 77.9829 77.5266 77.6182C77.8987 77.2534 78.1574 76.7889 78.2717 76.2805C78.3859 75.7721 78.3508 75.2416 78.1705 74.7527C77.9903 74.2638 77.6725 73.8374 77.2556 73.5249L66.4647 65.4155Z" fill="#FDFFA9"/>
    </svg>
    