<svg width="178" height="178" viewBox="0 0 178 178" fill="none" xmlns="http://www.w3.org/2000/svg">
<path d="M77.875 80.6562C80.0879 80.6562 82.2102 79.7772 83.7749 78.2124C85.3397 76.6477 86.2188 74.5254 86.2188 72.3125H80.6562C80.6562 73.0501 80.3632 73.7576 79.8416 74.2791C79.3201 74.8007 78.6126 75.0938 77.875 75.0938C77.1374 75.0938 76.4299 74.8007 75.9084 74.2791C75.3868 73.7576 75.0938 73.0501 75.0938 72.3125H69.5312C69.5312 74.5254 70.4103 76.6477 71.9751 78.2124C73.5398 79.7772 75.6621 80.6562 77.875 80.6562Z" fill="#FDFFA9"/>
<path d="M100.125 80.6562C102.338 80.6562 104.46 79.7772 106.025 78.2124C107.59 76.6477 108.469 74.5254 108.469 72.3125H102.906C102.906 73.0501 102.613 73.7576 102.092 74.2791C101.57 74.8007 100.863 75.0938 100.125 75.0938C99.3874 75.0938 98.6799 74.8007 98.1584 74.2791C97.6368 73.7576 97.3438 73.0501 97.3438 72.3125H91.7812C91.7812 74.5254 92.6603 76.6477 94.2251 78.2124C95.7898 79.7772 97.9121 80.6562 100.125 80.6562Z" fill="#FDFFA9"/>
<path d="M41.7189 172.437H136.281C138.494 172.437 140.617 171.558 142.181 169.994C143.746 168.429 144.625 166.307 144.625 164.094V122.375C144.622 120.965 144.976 119.578 145.654 118.342L153.636 103.852C155.11 104.269 156.585 104.658 158.031 105.103C159.088 105.468 160.195 105.665 161.313 105.687C162.069 105.682 162.823 105.608 163.565 105.465C165.703 105.029 167.666 103.974 169.209 102.431C170.752 100.888 171.807 98.9254 172.243 96.7875C172.62 94.9411 172.534 93.0299 171.993 91.225C170.521 86.602 169.296 81.9044 168.321 77.1518L168.572 76.7346C169.543 74.9669 170.119 73.009 170.258 70.9967C170.397 68.9844 170.097 66.9659 169.378 65.0812C168.772 63.6503 167.925 62.3335 166.875 61.1875V47.2812C167.221 37.9471 168.946 28.7155 171.993 19.8859C172.536 18.0811 172.622 16.1697 172.243 14.3234C171.925 12.8103 171.295 11.3802 170.393 10.1243C169.491 8.86834 168.337 7.8142 167.005 7.02911C165.673 6.24401 164.192 5.74521 162.656 5.56451C161.121 5.38382 159.564 5.5252 158.086 5.97965C149.263 9.01757 140.043 10.751 130.719 11.125H47.4205C38.0702 10.7822 28.8211 9.0673 19.9695 6.03527C18.1647 5.49232 16.2533 5.4063 14.407 5.78496C12.2792 6.23074 10.3287 7.29017 8.79638 8.83234C7.26409 10.3745 6.21723 12.3318 5.78514 14.4625C5.40176 16.3084 5.48783 18.221 6.03546 20.025C9.06204 28.8109 10.777 37.9951 11.1251 47.2812V61.1875C10.0611 62.3696 9.22217 63.7363 8.64983 65.2203C7.93106 67.105 7.6309 69.1235 7.77017 71.1358C7.90945 73.1481 8.48483 75.106 9.4564 76.8737L9.67889 77.2909C8.70748 82.0533 7.48197 86.7603 6.00765 91.3918C5.46002 93.1958 5.37395 95.1084 5.75733 96.9543C6.19532 99.096 7.25456 101.061 8.80278 102.604C10.351 104.148 12.3196 105.201 14.4626 105.632C15.2011 105.717 15.9458 105.736 16.6876 105.687C17.7802 105.686 18.8669 105.527 19.9139 105.215C21.388 104.742 22.862 104.352 24.3639 103.935L32.3183 118.426C32.9926 119.634 33.3558 120.991 33.3751 122.375V164.094C33.3751 166.307 34.2542 168.429 35.819 169.994C37.3837 171.558 39.506 172.437 41.7189 172.437ZM166.875 95.7028C166.666 96.7982 166.133 97.8056 165.344 98.5942C164.556 99.3827 163.548 99.9161 162.453 100.125C161.528 100.304 160.574 100.256 159.672 99.9859L156.362 99.0403L164.261 84.689C165.067 87.7762 165.902 90.6409 166.625 93.0328C166.925 93.889 167.011 94.8057 166.875 95.7028ZM11.1251 15.5193C11.339 14.429 11.8746 13.4276 12.6628 12.6444C13.4509 11.8612 14.4556 11.332 15.5473 11.125C16.4595 10.8895 17.4165 10.8895 18.3286 11.125C27.7008 14.3949 37.5029 16.2692 47.4205 16.6875H130.719C140.589 16.3381 150.353 14.5388 159.7 11.3475C160.614 11.133 161.566 11.133 162.481 11.3475C163.538 11.5436 164.516 12.0421 165.296 12.7825C166.076 13.523 166.624 14.4736 166.875 15.5193C167.098 16.433 167.098 17.3869 166.875 18.3006C163.6 27.633 161.725 37.3993 161.313 47.2812V57.1268L160.979 56.9878L120.512 42.859C117.944 36.6515 113.562 31.3635 107.94 27.6865C102.318 24.0095 95.7166 22.1147 89.0001 22.25C82.2837 22.1147 75.6828 24.0095 70.0606 27.6865C64.4385 31.3635 60.0568 36.6515 57.4886 42.859L17.0492 57.0156L16.6876 57.1546V47.2812C16.3582 37.4116 14.568 27.6454 11.3755 18.3006C11.0694 17.4071 10.9836 16.4531 11.1251 15.5193ZM63.9689 80.6562C63.2313 80.6562 62.5238 80.3632 62.0023 79.8416C61.4807 79.32 61.1876 78.6126 61.1876 77.875C61.1928 77.505 61.2717 77.1398 61.4197 76.8007C61.5678 76.4616 61.782 76.1555 62.0498 75.9003C62.2964 75.6402 62.5943 75.4342 62.9246 75.2954C63.255 75.1566 63.6106 75.0879 63.9689 75.0937C64.4101 75.0917 64.8446 74.9847 65.2363 74.7816C65.628 74.5784 65.9658 74.285 66.2217 73.9256C66.4802 73.569 66.6502 73.1561 66.7179 72.7209C66.7856 72.2857 66.749 71.8407 66.6111 71.4225C65.8166 69.0806 65.5692 66.5879 65.888 64.1356C66.4069 60.4197 68.1837 56.9939 70.922 54.429C76.5742 57.0918 82.7523 58.4509 89.0001 58.4062C95.2395 58.4553 101.41 57.0958 107.05 54.429C109.33 56.5453 110.951 59.2735 111.721 62.2872C112.49 65.3009 112.375 68.4725 111.389 71.4225C111.251 71.8407 111.215 72.2857 111.282 72.7209C111.35 73.1561 111.52 73.569 111.779 73.9256C112.035 74.285 112.372 74.5784 112.764 74.7816C113.156 74.9847 113.59 75.0917 114.031 75.0937C114.769 75.0937 115.476 75.3867 115.998 75.9083C116.52 76.4299 116.813 77.1373 116.813 77.875C116.813 78.6126 116.52 79.32 115.998 79.8416C115.476 80.3632 114.769 80.6562 114.031 80.6562C113.294 80.6562 112.586 80.9492 112.065 81.4708C111.543 81.9924 111.25 82.6998 111.25 83.4375V85.0506C111.279 89.486 109.78 93.7962 107.004 97.2558C104.228 100.715 100.345 103.113 96.0089 104.047L89.0001 105.687L81.9914 104.13C77.6409 103.194 73.7475 100.784 70.9701 97.3069C68.1927 93.83 66.7019 89.5003 66.7501 85.0506V83.4375C66.7501 82.6998 66.4571 81.9924 65.9355 81.4708C65.414 80.9492 64.7065 80.6562 63.9689 80.6562ZM61.1876 85.7459C61.2402 87.4238 61.4638 89.0919 61.8551 90.7243L38.9376 75.4275L58.6845 65.554C59.1946 66.5821 59.7706 67.5761 60.4089 68.53C60.4089 69.0862 60.4089 69.6703 60.6036 70.2543C59.6773 70.6559 58.8369 71.2319 58.1283 71.9509C57.3399 72.7236 56.7127 73.6452 56.283 74.6621C55.8533 75.679 55.6297 76.771 55.6251 77.875C55.6242 79.6011 56.1587 81.2851 57.155 82.6948C58.1512 84.1045 59.5602 85.1705 61.1876 85.7459ZM61.1876 52.8437C61.1876 38.9375 73.6755 27.8125 89.0001 27.8125C104.325 27.8125 116.813 38.9375 116.813 52.8437C116.788 54.597 116.564 56.3418 116.145 58.0446C114.662 54.4192 112.232 51.2589 109.109 48.8943C108.679 48.5671 108.164 48.3718 107.626 48.3323C107.088 48.2928 106.549 48.4108 106.077 48.6718C100.826 51.4748 94.9525 52.9096 89.0001 52.8437C83.0394 52.9059 77.1582 51.4715 71.8955 48.6718C71.4289 48.4126 70.8976 48.2932 70.365 48.3277C69.8324 48.3622 69.3209 48.5493 68.8917 48.8665C65.7782 51.2522 63.3507 54.4185 61.8551 58.0446C61.4384 56.3415 61.2145 54.5969 61.1876 52.8437ZM116.813 85.7459C118.387 85.1899 119.759 84.1742 120.75 82.8303C121.741 81.4864 122.306 79.8761 122.372 78.2076C122.437 76.5391 122.001 74.8892 121.119 73.4713C120.237 72.0534 118.95 70.9328 117.425 70.2543C117.425 69.6703 117.564 69.0862 117.619 68.5021C118.263 67.5616 118.84 66.5764 119.344 65.554L139.063 75.4275L116.117 90.7243C116.518 89.0928 116.751 87.4247 116.813 85.7459ZM18.3008 99.8746C17.5577 100.118 16.7717 100.202 15.994 100.121C15.2163 100.04 14.4644 99.7965 13.7873 99.4055C13.1102 99.0144 12.5231 98.485 12.0644 97.8518C11.6057 97.2186 11.2857 96.4958 11.1251 95.7306C10.9012 94.817 10.9012 93.8629 11.1251 92.9493C11.8483 90.5574 12.7105 87.665 13.4892 84.6056L21.388 98.9568L18.3008 99.8746ZM14.3514 74.1481C13.7723 73.0824 13.4324 71.9033 13.3556 70.6928C13.2787 69.4824 13.4667 68.2697 13.9064 67.1393C14.3474 66.0113 15.0249 64.9908 15.8932 64.1465C16.7615 63.3022 17.8006 62.6536 18.9405 62.2443L55.9311 49.3115C55.7451 50.4801 55.6428 51.6605 55.6251 52.8437C55.6314 55.3815 55.9775 57.9071 56.6542 60.3531L32.1236 72.5906C31.6853 72.8106 31.3129 73.1425 31.0443 73.5528C30.7756 73.9631 30.6203 74.4371 30.5939 74.9268C30.5677 75.4129 30.6695 75.8973 30.8891 76.3316C31.1087 76.766 31.4385 77.1351 31.8455 77.4021L66.4998 100.514C70.0408 105.047 75.0437 108.212 80.6564 109.47L88.277 111.194L89.0001 111.25H89.612L97.3439 109.498C102.992 108.251 108.033 105.086 111.612 100.542L146.294 77.4021C146.696 77.1318 147.02 76.7612 147.235 76.3271C147.449 75.8929 147.547 75.4103 147.518 74.9268C147.491 74.4371 147.336 73.9631 147.067 73.5528C146.799 73.1425 146.426 72.8106 145.988 72.5906L121.457 60.3531C122.096 57.902 122.405 55.3765 122.375 52.8437C122.376 51.6619 122.292 50.4815 122.125 49.3115L159.115 62.2443C160.245 62.6603 161.273 63.3119 162.132 64.1559C162.99 64.9999 163.659 66.0169 164.094 67.1393C164.525 68.2737 164.704 69.4885 164.617 70.699C164.531 71.9095 164.181 73.0865 163.593 74.1481L140.704 115.867C139.641 117.873 139.078 120.105 139.063 122.375V164.094C139.063 164.831 138.77 165.539 138.248 166.06C137.726 166.582 137.019 166.875 136.281 166.875H41.7189C40.9813 166.875 40.2738 166.582 39.7523 166.06C39.2307 165.539 38.9376 164.831 38.9376 164.094V122.375C38.9371 120.035 38.3541 117.731 37.2411 115.672L14.3514 74.1481Z" fill="#FDFFA9"/>
</svg>
