<svg width="188" height="188" viewBox="0 0 188 188" fill="none" xmlns="http://www.w3.org/2000/svg">
    <path d="M93.9994 153.805C77.3933 153.983 60.825 152.186 44.6429 148.454C42.4022 147.858 40.0484 147.83 37.7942 148.372C35.54 148.914 33.4563 150.01 31.7314 151.559C30.9218 152.313 29.971 152.899 28.9339 153.285C27.8968 153.67 26.7937 153.846 25.6881 153.804C24.5826 153.761 23.4963 153.5 22.492 153.036C21.4876 152.572 20.5849 151.914 19.8357 151.1C19.0866 150.286 18.5058 149.332 18.1268 148.292C17.7478 147.253 17.5781 146.148 17.6274 145.043C17.6767 143.938 17.9441 142.853 18.4141 141.852C18.8842 140.85 19.5476 139.951 20.3662 139.207C22.1224 137.529 23.4414 135.446 24.2084 133.141C24.9753 130.836 25.167 128.378 24.7666 125.982C22.8045 112.564 22.8045 98.9324 24.7666 85.5148C25.1667 83.1191 24.975 80.6619 24.208 78.3572C23.441 76.0526 22.1221 73.9704 20.3662 72.2922C19.5482 71.5483 18.8851 70.6502 18.4152 69.6493C17.9452 68.6484 17.6777 67.5646 17.6279 66.46C17.5781 65.3554 17.747 64.2518 18.125 63.2127C18.503 62.1736 19.0825 61.2195 19.8304 60.405C20.5782 59.5906 21.4796 58.9319 22.4828 58.4669C23.4859 58.0018 24.5711 57.7396 25.6759 57.6952C26.7807 57.6508 27.8834 57.8251 28.9206 58.2082C29.9579 58.5912 30.9092 59.1754 31.72 59.9272C33.4445 61.4812 35.5295 62.5803 37.7861 63.1248C40.0427 63.6693 42.3995 63.642 44.6429 63.0453C60.8251 59.3131 77.3934 57.5167 93.9994 57.694C110.605 57.5167 127.174 59.313 143.356 63.0453C145.597 63.6402 147.95 63.6679 150.204 63.1258C152.459 62.5837 154.542 61.4888 156.267 59.94C157.077 59.1848 158.028 58.5971 159.065 58.2109C160.103 57.8248 161.206 57.6477 162.313 57.6898C163.419 57.732 164.506 57.9927 165.511 58.4567C166.516 58.9208 167.42 59.5791 168.169 60.3938C168.919 61.2085 169.5 62.1635 169.879 63.2037C170.258 64.2439 170.427 65.3488 170.377 66.4547C170.327 67.5607 170.059 68.6458 169.588 69.6477C169.117 70.6495 168.452 71.5483 167.633 72.2922C165.876 73.9709 164.557 76.0535 163.79 78.3587C163.023 80.6638 162.832 83.1215 163.232 85.5177C164.211 92.2764 164.703 99.0967 164.704 105.926C164.741 106.695 165.079 107.419 165.644 107.942C166.21 108.465 166.958 108.745 167.728 108.722C168.498 108.698 169.228 108.374 169.761 107.818C170.294 107.263 170.588 106.52 170.579 105.75C170.569 98.7011 170.058 91.662 169.05 84.6858C168.786 83.2398 168.88 81.7513 169.322 80.3494C169.763 78.9476 170.541 77.6746 171.586 76.6409C173.49 74.9197 174.891 72.7145 175.642 70.2599C176.393 67.8054 176.464 65.1933 175.848 62.7015C175.234 60.3017 174.009 58.1016 172.293 56.3148C170.577 54.5281 168.428 53.2154 166.055 52.5043C163.682 51.7933 161.166 51.7079 158.75 52.2566C156.334 52.8053 154.102 53.9694 152.269 55.6359C151.255 56.5206 150.037 57.1394 148.724 57.4366C147.412 57.7338 146.046 57.7 144.75 57.3384C128.112 53.4946 111.075 51.6419 93.9995 51.8192C76.9238 51.6423 59.8876 53.4944 43.2488 57.3368C41.9502 57.6999 40.5816 57.7334 39.2668 57.4342C37.952 57.1349 36.7326 56.5125 35.719 55.6232C33.8856 53.961 31.6538 52.8005 29.2401 52.2543C26.8263 51.708 24.3124 51.7945 21.9419 52.5053C19.5714 53.2162 17.4247 54.5272 15.7098 56.3115C13.9949 58.0958 12.7699 60.2927 12.1536 62.6896C11.5359 65.1829 11.6058 67.797 12.3559 70.2537C13.106 72.7105 14.5083 74.9178 16.4134 76.6408C17.4582 77.6741 18.2352 78.9465 18.677 80.3479C19.1189 81.7492 19.2123 83.2372 18.9492 84.6829C16.9125 98.6525 16.9125 112.844 18.9492 126.813C19.2126 128.259 19.1193 129.748 18.6775 131.15C18.2357 132.552 17.4588 133.824 16.414 134.858C15.0208 136.123 13.8916 137.651 13.0912 139.353C12.2908 141.056 11.8351 142.9 11.7503 144.78C11.6655 146.66 11.9533 148.537 12.5971 150.305C13.2409 152.073 14.2281 153.696 15.5016 155.081C16.7752 156.466 18.3102 157.586 20.0181 158.375C21.726 159.165 23.5732 159.608 25.4533 159.681C27.3334 159.754 29.2093 159.454 30.9731 158.799C32.7369 158.143 34.3536 157.146 35.7303 155.863C36.7445 154.979 37.9624 154.361 39.2748 154.063C40.5871 153.766 41.9527 153.8 43.2488 154.161C59.8873 158.005 76.9237 159.857 93.9995 159.68C97.0443 159.334 102.477 161.025 102.755 156.636C102.249 152.205 97.0697 154.205 93.9994 153.805Z" fill="#FDFFA9"/>
    <path d="M140.998 105.75C134.026 105.75 127.211 107.817 121.415 111.69C115.618 115.563 111.1 121.068 108.432 127.509C105.764 133.95 105.066 141.038 106.426 147.875C107.786 154.713 111.144 160.994 116.073 165.923C121.003 170.853 127.284 174.21 134.121 175.57C140.959 176.93 148.046 176.232 154.487 173.564C160.928 170.896 166.433 166.378 170.306 160.582C174.18 154.785 176.247 147.97 176.247 140.999C176.236 131.653 172.519 122.694 165.911 116.085C159.303 109.477 150.343 105.76 140.998 105.75ZM140.998 170.373C135.188 170.373 129.509 168.65 124.679 165.422C119.848 162.195 116.083 157.607 113.86 152.24C111.637 146.872 111.055 140.966 112.188 135.268C113.322 129.57 116.119 124.336 120.227 120.228C124.335 116.12 129.569 113.322 135.267 112.189C140.965 111.055 146.872 111.637 152.239 113.86C157.606 116.084 162.194 119.849 165.422 124.679C168.649 129.51 170.372 135.189 170.372 140.999C170.363 148.786 167.266 156.253 161.759 161.759C156.252 167.266 148.786 170.364 140.998 170.373Z" fill="#FDFFA9"/>
    <path d="M153.608 129.134L136.101 146.64L128.388 138.926C128.115 138.651 127.792 138.433 127.435 138.284C127.078 138.134 126.695 138.057 126.308 138.056C125.921 138.055 125.538 138.131 125.18 138.278C124.823 138.426 124.498 138.643 124.224 138.916C123.951 139.19 123.734 139.515 123.586 139.872C123.439 140.23 123.363 140.613 123.364 141C123.365 141.387 123.442 141.77 123.592 142.127C123.741 142.484 123.959 142.807 124.234 143.08L134.024 152.87C134.297 153.143 134.621 153.359 134.977 153.507C135.334 153.655 135.716 153.731 136.101 153.731C136.487 153.731 136.869 153.655 137.225 153.507C137.582 153.359 137.905 153.143 138.178 152.87L157.762 133.288C158.308 132.736 158.614 131.99 158.612 131.214C158.61 130.437 158.301 129.693 157.752 129.144C157.203 128.595 156.459 128.286 155.682 128.284C154.906 128.282 154.16 128.588 153.608 129.134Z" fill="#FDFFA9"/>
    <path d="M93.9993 36.9298H96.9798L91.9225 41.9871C91.5116 42.3979 91.2318 42.9212 91.1184 43.491C91.005 44.0608 91.0631 44.6515 91.2855 45.1882C91.5078 45.725 91.8843 46.1837 92.3673 46.5065C92.8504 46.8292 93.4183 47.0015 93.9993 47.0014H104.071C104.846 46.9954 105.587 46.6833 106.133 46.1331C106.679 45.5829 106.986 44.8392 106.986 44.064C106.986 43.2889 106.679 42.5452 106.133 41.995C105.587 41.4447 104.846 41.1326 104.071 41.1266H101.09L106.148 36.0693C106.559 35.6586 106.838 35.1352 106.952 34.5654C107.065 33.9956 107.007 33.405 106.785 32.8683C106.562 32.3315 106.186 31.8727 105.703 31.55C105.22 31.2272 104.652 31.055 104.071 31.055H93.9993C93.6117 31.052 93.2272 31.1258 92.8682 31.2721C92.5092 31.4183 92.1827 31.6342 91.9075 31.9073C91.6323 32.1803 91.4139 32.5052 91.2648 32.863C91.1158 33.2209 91.0391 33.6048 91.0391 33.9924C91.0391 34.3801 91.1158 34.7639 91.2648 35.1218C91.4139 35.4797 91.6323 35.8045 91.9075 36.0776C92.1827 36.3506 92.5092 36.5665 92.8682 36.7128C93.2272 36.8591 93.6117 36.9328 93.9993 36.9298Z" fill="#FDFFA9"/>
    <path d="M116.658 27.2786H124.676L114.581 37.3716C114.171 37.7824 113.891 38.3058 113.777 38.8756C113.664 39.4453 113.722 40.036 113.944 40.5727C114.167 41.1095 114.543 41.5682 115.026 41.891C115.509 42.2138 116.077 42.386 116.658 42.386H131.767C132.542 42.38 133.283 42.0678 133.829 41.5176C134.375 40.9674 134.682 40.2237 134.682 39.4485C134.682 38.6734 134.375 37.9297 133.829 37.3795C133.283 36.8293 132.542 36.5171 131.767 36.5111H123.749L133.844 26.4181C134.255 26.0073 134.534 25.484 134.648 24.9142C134.761 24.3444 134.703 23.7538 134.481 23.217C134.259 22.6803 133.882 22.2215 133.399 21.8987C132.916 21.576 132.348 21.4037 131.767 21.4038H116.658C116.271 21.4008 115.886 21.4745 115.527 21.6208C115.168 21.7671 114.842 21.983 114.566 22.256C114.291 22.5291 114.073 22.8539 113.924 23.2118C113.775 23.5697 113.698 23.9535 113.698 24.3412C113.698 24.7289 113.775 25.1127 113.924 25.4706C114.073 25.8284 114.291 26.1533 114.566 26.4263C114.842 26.6994 115.168 26.9153 115.527 27.0616C115.886 27.2078 116.271 27.2816 116.658 27.2786Z" fill="#FDFFA9"/>
    <path d="M144.354 17.6274H157.406L142.277 32.7547C141.867 33.1655 141.587 33.6889 141.473 34.2587C141.36 34.8284 141.418 35.4191 141.64 35.9558C141.863 36.4926 142.239 36.9513 142.722 37.2741C143.205 37.5968 143.773 37.7691 144.354 37.7691H164.497C165.272 37.7631 166.014 37.4509 166.56 36.9007C167.106 36.3505 167.412 35.6068 167.412 34.8316C167.412 34.0565 167.106 33.3128 166.56 32.7626C166.014 32.2124 165.272 31.9002 164.497 31.8942H151.445L166.574 16.7668C166.985 16.3561 167.265 15.8327 167.378 15.2629C167.492 14.6931 167.434 14.1025 167.211 13.5658C166.989 13.029 166.612 12.5702 166.129 12.2475C165.646 11.9247 165.078 11.7525 164.497 11.7525H144.354C143.967 11.7495 143.582 11.8233 143.223 11.9696C142.864 12.1158 142.538 12.3317 142.262 12.6048C141.987 12.8778 141.769 13.2027 141.62 13.5606C141.471 13.9184 141.394 14.3023 141.394 14.6899C141.394 15.0776 141.471 15.4615 141.62 15.8193C141.769 16.1772 141.987 16.502 142.262 16.7751C142.538 17.0482 142.864 17.264 143.223 17.4103C143.582 17.5566 143.967 17.6304 144.354 17.6274Z" fill="#FDFFA9"/>
    </svg>
    