<svg width="196" height="196" viewBox="0 0 196 196" fill="none" xmlns="http://www.w3.org/2000/svg">
    <path d="M194.272 130.573L189.945 129.243C185.68 127.934 182.61 124.864 181.301 120.598L179.971 116.272C179.658 115.247 178.71 114.548 177.637 114.548C176.568 114.548 175.62 115.247 175.303 116.272L173.973 120.598C172.664 124.864 169.594 127.934 165.328 129.243L161.002 130.573C159.977 130.886 159.278 131.834 159.278 132.907C159.278 133.981 159.977 134.924 161.002 135.241L165.328 136.571C169.594 137.88 172.664 140.95 173.973 145.216L175.303 149.542C175.616 150.567 176.563 151.267 177.637 151.267C178.71 151.267 179.654 150.567 179.971 149.542L181.301 145.216C182.61 140.95 185.68 137.88 189.945 136.571L194.272 135.241C195.297 134.928 195.996 133.981 195.996 132.907C195.996 131.834 195.297 130.89 194.272 130.573ZM177.637 141.19C175.888 137.502 173.042 134.656 169.354 132.907C173.042 131.159 175.888 128.312 177.637 124.624C179.385 128.312 182.232 131.159 185.92 132.907C182.232 134.656 179.385 137.502 177.637 141.19ZM36.718 72.0712C36.718 70.9977 36.0186 70.0543 34.9939 69.7371L30.6674 68.4075C26.402 67.0981 23.332 64.028 22.0227 59.7625L20.693 55.4359C20.3799 54.4112 19.4325 53.7118 18.359 53.7118C17.2896 53.7118 16.3421 54.4112 16.025 55.4359L14.6953 59.7625C13.386 64.028 10.316 67.0981 6.05054 68.4075L1.72408 69.7371C0.69939 70.0502 0 70.9977 0 72.0712C0 73.1447 0.69939 74.0881 1.72408 74.4053L6.05054 75.7349C10.316 77.0443 13.386 80.1143 14.6953 84.3799L16.025 88.7065C16.3381 89.7312 17.2855 90.4306 18.359 90.4306C19.4325 90.4306 20.3758 89.7312 20.693 88.7065L22.0227 84.3799C23.332 80.1143 26.402 77.0443 30.6674 75.7349L34.9939 74.4053C36.0186 74.0881 36.718 73.1406 36.718 72.0712ZM18.3631 80.3543C16.6146 76.6661 13.7682 73.8197 10.0802 72.0712C13.7682 70.3227 16.6146 67.4763 18.3631 63.7881C20.1115 67.4763 22.9579 70.3227 26.6459 72.0712C22.9538 73.8197 20.1075 76.6661 18.3631 80.3543ZM57.2524 154.812L60.3834 153.853C61.4081 153.54 62.1075 152.592 62.1075 151.519C62.1075 150.449 61.4081 149.502 60.3834 149.185L57.2524 148.225C54.345 147.33 52.3363 145.326 51.4458 142.418L50.4862 139.287C50.1731 138.263 49.2257 137.563 48.1522 137.563C47.0787 137.563 46.1353 138.263 45.8182 139.287L44.8586 142.418C43.964 145.326 41.9593 147.334 39.052 148.225L35.921 149.185C34.8963 149.498 34.1969 150.445 34.1969 151.519C34.1969 152.592 34.8963 153.536 35.921 153.853L39.052 154.812C41.9593 155.707 43.968 157.712 44.8586 160.619L45.8182 163.75C46.1313 164.775 47.0787 165.474 48.1522 165.474C49.2216 165.474 50.169 164.775 50.4862 163.75L51.4458 160.619C52.3363 157.712 54.345 155.707 57.2524 154.812ZM48.1522 156.073C47.0299 154.182 45.4847 152.641 43.598 151.519C45.4888 150.396 47.0299 148.851 48.1522 146.964C49.2745 148.855 50.8196 150.396 52.7064 151.519C50.8156 152.641 49.2745 154.186 48.1522 156.073ZM133.344 161.871L129.265 161.323C126.366 160.932 124.264 158.525 124.264 155.601V145.639C132.217 141.251 138.109 133.578 140.11 124.461H141.391C148.828 124.461 154.874 118.411 154.874 110.974C154.874 106.009 152.174 101.666 148.169 99.3236V85.9292C148.169 67.4559 135.478 51.8861 118.355 47.4904C121.767 44.6318 123.942 40.3378 123.942 35.5476C123.942 26.9555 116.953 19.9656 108.361 19.9656C99.7688 19.9656 92.779 26.9555 92.779 35.5476C92.779 40.3378 94.9544 44.6318 98.366 47.4904C81.2431 51.8861 68.5524 67.4519 68.5524 85.9292V99.3236C64.5472 101.666 61.8472 106.009 61.8472 110.974C61.8472 118.411 67.8978 124.461 75.3308 124.461H76.6117C78.6123 133.578 84.5042 141.247 92.4577 145.639V155.597C92.4577 158.521 90.3555 160.928 87.4563 161.318L83.3779 161.867C53.4301 165.905 51.9134 188.725 51.9134 193.259V193.56C51.9134 194.906 53.0073 196 54.3532 196C55.6991 196 56.7929 194.906 56.7929 193.56V193.263C56.7929 187.896 58.7569 170.114 84.0325 166.706L88.1109 166.157C93.458 165.438 97.3413 160.997 97.3413 155.597V147.814C100.643 148.969 104.185 149.603 107.877 149.603H108.853C112.545 149.603 116.087 148.969 119.388 147.814V155.597C119.388 160.993 123.272 165.434 128.619 166.157L132.697 166.706C157.973 170.114 159.937 187.892 159.937 193.263V193.56C159.937 194.906 161.031 196 162.376 196C163.722 196 164.816 194.906 164.816 193.56V193.263C164.812 188.729 163.295 165.909 133.344 161.871ZM141.391 119.586H140.793C140.834 118.927 140.862 118.264 140.862 117.598V102.373H141.391C146.136 102.373 149.995 106.232 149.995 110.978C149.995 115.723 146.136 119.586 141.391 119.586ZM108.361 24.8492C114.261 24.8492 119.063 29.6515 119.063 35.5517C119.063 41.4519 114.261 46.2542 108.361 46.2542C102.461 46.2542 97.6584 41.4519 97.6584 35.5517C97.6584 29.6515 102.461 24.8492 108.361 24.8492ZM73.4319 85.9332C73.4319 66.7443 89.0421 51.1338 108.231 51.1338H108.491C127.679 51.1338 143.29 66.7443 143.29 85.9332V97.6279C142.667 97.5385 142.033 97.4897 141.387 97.4897H138.658C130.709 95.9933 120.925 87.4215 110.341 72.673C109.882 72.0346 109.146 71.6564 108.357 71.6564C107.568 71.6564 106.832 72.0346 106.372 72.673C95.792 87.4215 86.0046 95.9933 78.0552 97.4897H75.3267C74.6802 97.4897 74.0459 97.5385 73.4238 97.6279V85.9332H73.4319ZM75.3349 119.586C70.5896 119.586 66.7308 115.727 66.7308 110.978C66.7308 106.228 70.5896 102.373 75.3349 102.373H75.8635V117.598C75.8635 118.264 75.8919 118.927 75.9326 119.586H75.3349ZM107.873 144.728C103.656 144.728 99.6631 143.76 96.097 142.036C96.0441 142.008 95.9953 141.979 95.9384 141.955C86.9439 137.531 80.7389 128.276 80.7389 117.593V101.873C89.0828 99.5269 98.3538 91.5895 108.357 78.2276C118.36 91.5895 127.631 99.5269 135.974 101.873V117.593C135.974 128.276 129.765 137.535 120.771 141.955C120.718 141.979 120.665 142.004 120.616 142.032C117.054 143.756 113.057 144.724 108.841 144.724H107.873V144.728ZM161.006 20.6934L165.333 22.0231C169.598 23.3325 172.668 26.4025 173.977 30.6681L175.307 34.9946C175.62 36.0193 176.568 36.7187 177.641 36.7187C178.714 36.7187 179.658 36.0193 179.975 34.9946L181.305 30.6681C182.614 26.4025 185.684 23.3325 189.949 22.0231L194.276 20.6934C195.301 20.3803 196 19.4329 196 18.3594C196 17.2899 195.301 16.3425 194.276 16.0253L189.949 14.6956C185.684 13.3863 182.614 10.3162 181.305 6.05066L179.975 1.72411C179.662 0.699404 178.714 0 177.641 0C176.572 0 175.624 0.699404 175.307 1.72411L173.977 6.05066C172.668 10.3162 169.598 13.3863 165.333 14.6956L161.006 16.0253C159.981 16.3384 159.282 17.2859 159.282 18.3594C159.282 19.4329 159.981 20.3803 161.006 20.6934ZM177.637 10.0804C179.385 13.7685 182.232 16.6149 185.92 18.3634C182.232 20.1119 179.385 22.9584 177.637 26.6465C175.888 22.9584 173.042 20.1119 169.354 18.3634C173.046 16.6149 175.893 13.7685 177.637 10.0804Z" fill="#FDFFA9"/>
    </svg>
    