<svg width="191" height="163" viewBox="0 0 191 163" fill="none" xmlns="http://www.w3.org/2000/svg">
    <path d="M188.281 77.8588C189.735 76.0432 190.459 73.6254 190.078 71.1283C189.37 66.4886 185.11 63.2999 180.588 64.0185C180.491 64.0337 170.828 65.4929 160.204 63.4416C147.166 60.9245 138.555 54.4006 134.609 44.0512C132.939 39.6715 128.106 37.5016 123.835 39.2144C119.565 40.9269 117.449 45.8831 119.119 50.2628C120.06 52.7314 121.192 55.106 122.484 57.3207C123.27 58.6677 124.972 59.1074 126.286 58.3008C127.6 57.495 128.028 55.7492 127.242 54.4018C126.108 52.457 125.112 50.3674 124.282 48.1921C123.726 46.7321 124.431 45.0803 125.854 44.5095C127.279 43.9386 128.889 44.6622 129.446 46.1215C134.134 58.418 144.138 66.1252 159.178 69.0289C170.928 71.2974 181.34 69.6528 181.434 69.6372C182.943 69.3985 184.365 70.4601 184.601 72.0066C184.837 73.5526 183.804 75.0089 182.298 75.2529C182.132 75.2799 178.159 75.9144 172.279 75.9144C167.487 75.9144 162.842 75.4978 158.471 74.6768C148.668 72.8344 140.579 69.0251 134.432 63.3544C133.293 62.3049 131.541 62.3997 130.517 63.5671C129.493 64.7345 129.586 66.5319 130.724 67.5818C134.386 70.9593 138.636 73.7387 143.424 75.9144H127.535C127.894 74.872 128.054 73.7562 127.995 72.6115C127.762 68.0946 124.069 64.5503 119.587 64.5431C104.127 64.5181 91.618 58.8815 85.5377 55.5241C81.8479 53.4864 77.236 54.5996 74.8092 58.1132C73.4336 60.1054 72.9546 62.6108 73.4953 64.9869C74.0364 67.3653 75.5492 69.3966 77.6448 70.5594C80.456 72.1199 84.4022 74.0802 89.2647 75.9144H47.7263C59.2512 70.6875 67.534 61.9941 72.0073 50.262C73.6771 45.8827 71.5612 40.9265 67.2908 39.214C65.2214 38.384 62.962 38.4306 60.9274 39.344C58.8927 40.2579 57.3264 41.929 56.5173 44.0508C52.5711 54.4002 43.9597 60.9241 30.922 63.4412C20.3208 65.4876 10.6291 64.0325 10.5478 64.0196C6.02238 63.2911 1.76051 66.475 1.0457 71.1136C0.699011 73.3635 1.22717 75.6176 2.53371 77.46C2.63129 77.5976 2.73921 77.7246 2.84381 77.8554C1.67032 79.0569 0.943317 80.7167 0.943317 82.5474V136.755C0.943317 150.863 12.1348 162.34 25.8914 162.34H165.231C178.988 162.34 190.179 150.863 190.179 136.755V131.421C190.179 129.851 188.938 128.579 187.407 128.579C185.876 128.579 184.635 129.851 184.635 131.421V136.756C184.635 147.728 175.931 156.655 165.231 156.655H25.8914C15.1918 156.655 6.48734 147.728 6.48734 136.756V114.807C7.79055 116.13 8.96662 118.402 10.4173 121.395C12.928 126.576 15.7739 132.449 22.0841 132.449C28.3943 132.449 31.2399 126.576 33.751 121.395C36.1327 116.481 37.7722 113.497 40.4529 113.497C43.1337 113.497 44.7732 116.481 47.1549 121.395C49.6656 126.576 52.5116 132.449 58.8214 132.449C65.1316 132.449 67.9775 126.576 70.4882 121.395C72.8699 116.481 74.5095 113.497 77.1906 113.497C79.8713 113.497 81.5105 116.481 83.8922 121.395C86.4029 126.576 89.2488 132.449 95.5586 132.449C101.868 132.449 104.714 126.576 107.225 121.395C109.606 116.481 111.246 113.497 113.927 113.497C116.608 113.497 118.247 116.481 120.629 121.395C123.14 126.576 125.986 132.449 132.296 132.449C138.606 132.449 141.452 126.576 143.962 121.395C146.344 116.481 147.983 113.497 150.664 113.497C153.346 113.497 154.986 116.481 157.367 121.395C159.879 126.576 162.725 132.449 169.035 132.449C175.346 132.449 178.192 126.576 180.703 121.395C182.154 118.401 183.331 116.129 184.634 114.807V118.977C184.634 120.547 185.876 121.82 187.406 121.82C188.937 121.82 190.178 120.547 190.178 118.977V82.5478C190.179 80.7186 189.453 79.0599 188.281 77.8588ZM78.8941 63.6952C78.7107 62.8901 78.8671 62.0748 79.3332 61.3998C79.8717 60.6201 80.7302 60.1937 81.6062 60.1937C82.049 60.1937 82.4962 60.3029 82.9087 60.5303C89.4477 64.1409 102.907 70.202 119.578 70.2289C121.09 70.2312 122.382 71.4354 122.458 72.9128C122.499 73.705 122.23 74.4558 121.702 75.0274C121.173 75.5994 120.458 75.9144 119.69 75.9144C101.635 75.9144 87.2504 69.4269 80.2834 65.5596C79.5712 65.1643 79.0778 64.5021 78.8941 63.6952ZM6.52171 72.0016C6.73682 70.6049 7.91695 69.6043 9.26637 69.6043C9.41088 69.6043 9.55724 69.6156 9.70471 69.6395C10.1371 69.7066 20.4235 71.2538 31.9481 69.0289C46.989 66.1252 56.9926 58.418 61.6806 46.1219C61.9504 45.4146 62.4727 44.857 63.1509 44.5527C63.8288 44.2479 64.5824 44.2324 65.2717 44.5091C66.6954 45.0799 67.4006 46.7321 66.844 48.1917C61.4541 62.328 49.6316 71.4861 32.6551 74.6768C28.2846 75.4982 23.6391 75.9144 18.8472 75.9144C12.9701 75.9144 8.99434 75.2802 8.82728 75.2529C8.09584 75.1347 7.45347 74.731 7.01771 74.117C6.58232 73.503 6.40602 72.7521 6.52171 72.0016ZM175.739 118.865C173.357 123.779 171.717 126.763 169.036 126.763C166.354 126.763 164.714 123.779 162.332 118.865C159.821 113.684 156.975 107.811 150.664 107.811C144.354 107.811 141.509 113.684 138.998 118.865C136.616 123.779 134.977 126.763 132.296 126.763C129.614 126.763 127.975 123.779 125.593 118.865C123.082 113.684 120.236 107.811 113.926 107.811C107.617 107.811 104.771 113.684 102.26 118.865C99.8785 123.779 98.239 126.763 95.5579 126.763C92.8768 126.763 91.2376 123.779 88.8563 118.865C86.3456 113.684 83.4997 107.811 77.1902 107.811C70.88 107.811 68.0341 113.684 65.5234 118.865C63.1417 123.779 61.5021 126.763 58.821 126.763C56.1403 126.763 54.5008 123.779 52.1194 118.865C49.6087 113.684 46.7628 107.811 40.4529 107.811C34.1427 107.811 31.2972 113.684 28.7861 118.865C26.4044 123.779 24.7649 126.763 22.0841 126.763C19.4034 126.763 17.7639 123.779 15.3822 118.865C13.2725 114.511 10.9259 109.672 6.48771 108.236V98.2032H39.0141C40.545 98.2032 41.7861 96.9304 41.7861 95.3605C41.7861 93.7905 40.545 92.5178 39.0141 92.5178H6.48697V82.5474C6.48697 82.0251 6.90166 81.5998 7.41097 81.5998H183.711C184.22 81.5998 184.635 82.0251 184.635 82.5474V92.5178H51.1477C49.6168 92.5178 48.3757 93.7905 48.3757 95.3605C48.3757 96.9304 49.6168 98.2032 51.1477 98.2032H184.635V108.236C180.196 109.672 177.849 114.512 175.739 118.865Z" fill="#FDFFA9"/>
    <path d="M166.719 136.843C165.188 136.843 163.947 138.116 163.947 139.685C163.947 141.255 165.188 142.528 166.719 142.528H171.347C172.878 142.528 174.119 141.255 174.119 139.685C174.119 138.116 172.878 136.843 171.347 136.843H166.719Z" fill="#FDFFA9"/>
    <path d="M129.981 136.843C128.451 136.843 127.209 138.116 127.209 139.685C127.209 141.255 128.451 142.528 129.981 142.528H134.609C136.14 142.528 137.381 141.255 137.381 139.685C137.381 138.116 136.14 136.843 134.609 136.843H129.981Z" fill="#FDFFA9"/>
    <path d="M93.2442 136.843C91.7133 136.843 90.4722 138.116 90.4722 139.685C90.4722 141.255 91.7133 142.528 93.2442 142.528H97.8723C99.4032 142.528 100.644 141.255 100.644 139.685C100.644 138.116 99.4032 136.843 97.8723 136.843H93.2442Z" fill="#FDFFA9"/>
    <path d="M56.5069 136.843C54.976 136.843 53.7349 138.116 53.7349 139.685C53.7349 141.255 54.976 142.528 56.5069 142.528H61.1346C62.6655 142.528 63.9067 141.255 63.9067 139.685C63.9067 138.116 62.6655 136.843 61.1346 136.843H56.5069Z" fill="#FDFFA9"/>
    <path d="M19.7696 136.843C18.2387 136.843 16.9976 138.116 16.9976 139.685C16.9976 141.255 18.2387 142.528 19.7696 142.528H24.3977C25.9286 142.528 27.1697 141.255 27.1697 139.685C27.1697 138.116 25.9286 136.843 24.3977 136.843H19.7696Z" fill="#FDFFA9"/>
    <path d="M145.575 147.752C145.575 149.322 146.817 150.595 148.347 150.595H152.976C154.506 150.595 155.748 149.322 155.748 147.752C155.748 146.182 154.506 144.909 152.976 144.909H148.347C146.817 144.909 145.575 146.182 145.575 147.752Z" fill="#FDFFA9"/>
    <path d="M108.838 147.752C108.838 149.322 110.079 150.595 111.61 150.595H116.238C117.769 150.595 119.01 149.322 119.01 147.752C119.01 146.182 117.769 144.909 116.238 144.909H111.61C110.079 144.909 108.838 146.182 108.838 147.752Z" fill="#FDFFA9"/>
    <path d="M72.1008 147.752C72.1008 149.322 73.342 150.595 74.8728 150.595H79.501C81.0319 150.595 82.273 149.322 82.273 147.752C82.273 146.182 81.0319 144.909 79.501 144.909H74.8728C73.342 144.909 72.1008 146.182 72.1008 147.752Z" fill="#FDFFA9"/>
    <path d="M35.3636 147.752C35.3636 149.322 36.6048 150.595 38.1357 150.595H42.7634C44.2943 150.595 45.5354 149.322 45.5354 147.752C45.5354 146.182 44.2943 144.909 42.7634 144.909H38.1357C36.6048 144.909 35.3636 146.182 35.3636 147.752Z" fill="#FDFFA9"/>
    <path d="M40.4656 129.414C41.9965 129.414 43.2376 128.141 43.2376 126.571C43.2376 125.001 41.9965 123.729 40.4656 123.729H40.4339C38.903 123.729 37.6777 125.001 37.6777 126.571C37.6777 128.141 38.9347 129.414 40.4656 129.414Z" fill="#FDFFA9"/>
    <path d="M77.2029 129.414C78.7338 129.414 79.975 128.141 79.975 126.571C79.975 125.001 78.7338 123.729 77.2029 123.729H77.1712C75.6403 123.729 74.415 125.001 74.415 126.571C74.415 128.141 75.6721 129.414 77.2029 129.414Z" fill="#FDFFA9"/>
    <path d="M113.941 129.414C115.472 129.414 116.713 128.141 116.713 126.571C116.713 125.001 115.472 123.729 113.941 123.729H113.909C112.378 123.729 111.153 125.001 111.153 126.571C111.153 128.141 112.409 129.414 113.941 129.414Z" fill="#FDFFA9"/>
    <path d="M150.693 129.414C152.224 129.414 153.465 128.141 153.465 126.571C153.465 125.001 152.224 123.729 150.693 123.729H150.661C149.131 123.729 147.905 125.001 147.905 126.571C147.905 128.141 149.162 129.414 150.693 129.414Z" fill="#FDFFA9"/>
    <path d="M22.0867 110.846H22.0549C20.5241 110.846 19.2988 112.118 19.2988 113.688C19.2988 115.258 20.5558 116.531 22.0867 116.531C23.6176 116.531 24.8587 115.258 24.8587 113.688C24.8587 112.118 23.6176 110.846 22.0867 110.846Z" fill="#FDFFA9"/>
    <path d="M58.8235 110.846H58.7918C57.2609 110.846 56.0356 112.118 56.0356 113.688C56.0356 115.258 57.2927 116.531 58.8235 116.531C60.3544 116.531 61.5956 115.258 61.5956 113.688C61.5956 112.118 60.3544 110.846 58.8235 110.846Z" fill="#FDFFA9"/>
    <path d="M95.5613 110.846H95.5296C93.9987 110.846 92.7734 112.118 92.7734 113.688C92.7734 115.258 94.0304 116.531 95.5613 116.531C97.0922 116.531 98.3333 115.258 98.3333 113.688C98.3333 112.118 97.0922 110.846 95.5613 110.846Z" fill="#FDFFA9"/>
    <path d="M132.314 110.846H132.282C130.751 110.846 129.526 112.118 129.526 113.688C129.526 115.258 130.783 116.531 132.314 116.531C133.845 116.531 135.086 115.258 135.086 113.688C135.086 112.118 133.845 110.846 132.314 110.846Z" fill="#FDFFA9"/>
    <path d="M169.067 110.846H169.035C167.505 110.846 166.279 112.118 166.279 113.688C166.279 115.258 167.536 116.531 169.067 116.531C170.598 116.531 171.839 115.258 171.839 113.688C171.839 112.118 170.598 110.846 169.067 110.846Z" fill="#FDFFA9"/>
    <path d="M169.968 42.6088C167.709 42.2874 165.477 42.9071 163.684 44.3527C161.892 45.7979 160.779 47.8773 160.55 50.2076C160.107 54.7267 163.382 58.9074 167.849 59.5268C169.847 59.8039 171.86 59.949 173.832 59.9581H173.87C176.306 59.9581 178.607 58.8767 180.188 56.9873C181.766 55.1005 182.453 52.6087 182.074 50.15L182.057 50.0385C181.421 45.912 178.017 42.9105 173.965 42.901C172.655 42.8984 171.31 42.7998 169.968 42.6088ZM176.58 50.9251L176.598 51.0395C176.725 51.8601 176.505 52.6576 175.98 53.2853C175.444 53.9259 174.694 54.2636 173.858 54.2727C172.124 54.2647 170.353 54.137 168.592 53.8929C167.052 53.6795 165.919 52.2816 166.067 50.7769C166.143 49.998 166.514 49.304 167.111 48.8222C167.606 48.4231 168.201 48.2127 168.818 48.2127C168.947 48.2127 169.076 48.2218 169.206 48.2404C170.795 48.4667 172.392 48.5831 173.952 48.5868C175.246 48.5899 176.376 49.5954 176.58 50.9251Z" fill="#FDFFA9"/>
    <path d="M101.336 34.6285C97.4889 33.322 93.3334 35.064 91.4566 38.7717L91.406 38.8718C90.2868 41.0804 90.1693 43.6673 91.084 45.9691C92.0047 48.2869 93.8679 50.066 96.1953 50.8506C98.068 51.4821 100.022 51.9979 102.004 52.3842C102.53 52.4869 103.056 52.5362 103.575 52.5362C107.429 52.5362 110.945 49.8185 111.804 45.9141C112.307 43.6297 111.893 41.296 110.639 39.3433C109.384 37.3894 107.459 36.0772 105.216 35.6485C103.885 35.3942 102.579 35.0508 101.336 34.6285ZM106.009 42.4699C106.427 43.1203 106.564 43.8992 106.397 44.663C106.072 46.1382 104.566 47.0971 103.039 46.7988C101.293 46.4584 99.573 46.0047 97.9268 45.4495C97.1355 45.1826 96.5286 44.605 96.2182 43.8234C95.914 43.0574 95.9517 42.23 96.3231 41.4977L96.3771 41.3912C96.9825 40.1953 98.3644 39.6078 99.5926 40.0252C101.074 40.5281 102.624 40.936 104.201 41.2373C104.949 41.3806 105.591 41.818 106.009 42.4699Z" fill="#FDFFA9"/>
    <path d="M21.3478 12.561L24.1323 9.70534V23.7799C24.1323 25.3498 25.3735 26.6226 26.9043 26.6226C28.4352 26.6226 29.6764 25.3498 29.6764 23.7799V9.70534L32.4609 12.561C33.002 13.1159 33.7117 13.3937 34.4209 13.3937C35.1302 13.3937 35.8398 13.1162 36.3809 12.561C37.4635 11.4508 37.4635 9.65076 36.3809 8.54096L28.864 0.832634C27.7814 -0.277545 26.0262 -0.277545 24.944 0.832634L17.4274 8.54059C16.3448 9.65076 16.3448 11.4508 17.4274 12.5606C18.51 13.6711 20.2652 13.6711 21.3478 12.561Z" fill="#FDFFA9"/>
    <path d="M55.676 12.561L58.4606 9.70534V23.7799C58.4606 25.3498 59.7017 26.6226 61.2326 26.6226C62.7635 26.6226 64.0046 25.3498 64.0046 23.7799V9.70534L66.7892 12.561C67.3303 13.1159 68.0399 13.3937 68.7492 13.3937C69.4584 13.3937 70.1681 13.1162 70.7092 12.561C71.7917 11.4508 71.7917 9.65076 70.7092 8.54096L63.1926 0.832634C62.11 -0.277545 60.3548 -0.277545 59.2726 0.832634L51.756 8.54096C50.6735 9.65114 50.6735 11.4512 51.756 12.561C52.8382 13.6711 54.5934 13.6711 55.676 12.561Z" fill="#FDFFA9"/>
    <path d="M90.0044 12.561L92.7889 9.70534V23.7799C92.7889 25.3498 94.0301 26.6226 95.561 26.6226C97.0918 26.6226 98.333 25.3498 98.333 23.7799V9.70534L101.118 12.561C101.659 13.1159 102.368 13.3937 103.078 13.3937C103.787 13.3937 104.496 13.1162 105.038 12.561C106.12 11.4508 106.12 9.65076 105.038 8.54096L97.521 0.832634C96.4384 -0.277545 94.6832 -0.277545 93.601 0.832634L86.0844 8.54096C85.0018 9.65114 85.0018 11.4512 86.0844 12.561C87.1669 13.6711 88.9222 13.6711 90.0044 12.561Z" fill="#FDFFA9"/>
    <path d="M124.333 12.561L127.118 9.70534V23.7799C127.118 25.3498 128.359 26.6226 129.89 26.6226C131.42 26.6226 132.662 25.3498 132.662 23.7799V9.70534L135.446 12.561C135.987 13.1159 136.697 13.3937 137.406 13.3937C138.115 13.3937 138.825 13.1162 139.366 12.561C140.449 11.4508 140.449 9.65076 139.366 8.54096L131.85 0.832634C130.767 -0.277545 129.012 -0.277545 127.93 0.832634L120.413 8.54096C119.33 9.65114 119.33 11.4512 120.413 12.561C121.495 13.6711 123.25 13.6711 124.333 12.561Z" fill="#FDFFA9"/>
    <path d="M158.661 12.561L161.446 9.70534V23.7799C161.446 25.3498 162.687 26.6226 164.218 26.6226C165.749 26.6226 166.99 25.3498 166.99 23.7799V9.70534L169.775 12.561C170.316 13.1159 171.025 13.3937 171.735 13.3937C172.444 13.3937 173.153 13.1162 173.695 12.561C174.777 11.4508 174.777 9.65076 173.695 8.54096L166.178 0.832634C165.095 -0.277545 163.34 -0.277545 162.258 0.832634L154.741 8.54096C153.659 9.65114 153.659 11.4512 154.741 12.561C155.824 13.6711 157.579 13.6711 158.661 12.561Z" fill="#FDFFA9"/>
    </svg>
    