<svg width="159" height="224" viewBox="0 0 159 224" fill="none" xmlns="http://www.w3.org/2000/svg">
    <path d="M97.5609 156.919C102.833 159.952 108.85 161.595 115.049 161.595C129.531 161.595 141.271 149.763 141.271 135.167C141.271 125.082 135.576 115.877 126.591 111.437C116.58 106.491 109.99 96.491 109.349 85.2722L106.154 29.3594C105.34 15.124 93.6482 4 79.5 4C65.3518 4 53.6604 15.124 52.8471 29.3594L49.6519 85.2722C49.0107 96.491 42.4207 106.491 32.4091 111.437C23.4237 115.876 17.729 125.082 17.729 135.167C17.729 149.763 29.4691 161.595 43.9515 161.595C50.1271 161.595 56.1225 159.964 61.3803 156.953M112.717 144.624C106.93 144.624 101.677 148.06 99.3491 153.4C95.9962 161.091 88.3708 166.463 79.5 166.463C70.6292 166.463 63.0038 161.091 59.6509 153.4C57.3234 148.06 52.07 144.624 46.2829 144.624M19.8996 204.626L12.9512 220M30.5664 181.025L28.3012 186.037M139.1 204.626L146.049 220M128.434 181.025L130.699 186.037M130.853 84.377C139.018 76.1479 139.018 62.806 130.853 54.5769M143.597 97.2211C158.801 81.8983 158.801 57.0552 143.597 41.7328M28.147 84.377C19.9819 76.1479 19.9819 62.806 28.147 54.5769M15.4028 97.2211C0.19907 81.8983 0.19907 57.0552 15.4028 41.7328M53.6878 209.52L52.5753 220M56.7001 181.148L56.1848 186M105.608 212.313L106.425 220M101.958 177.925L103.908 196.293" stroke="#FDFFA9" stroke-width="7" stroke-miterlimit="10" stroke-linecap="round" stroke-linejoin="round"/>
    </svg>
    