<svg width="183" height="184" viewBox="0 0 183 184" fill="none" xmlns="http://www.w3.org/2000/svg">
    <path d="M91.5002 147.675C122.456 147.675 147.55 122.581 147.55 91.625C147.55 60.6694 122.456 35.575 91.5002 35.575C60.5446 35.575 35.4502 60.6694 35.4502 91.625C35.4502 122.581 60.5446 147.675 91.5002 147.675Z" stroke="#FDFFA9" stroke-width="6" stroke-linecap="round" stroke-linejoin="round"/>
    <path d="M91.5 35.575V147.675" stroke="#FDFFA9" stroke-width="6" stroke-linecap="round" stroke-linejoin="round"/>
    <path d="M91.5 3.125V20.825" stroke="#FDFFA9" stroke-width="6" stroke-linecap="round" stroke-linejoin="round"/>
    <path d="M28.9219 29.0466L41.4358 41.5605" stroke="#FDFFA9" stroke-width="6" stroke-linecap="round" stroke-linejoin="round"/>
    <path d="M3 91.625H20.7" stroke="#FDFFA9" stroke-width="6" stroke-linecap="round" stroke-linejoin="round"/>
    <path d="M28.9219 154.203L41.4358 141.689" stroke="#FDFFA9" stroke-width="6" stroke-linecap="round" stroke-linejoin="round"/>
    <path d="M91.5 180.125V162.425" stroke="#FDFFA9" stroke-width="6" stroke-linecap="round" stroke-linejoin="round"/>
    <path d="M154.078 154.203L141.564 141.689" stroke="#FDFFA9" stroke-width="6" stroke-linecap="round" stroke-linejoin="round"/>
    <path d="M180 91.625H162.3" stroke="#FDFFA9" stroke-width="6" stroke-linecap="round" stroke-linejoin="round"/>
    <path d="M154.078 29.0466L141.564 41.5605" stroke="#FDFFA9" stroke-width="6" stroke-linecap="round" stroke-linejoin="round"/>
    <path d="M91.5 91.625H147.55" stroke="#FDFFA9" stroke-width="6" stroke-linecap="round" stroke-linejoin="round"/>
    <path d="M144.659 73.925H91.5" stroke="#FDFFA9" stroke-width="6" stroke-linecap="round" stroke-linejoin="round"/>
    <path d="M144.659 109.325H91.5" stroke="#FDFFA9" stroke-width="6" stroke-linecap="round" stroke-linejoin="round"/>
    <path d="M134.924 56.225H91.5" stroke="#FDFFA9" stroke-width="6" stroke-linecap="round" stroke-linejoin="round"/>
    <path d="M134.924 127.025H91.5" stroke="#FDFFA9" stroke-width="6" stroke-linecap="round" stroke-linejoin="round"/>
    </svg>
    