<svg width="168" height="168" viewBox="0 0 168 168" fill="none" xmlns="http://www.w3.org/2000/svg">
    <path d="M28.8202 111.651C29.0433 111.037 29.0135 110.36 28.7372 109.768C24.9578 101.675 23.0416 93.0052 23.0416 84.0002C23.0416 74.7506 25.1531 65.5874 29.1674 57.3331L34.2267 60.6567C34.9617 61.1394 35.8985 61.1935 36.6837 60.7984C37.4692 60.4034 37.9841 59.6192 38.0349 58.7411L40.1123 22.6647C40.1628 21.787 39.7412 20.949 39.0065 20.4666C38.2715 19.9839 37.335 19.9298 36.5498 20.3249L4.26562 36.5598C3.48009 36.9546 2.96527 37.7388 2.91441 38.6169C2.86387 39.4946 3.28519 40.3326 4.02019 40.8153L9.79387 44.6078C3.37969 56.6769 0 70.2458 0 84.0002C0 96.4013 2.64272 108.348 7.85466 119.509C8.43248 120.746 9.89953 121.27 11.1244 120.698L27.5474 113.04C28.1393 112.764 28.5971 112.264 28.8202 111.651ZM11.3078 115.182C7.0688 105.326 4.92187 94.8486 4.92187 84.0002C4.92187 70.3216 8.47087 56.8409 15.1853 45.0143C15.8258 43.8862 15.4806 42.4543 14.3965 41.7422L10.2851 39.0418L34.9532 26.637L33.366 54.2028L29.5824 51.7176C29.0072 51.3399 28.3001 51.2198 27.6321 51.3875C26.9643 51.5552 26.3973 51.9948 26.0689 52.5996C20.8684 62.1736 18.1197 73.0316 18.1197 84.0002C18.1197 92.9012 19.8535 101.501 23.2772 109.6L11.3078 115.182Z" fill="#FDFFA9"/>
    <path d="M54.961 27.5481C55.237 28.1397 55.7367 28.5974 56.3503 28.8209C56.9636 29.0433 57.6411 29.0138 58.2324 28.7378C66.326 24.9582 74.9953 23.0419 84.0001 23.0419C93.2493 23.0419 102.412 25.1534 110.667 29.1677L107.344 34.2271C106.861 34.9617 106.807 35.8985 107.202 36.6837C107.597 37.4689 108.381 37.9844 109.259 38.0346L145.336 40.112C146.189 40.1641 147.041 39.7563 147.534 39.0062C148.016 38.2715 148.07 37.3351 147.675 36.5499L131.441 4.26563C131.046 3.47977 130.262 2.96494 129.384 2.91441C128.506 2.8606 127.668 3.28552 127.185 4.02019L123.393 9.79355C108.185 1.71183 90.7427 -1.49198 73.5565 0.645097C72.2076 0.812769 71.2501 2.04193 71.4178 3.39052C71.5858 4.73911 72.8156 5.69789 74.1636 5.52924C91.0938 3.42628 108.258 6.82336 122.986 15.1856C124.115 15.8265 125.547 15.4809 126.258 14.3965L128.958 10.2857L141.364 34.9538L113.798 33.3664L116.283 29.5831C116.661 29.0079 116.78 28.3005 116.613 27.6331C116.445 26.9653 116.005 26.3983 115.401 26.0695C105.826 20.8688 94.9683 18.1201 84.0004 18.1201C75.1 18.1201 66.5002 19.8539 58.4004 23.2775L52.8194 11.3092C56.1882 9.86311 59.6696 8.64872 63.1999 7.68896C64.5114 7.33229 65.2855 5.98008 64.9291 4.66857C64.5728 3.35738 63.2199 2.58366 61.9087 2.93935C57.3176 4.18753 52.8036 5.84161 48.492 7.85466C47.2612 8.42953 46.7287 9.8933 47.3029 11.1248L54.961 27.5481Z" fill="#FDFFA9"/>
    <path d="M163.98 127.185L158.207 123.392C164.62 111.324 168 97.755 168 84C168 71.5988 165.357 59.6521 160.146 48.4913C159.571 47.2605 158.107 46.7283 156.875 47.3025L140.452 54.9606C139.861 55.2365 139.403 55.736 139.179 56.3495C138.956 56.9631 138.986 57.6404 139.262 58.2317C143.042 66.3255 144.958 74.9953 144.958 83.9997C144.958 93.2492 142.846 102.412 138.832 110.667L133.773 107.343C133.038 106.86 132.101 106.806 131.316 107.201C130.531 107.596 130.015 108.381 129.965 109.258L127.888 145.335C127.837 146.213 128.259 147.051 128.994 147.534C129.729 148.017 130.666 148.07 131.45 147.675L163.735 131.44C164.52 131.046 165.035 130.261 165.086 129.383C165.136 128.506 164.715 127.668 163.98 127.185ZM133.047 141.363L134.634 113.797L138.418 116.283C138.993 116.661 139.701 116.781 140.368 116.613C141.036 116.445 141.603 116.005 141.932 115.401C147.132 105.827 149.88 94.9682 149.88 84C149.88 75.0993 148.147 66.4998 144.723 58.3997L156.693 52.8183C160.931 62.6745 163.078 73.1512 163.078 84C163.078 97.6789 159.529 111.16 152.815 122.986C152.174 124.114 152.52 125.546 153.604 126.258L157.715 128.958L133.047 141.363Z" fill="#FDFFA9"/>
    <path d="M113.039 140.452C112.763 139.861 112.264 139.403 111.65 139.179C111.037 138.957 110.36 138.986 109.768 139.262C101.675 143.042 93.0057 144.958 84.0003 144.958C74.7508 144.958 65.5876 142.846 57.3336 138.833L60.6568 133.773C61.1395 133.038 61.1937 132.101 60.7986 131.316C60.4035 130.531 59.6193 130.015 58.7416 129.965L49.2991 129.422C47.942 129.337 46.7788 130.381 46.7007 131.737C46.6226 133.094 47.6592 134.258 49.0163 134.336L54.203 134.634L51.7177 138.418C51.3397 138.993 51.22 139.7 51.3876 140.368C51.5553 141.036 51.995 141.603 52.6001 141.931C62.1738 147.131 73.0321 149.88 84.0003 149.88C92.9017 149.88 101.501 148.147 109.601 144.723L115.182 156.692C105.326 160.931 94.8488 163.078 84 163.078C70.3214 163.078 56.8404 159.529 45.0141 152.815C43.8864 152.175 42.4544 152.52 41.7421 153.604L39.0416 157.714L26.6365 133.046L37.2507 133.657C38.6052 133.741 39.771 132.699 39.8491 131.342C39.9272 129.985 38.8907 128.822 37.5336 128.744L22.6646 127.888C21.7885 127.836 20.9491 128.258 20.4661 128.993C19.9835 129.728 19.9293 130.665 20.3244 131.45L36.5594 163.734C36.9544 164.52 37.7386 165.035 38.6164 165.085C39.4938 165.141 40.3321 164.715 40.8151 163.98L44.6076 158.206C56.6767 164.62 70.2453 168 84 168C96.4011 168 108.348 165.357 119.509 160.145C120.739 159.57 121.272 158.107 120.697 156.875L113.039 140.452Z" fill="#FDFFA9"/>
    <path d="M105.162 53.6134C104.323 52.5441 102.775 52.358 101.706 53.1964C100.637 54.0354 100.451 55.5822 101.289 56.6515C104.676 60.9684 107.838 64.7733 110.956 68.2829C116.816 74.8795 120.043 83.3773 120.043 92.2101C120.043 112.085 103.874 128.254 83.9995 128.254C74.3832 128.254 65.3236 124.471 58.4904 117.601C51.6467 110.721 47.9058 101.635 47.9563 92.0155C48.0029 83.2428 51.2379 74.8051 57.066 68.257C61.606 63.156 66.2394 57.422 71.6473 50.2111L83.9998 33.7422L93.7859 46.7907C94.6012 47.8781 96.1444 48.0983 97.2312 47.2829C98.3182 46.4675 98.5387 44.9247 97.7234 43.8376L85.9686 28.1641C85.5036 27.5442 84.7746 27.1797 83.9998 27.1797C83.2251 27.1797 82.4961 27.5442 82.0311 28.1641L67.7104 47.2583C62.3866 54.3566 57.8365 59.9896 53.3897 64.9849C46.7652 72.4285 43.0876 82.0186 43.0348 91.9896C42.977 102.929 47.2269 113.257 55.0011 121.073C62.7652 128.878 73.0638 133.176 83.9998 133.176C106.588 133.176 124.966 114.799 124.966 92.2104C124.966 82.1715 121.297 72.5134 114.637 65.0148C111.585 61.5806 108.487 57.8515 105.162 53.6134Z" fill="#FDFFA9"/>
    <path d="M68.6766 82.9078C70.416 80.0449 69.8408 76.3318 67.3093 74.0793C65.7553 72.6962 63.6838 72.0777 61.6245 72.3865C59.5898 72.6903 57.8124 73.8666 56.7476 75.6146C51.8576 83.6402 50.8535 93.2647 53.5848 101.835C54.2752 104.002 55.905 105.655 58.0555 106.369C60.1995 107.083 62.4721 106.729 64.2886 105.432L64.3303 105.402C66.7997 103.638 67.835 100.491 66.906 97.573C65.3786 92.7729 65.9551 87.3867 68.6766 82.9078ZM64.4704 80.352C62.3234 83.8859 61.1766 87.9432 61.155 92.0855V92.0858C61.1425 94.465 61.4995 96.8134 62.2161 99.0653C62.495 99.9414 62.1948 100.878 61.4746 101.393L61.4329 101.423C60.6995 101.947 59.9754 101.821 59.6089 101.699C58.968 101.486 58.4818 100.991 58.2747 100.34C55.9398 93.0144 56.8654 84.8805 60.9509 78.1753C61.3663 77.4937 62.0065 77.3057 62.3513 77.2542C62.9692 77.162 63.5815 77.35 64.0376 77.7556C64.7936 78.4286 64.9757 79.5206 64.4704 80.352Z" fill="#FDFFA9"/>
    <path d="M72.5942 122.002C74.4248 122.708 76.3335 123.246 78.2675 123.599C80.2818 123.967 82.3553 123.427 83.947 122.1C85.5446 120.768 86.4611 118.812 86.4611 116.733V116.691C86.4611 113.336 84.054 110.453 80.7376 109.835C79.6755 109.636 78.6255 109.338 77.6181 108.949C74.1705 107.614 70.2724 109.199 68.7453 112.556L68.7266 112.597C67.925 114.359 67.8866 116.316 68.6186 118.109C69.3458 119.889 70.7951 121.307 72.5942 122.002ZM73.2058 114.636L73.2245 114.595C73.6747 113.605 74.8248 113.146 75.8417 113.538C77.1318 114.037 78.4752 114.419 79.8353 114.673C80.8223 114.857 81.5389 115.705 81.5389 116.691V116.733C81.5389 117.347 81.2675 117.926 80.7947 118.32C80.524 118.546 79.9498 118.901 79.1518 118.757C77.52 118.459 75.9102 118.006 74.3664 117.41C73.8181 117.198 73.3952 116.786 73.1753 116.247C72.9607 115.723 72.9722 115.15 73.2058 114.636Z" fill="#FDFFA9"/>
    </svg>
    