<svg width="222" height="222" viewBox="0 0 222 222" fill="none" xmlns="http://www.w3.org/2000/svg">
    <path d="M182.317 194.74L141.802 140.424V93.5002C141.802 76.5423 128.006 62.7454 111.048 62.7454C102.371 62.7454 94.0508 66.4656 88.2059 72.9565L40.8792 120.288C35.6067 125.56 35.6067 134.137 40.8792 139.405C43.4244 141.95 46.8194 143.35 50.4399 143.35C54.0604 143.35 57.4555 141.95 60.0007 139.405L80.2972 119.108V139.756L54.0474 154.329C48.8096 157.238 46.091 162.927 47.1229 168.828L53.423 204.873C54.4984 211.03 59.8142 215.496 66.0623 215.496H66.5826C70.1858 215.496 73.403 214.117 75.8832 211.503C78.3634 208.892 79.5818 205.606 79.3953 202.007L77.8691 172.106L110.011 164.67L163.69 212.266C166.11 214.408 168.971 215.496 172.228 215.496C177.275 215.496 181.593 212.782 183.787 208.238C185.903 203.85 185.353 198.807 182.317 194.74ZM56.3195 135.728C54.7585 137.289 52.6686 138.152 50.4399 138.152C48.2113 138.152 46.1213 137.293 44.5604 135.728C41.3171 132.485 41.3171 127.208 44.5604 123.969L91.9392 76.59C91.9739 76.5553 92.0042 76.5206 92.0389 76.4859C96.8995 71.0617 103.833 67.9485 111.056 67.9485C125.144 67.9485 136.608 79.4127 136.608 93.5002V138.685H85.5003V113.905L111.373 88.0282C112.387 87.0136 112.387 85.3659 111.373 84.347C110.358 83.3324 108.711 83.3324 107.696 84.347L56.3195 135.728ZM179.1 205.979C177.778 208.723 175.272 210.293 172.206 210.293C170.233 210.293 168.625 209.682 167.146 208.372L112.461 159.888C111.98 159.463 111.364 159.233 110.735 159.233C110.54 159.233 110.345 159.255 110.15 159.298L74.5781 167.528C73.351 167.814 72.5012 168.937 72.5662 170.194L74.2052 202.271C74.3179 204.474 73.6329 206.317 72.1153 207.917C70.5977 209.512 68.7896 210.289 66.587 210.289H66.0666C62.29 210.289 59.2029 207.691 58.5525 203.971L52.248 167.931C51.5933 164.189 53.2496 160.72 56.5709 158.877L83.5708 143.888H137.896L178.146 197.849C180.028 200.368 180.375 203.334 179.1 205.979ZM111.052 56.6187C124.871 56.6187 136.109 45.3799 136.109 31.5613C136.109 17.7427 124.866 6.50391 111.052 6.50391C97.2377 6.50391 85.9946 17.747 85.9946 31.5613C85.9946 45.3756 97.2334 56.6187 111.052 56.6187ZM111.052 11.707C122 11.707 130.906 20.613 130.906 31.5613C130.906 42.5095 122 51.4155 111.052 51.4155C100.104 51.4155 91.1977 42.5095 91.1977 31.5613C91.1977 20.613 100.104 11.707 111.052 11.707Z" fill="#FDFFA9"/>
    </svg>
    