<svg width="177" height="183" viewBox="0 0 177 183" fill="none" xmlns="http://www.w3.org/2000/svg">
    <path d="M77.0068 106.611C131.294 86.5515 133.188 44.3743 133.188 44.3743" stroke="#FDFFA9" stroke-width="6" stroke-miterlimit="10" stroke-linecap="round" stroke-linejoin="round"/>
    <path d="M132.42 126.286H143.554C143.554 126.286 138.564 114.811 138.564 112.822C138.564 110.834 151.815 109.839 152.313 107.85C152.81 105.861 137.072 92.4366 136.575 87.9617C136.077 83.4867 140.055 73.5427 140.055 73.5427C143.335 61.5182 138.3 51.1194 133.187 44.3739" stroke="#FDFFA9" stroke-width="6" stroke-miterlimit="10" stroke-linecap="round" stroke-linejoin="round"/>
    <path d="M84.3853 150.052C94.8266 152.538 126.809 157.571 129.792 156.577C132.776 155.583 131.781 143.65 131.781 141.661C131.781 139.672 138.1 135.789 138.1 135.789" stroke="#FDFFA9" stroke-width="6" stroke-miterlimit="10" stroke-linecap="round" stroke-linejoin="round"/>
    <path d="M98.3162 152.736C98.3162 152.736 92.5718 162.779 90.583 179.187" stroke="#FDFFA9" stroke-width="6" stroke-miterlimit="10" stroke-linecap="round" stroke-linejoin="round"/>
    <path d="M57.814 179.187V113.396C57.814 100.499 64.5492 88.4673 75.6779 81.948C75.9787 81.772 76.2843 81.596 76.5954 81.4199" stroke="#FDFFA9" stroke-width="6" stroke-miterlimit="10" stroke-linecap="round" stroke-linejoin="round"/>
    <path d="M11.1055 179.187L11.6492 76.0698C11.6492 35.7145 44.3636 3 84.719 3C125.074 3 157.789 35.7145 157.789 76.0698" stroke="#FDFFA9" stroke-width="6" stroke-miterlimit="10" stroke-linecap="round" stroke-linejoin="round"/>
    <path d="M165.894 6.98169V7.39154" stroke="#FDFFA9" stroke-width="6" stroke-miterlimit="10" stroke-linecap="round" stroke-linejoin="round"/>
    <path d="M165.894 22.7831V23.1929" stroke="#FDFFA9" stroke-width="6" stroke-miterlimit="10" stroke-linecap="round" stroke-linejoin="round"/>
    <path d="M157.788 15.0872H158.198" stroke="#FDFFA9" stroke-width="6" stroke-miterlimit="10" stroke-linecap="round" stroke-linejoin="round"/>
    <path d="M173.59 15.0872H174" stroke="#FDFFA9" stroke-width="6" stroke-miterlimit="10" stroke-linecap="round" stroke-linejoin="round"/>
    <path d="M158.199 157.856V158.266" stroke="#FDFFA9" stroke-width="6" stroke-miterlimit="10" stroke-linecap="round" stroke-linejoin="round"/>
    <path d="M158.199 173.657V174.067" stroke="#FDFFA9" stroke-width="6" stroke-miterlimit="10" stroke-linecap="round" stroke-linejoin="round"/>
    <path d="M150.094 165.961H150.504" stroke="#FDFFA9" stroke-width="6" stroke-miterlimit="10" stroke-linecap="round" stroke-linejoin="round"/>
    <path d="M165.895 165.961H166.305" stroke="#FDFFA9" stroke-width="6" stroke-miterlimit="10" stroke-linecap="round" stroke-linejoin="round"/>
    <path d="M11.106 6.98181V7.39167" stroke="#FDFFA9" stroke-width="6" stroke-miterlimit="10" stroke-linecap="round" stroke-linejoin="round"/>
    <path d="M11.106 22.7832V23.1931" stroke="#FDFFA9" stroke-width="6" stroke-miterlimit="10" stroke-linecap="round" stroke-linejoin="round"/>
    <path d="M3 15.0872H3.40985" stroke="#FDFFA9" stroke-width="6" stroke-miterlimit="10" stroke-linecap="round" stroke-linejoin="round"/>
    <path d="M18.8018 15.0872H19.2116" stroke="#FDFFA9" stroke-width="6" stroke-miterlimit="10" stroke-linecap="round" stroke-linejoin="round"/>
    <path d="M88.7529 128.58C92.3378 133.934 97.8423 138.644 103.754 140.402" stroke="#FDFFA9" stroke-width="6" stroke-miterlimit="10" stroke-linecap="round" stroke-linejoin="round"/>
    <path d="M84.3848 119.01C84.4608 119.292 84.5441 119.576 84.6342 119.861" stroke="#FDFFA9" stroke-width="6" stroke-miterlimit="10" stroke-linecap="round" stroke-linejoin="round"/>
    </svg>
    