<svg width="213" height="213" viewBox="0 0 213 213" fill="none" xmlns="http://www.w3.org/2000/svg">
    <path d="M18.2777 154.269L18.0292 154.88C16.9277 157.291 15.6794 159.632 14.2913 161.89C5.84503 175.004 0.928549 190.077 0.0180024 205.649C-0.0666059 207.56 0.638089 209.421 1.96679 210.796C3.31439 212.198 5.17289 212.993 7.1174 213H102.959C104.982 212.996 106.908 212.138 108.263 210.636C109.593 209.167 110.238 207.202 110.037 205.231C109.114 196.357 104.791 192.045 98.8026 186.064L98.3873 185.649C96.5206 183.532 95.1319 181.039 94.3158 178.337C92.2167 172.635 92.1891 166.376 94.2376 160.654C95.4722 156.778 98.1621 153.531 101.742 151.597C109.63 154.43 117.665 156.836 125.812 158.805C131.653 160.019 137.44 156.515 139.07 150.777C140.368 147.385 140.536 143.666 139.55 140.171C139.213 139.247 139.128 138.25 139.305 137.282C139.457 136.675 139.947 136.32 141.544 135.405C142.252 135.013 142.939 134.587 143.603 134.127C144.674 133.36 145.38 132.185 145.556 130.879C145.691 129.487 145.431 128.085 144.807 126.833C145.641 126.19 146.482 125.523 146.986 125.058C150.121 122.418 148.115 118.861 147.036 116.952C146.663 116.288 146.23 115.532 145.808 114.637C145.493 113.878 145.406 113.043 145.556 112.235C146.458 111.389 147.506 110.712 148.647 110.236C149.722 109.733 150.751 109.139 151.725 108.462C154.044 107.177 155.675 104.931 156.18 102.328C156.535 98.4064 153.34 94.5411 144.743 85.2916C142.309 81.3312 140.494 77.0223 139.361 72.514C139.361 71.9213 140.533 70.8494 141.473 69.9904C143.71 68.3309 145.268 65.9155 145.857 63.1935C145.868 60.0446 145.036 56.9501 143.447 54.2314C142.42 52.1122 141.588 49.9036 140.962 47.6332L140.725 46.5968C140.056 43.4069 139.185 40.2629 138.115 37.184C135.575 30.1311 131.621 23.6709 126.497 18.1986C118.61 9.84705 107.712 6.45389 98.0997 4.23556C62.7767 -3.93854 43.1646 -0.641218 20.3862 17.2758C12.057 23.5173 5.97442 32.2891 3.04944 42.2773C0.86994 50.2738 -0.150941 58.5416 0.0180024 66.828C0.241633 81.8239 6.76243 90.6049 12.4774 98.3567C15.4153 102.019 17.9291 106.002 19.9709 110.229C23.3867 118.036 24.6585 126.612 23.6554 135.074C22.9564 141.73 21.1383 148.219 18.2777 154.269ZM7.1174 205.958C8.01095 191.533 12.5985 177.58 20.4394 165.439L20.7021 164.978C40.8786 189.585 78.9739 191.782 91.7955 191.782C92.8604 191.782 93.7442 191.782 94.44 191.75C99.6545 196.978 102.324 199.867 102.959 205.901L7.1174 205.958ZM18.1818 94.1259C12.591 86.5729 7.30908 79.4387 7.1174 66.7286C6.95369 59.134 7.87769 51.5551 9.86132 44.2223C12.3574 35.661 17.5951 28.1556 24.7701 22.8589C37.3431 12.9705 48.8512 7.13891 66.6778 7.13891C76.7355 7.34778 86.7376 8.6884 96.4953 11.1355C105.511 13.2154 114.762 16.1045 121.343 23.0541C125.805 27.8311 129.246 33.4674 131.456 39.6188C132.423 42.418 133.209 45.2764 133.81 48.1763L134.055 49.2233C134.773 51.9398 135.751 54.5809 136.976 57.1099C137.815 58.7194 138.441 60.4317 138.836 62.2032C138.747 62.8456 137.65 63.8536 136.681 64.7445C134.175 66.545 132.568 69.3395 132.273 72.4111C133.393 78.7659 135.875 84.8031 139.55 90.108C143.072 93.5981 146.248 97.4221 149.031 101.526C148.54 101.964 148.027 102.376 147.494 102.761C146.833 103.198 146.143 103.588 145.428 103.929C142.854 105.242 139.329 107.045 138.602 110.889C138.159 113.193 138.446 115.578 139.422 117.711C139.915 118.776 140.43 119.674 140.877 120.465L141.055 120.781C139.968 121.637 138.63 122.645 138.027 123.092C137.259 123.662 136.754 124.518 136.626 125.465C136.498 126.412 136.757 127.371 137.345 128.125C137.604 128.477 137.841 128.844 138.055 129.225L138.016 129.246C135.322 130.422 133.278 132.717 132.422 135.529C131.949 137.602 132.023 139.762 132.638 141.797C133.308 143.98 133.209 146.326 132.358 148.445C131.871 150.779 129.604 152.294 127.26 151.849C118.969 149.819 110.792 147.342 102.768 144.431H102.746C99.9775 143.483 97.4501 142.596 95.402 141.875C93.1798 141.094 91.4973 140.508 90.6525 140.239C78.5835 136.437 76.8619 132.132 76.9151 129.903C76.9443 128.635 76.2947 127.448 75.211 126.788C74.1273 126.129 72.7741 126.098 71.6613 126.707C70.5484 127.316 69.8449 128.472 69.8157 129.74C69.6382 137.236 75.9354 143.05 88.5191 147.007C89.3284 147.263 90.9258 147.827 93.0485 148.573L93.5774 148.757C90.9011 151.399 88.8501 154.607 87.5749 158.145C84.9348 165.425 84.9348 173.4 87.5749 180.68C88.0505 182.03 88.6064 183.35 89.2397 184.634C75.0089 184.254 40.6904 180.871 24.3405 158.106C24.4222 157.925 24.518 157.73 24.5926 157.549L24.8659 156.921C27.9645 150.285 29.9413 143.181 30.7158 135.898C31.8689 126.184 30.4095 116.338 26.4881 107.376C24.2357 102.656 21.4487 98.2099 18.1818 94.1259Z" fill="#FDFFA9"/>
    <path d="M209.45 72.0135V63.9282C209.45 60.0077 206.272 56.8295 202.351 56.8295H188.152C184.231 56.8295 181.053 60.0077 181.053 63.9282V72.0135C178.863 73.2715 177.511 75.6008 177.503 78.1255V111.344L167.209 115.603C164.581 116.626 162.816 119.117 162.722 121.935L157.106 124.178C155.358 124.877 153.959 126.243 153.218 127.973C152.476 129.704 152.452 131.658 153.152 133.406L157.625 144.562C158.324 146.31 159.689 147.709 161.42 148.45C163.151 149.192 165.106 149.215 166.854 148.516L172.047 146.432C173.993 148.875 177.307 149.76 180.211 148.612L206.238 138.177C210.328 136.594 213.018 132.652 213 128.267V78.1255C212.992 75.6008 211.639 73.2715 209.45 72.0135ZM202.351 63.9282V71.0268H188.152V63.9282H202.351ZM164.216 141.928L159.754 130.773L164.77 128.771L169.154 139.944L164.216 141.928ZM205.901 128.267C205.899 129.736 204.993 131.052 203.622 131.578L177.592 142.013L169.882 122.187L180.098 117.949C182.822 116.892 184.613 114.266 184.602 111.344V92.3228H195.251C197.212 92.3228 198.801 90.7337 198.801 88.7735C198.801 86.8132 197.212 85.2242 195.251 85.2242H184.602V78.1255H205.901V128.267Z" fill="#FDFFA9"/>
    <path d="M23.0023 49.4931C23.4097 49.6512 23.8431 49.7318 24.2802 49.7309C25.7476 49.7309 27.0638 48.8282 27.5921 47.4593C33.7289 31.7622 48.832 21.4056 65.6874 21.3362C67.6479 21.3362 69.2371 19.7471 69.2371 17.7869C69.2371 15.8267 67.6479 14.2376 65.6874 14.2376C45.8983 14.3159 28.1654 26.4743 20.9612 44.9038C20.6226 45.7829 20.6475 46.7606 21.0304 47.6215C21.4132 48.4823 22.1226 49.1556 23.0023 49.4931Z" fill="#FDFFA9"/>
    <path d="M21.5008 56.8295C19.5636 56.806 17.9444 58.2974 17.8091 60.2298C17.7665 60.8722 17.7665 61.5111 17.7665 62.1535C17.7665 62.7959 17.7665 63.4348 17.8055 64.0737C17.8836 65.9769 19.4503 67.4791 21.3552 67.4775H21.5043C23.4627 67.3968 24.985 65.7444 24.9049 63.7862C24.8789 63.2443 24.8659 62.7001 24.8659 62.1535C24.8659 61.6069 24.8765 61.0639 24.8978 60.5244C24.9799 58.5662 23.4592 56.9121 21.5008 56.8295Z" fill="#FDFFA9"/>
    </svg>
    