<svg width="173" height="173" viewBox="0 0 173 173" fill="none" xmlns="http://www.w3.org/2000/svg">
    <path d="M151.956 70.0272L135.156 54.4274V37.8438C135.15 32.8273 133.154 28.0182 129.607 24.4711C126.06 20.9239 121.251 18.9283 116.234 18.9219H116.042C115.387 14.4207 113.134 10.3056 109.695 7.32794C106.256 4.3503 101.861 2.70878 97.3125 2.70312H67.5782C59.695 2.71243 52.1373 5.84813 46.5631 11.4224C40.9888 16.9967 37.8531 24.5543 37.8438 32.4375V54.4274L21.0439 70.0272C19.5494 71.4174 18.3516 73.0956 17.5224 74.9607C16.6932 76.8258 16.2498 78.8393 16.2188 80.8802L2.7356 169.894L8.07697 170.705L21.5926 81.5019C21.6146 81.367 21.6255 81.2305 21.625 81.0938C21.6269 79.7602 21.9028 78.4412 22.4357 77.2187C22.9686 75.9962 23.7471 74.8963 24.7228 73.9872L56.9278 44.0853C57.3726 43.6716 57.9284 43.3967 58.5271 43.2944C59.1258 43.1921 59.7413 43.2668 60.2982 43.5093C60.855 43.7519 61.329 44.1517 61.6618 44.6598C61.9947 45.1678 62.1719 45.762 62.1719 46.3694C62.1717 47.2244 61.8745 48.0528 61.3312 48.713L38.4547 76.6796C38.0597 77.1623 37.8439 77.7669 37.8438 78.3906V102.719H43.25V90.8737L48.7401 88.1219C48.9364 92.9508 50.0645 97.6963 52.0622 102.097C47.197 108.545 40.5012 113.378 32.8484 115.964L31.5833 116.386C31.0223 116.572 30.538 116.938 30.2045 117.426C29.8711 117.914 29.7069 118.498 29.7371 119.089L32.4402 170.448L37.8465 170.162L36.4246 143.171L49.67 139.033C56.225 151.351 70.6814 159.484 86.5 159.484C102.319 159.484 116.775 151.351 123.341 139.024L136.586 143.163L135.156 170.154L140.563 170.44L143.266 119.081C143.296 118.49 143.132 117.906 142.798 117.418C142.465 116.93 141.98 116.564 141.419 116.378L140.154 115.956C132.504 113.376 125.808 108.55 120.941 102.108C122.937 97.7067 124.065 92.9615 124.263 88.1327L129.75 90.8737V102.719H135.156V78.3906C135.156 77.7669 134.94 77.1623 134.545 76.6796L111.666 48.713C111.125 48.052 110.829 47.2239 110.828 46.3694C110.828 45.7623 111.005 45.1684 111.338 44.6605C111.67 44.1526 112.144 43.7527 112.7 43.5099C113.257 43.2672 113.872 43.192 114.47 43.2937C115.069 43.3955 115.625 43.6696 116.07 44.0826L148.277 73.9872C149.253 74.8963 150.031 75.9962 150.564 77.2187C151.097 78.4412 151.373 79.7602 151.375 81.0938C151.375 81.2287 151.386 81.3634 151.407 81.4965L164.923 170.7L170.264 169.889L156.781 80.8802C156.75 78.8393 156.307 76.8258 155.478 74.9607C154.648 73.0956 153.451 71.4174 151.956 70.0272ZM111.05 56.5115L118.938 66.1401V86.5C118.938 95.103 115.52 103.354 109.437 109.437C103.354 115.52 95.103 118.938 86.5 118.938C77.8971 118.938 69.6465 115.52 63.5633 109.437C57.48 103.354 54.0625 95.103 54.0625 86.5V66.1401L55.0978 64.875H74.9307C80.4776 64.8567 85.9025 63.2446 90.5592 60.2306C95.216 57.2167 98.9084 52.928 101.197 47.875L111.05 56.5115ZM101.908 132.329L107.855 134.189C105.085 137.059 101.766 139.342 98.0945 140.902C94.4232 142.461 90.4753 143.265 86.4865 143.265C82.4977 143.265 78.5498 142.461 74.8785 140.902C71.2072 139.342 67.8877 137.059 65.1183 134.189L71.0652 132.329C71.619 132.161 72.1043 131.82 72.4498 131.356C72.7953 130.891 72.9827 130.329 72.9844 129.75V121.806C81.6771 125.19 91.323 125.19 100.016 121.806V129.75C100.016 130.325 100.199 130.885 100.539 131.349C100.88 131.813 101.359 132.156 101.908 132.329ZM43.25 79.3556L48.6563 72.7492V82.1263L43.25 84.8295V79.3556ZM35.2434 120.846C42.8822 118.137 49.6622 113.443 54.887 107.246C58.1342 112.167 62.4784 116.267 67.5782 119.224V127.763L36.1246 137.589L35.2434 120.846ZM86.5 154.078C73.0466 154.078 60.7798 147.469 54.9356 137.376L59.5147 135.946C62.7959 139.926 66.9168 143.131 71.5822 145.331C76.2476 147.531 81.3419 148.672 86.5 148.672C91.6582 148.672 96.7525 147.531 101.418 145.331C106.083 143.131 110.204 139.926 113.485 135.946L118.064 137.376C112.22 147.469 99.9535 154.078 86.5 154.078ZM137.757 120.846L136.875 137.605L105.422 127.763V119.224C110.52 116.268 114.863 112.17 118.11 107.252C123.336 113.447 130.117 118.139 137.757 120.846ZM129.75 84.8295L124.344 82.1263V72.7492L129.75 79.3556V84.8295ZM113.948 37.8438C112.002 37.8472 110.115 38.5154 108.601 39.7376C107.087 40.9597 106.036 42.6624 105.622 44.5637L101.794 41.2145C101.451 40.9147 101.038 40.7063 100.593 40.6089C100.148 40.5115 99.6855 40.5282 99.2486 40.6573C98.8117 40.7865 98.4145 41.024 98.094 41.3478C97.7735 41.6716 97.54 42.0712 97.4152 42.5093C96.0049 47.3871 93.0514 51.6764 88.9976 54.734C84.9439 57.7916 80.0082 59.4529 74.9307 59.4688H59.5229L65.5184 52.1379C66.8498 50.5102 67.5775 48.4723 67.5782 46.3694C67.578 44.7102 67.0936 43.0871 66.1845 41.6991C65.2754 40.3111 63.9811 39.2185 62.4602 38.5554C60.9392 37.8922 59.2579 37.6872 57.6222 37.9656C55.9865 38.2439 54.4675 38.9935 53.2516 40.1225L43.25 49.4077V32.4375C43.2572 25.9875 45.8226 19.8037 50.3835 15.2428C54.9443 10.682 61.1281 8.11653 67.5782 8.10938H97.3125C100.896 8.11367 104.331 9.53901 106.865 12.0728C109.399 14.6065 110.824 18.0418 110.828 21.625C110.828 22.3419 111.113 23.0295 111.62 23.5364C112.127 24.0433 112.814 24.3281 113.531 24.3281H116.234C119.818 24.3324 123.253 25.7578 125.787 28.2915C128.32 30.8252 129.746 34.2605 129.75 37.8438V49.4077L119.748 40.1198C118.172 38.6549 116.099 37.8417 113.948 37.8438Z" fill="#FDFFA9"/>
    <path d="M91.9711 78.9907C92.0874 79.4993 92.3483 79.9634 92.7224 80.3269C93.0966 80.6905 93.5679 80.9381 94.0796 81.0397L107.595 83.7428L108.655 78.4447L101.07 76.9256L107.044 72.4438L103.8 68.1188L92.9875 76.2281C92.5693 76.5412 92.2507 76.9687 92.0703 77.459C91.8899 77.9492 91.8555 78.4813 91.9711 78.9907Z" fill="#FDFFA9"/>
    <path d="M69.2001 68.1188L65.9563 72.4438L71.9303 76.9256L64.3345 78.4447L65.3941 83.7428L78.9097 81.0397C79.4203 80.9356 79.8899 80.6862 80.262 80.3214C80.634 79.9566 80.8928 79.4921 81.007 78.9837C81.1213 78.4754 81.0861 77.9448 80.9059 77.4559C80.7256 76.967 80.4079 76.5407 79.991 76.2281L69.2001 68.1188Z" fill="#FDFFA9"/>
    </svg>
    