<svg width="188" height="185" viewBox="0 0 188 185" fill="none" xmlns="http://www.w3.org/2000/svg">
    <path d="M104.179 24.431C104.179 17.9621 98.9161 12.6992 92.4472 12.6992C85.978 12.6992 80.7151 17.9621 80.7151 24.431C80.7151 30.8998 85.978 36.1627 92.4472 36.1627C98.9161 36.1631 104.179 30.8998 104.179 24.431ZM86.1935 24.431C86.1935 20.9829 88.9991 18.1776 92.4472 18.1776C95.8953 18.1776 98.7006 20.9829 98.7006 24.431C98.7006 27.8791 95.8953 30.6844 92.4472 30.6844C88.9991 30.6844 86.1935 27.8794 86.1935 24.431Z" fill="#FDFFA9"/>
    <path d="M187.503 86.9529C187.503 86.9525 187.503 86.9525 187.503 86.9529C186.187 83.0066 183.53 79.6024 180.021 77.3668C177.186 75.5619 175.333 72.7062 174.936 69.5331L173.228 55.8693C172.421 49.4143 166.907 44.5466 160.402 44.5466C153.897 44.5466 148.383 49.4143 147.576 55.8693L146.881 61.4262L139.085 63.9594C137.647 64.4269 136.859 65.9722 137.327 67.4108C137.794 68.8498 139.34 69.6368 140.778 69.1693L146.131 67.4301L145.868 69.5324C145.654 71.2475 145.014 72.8694 144.024 74.2832L124.536 80.6151C124.326 80.4606 124.1 80.3222 123.861 80.2024L119.922 78.2328C119.68 77.5494 119.411 76.8719 119.117 76.2069L128.566 73.1368C130.005 72.6693 130.793 71.124 130.325 69.6854C129.858 68.2464 128.31 67.4604 126.873 67.9268L120.373 70.0389C120.448 68.7588 119.979 67.4944 119.04 66.5554L113.849 61.3645C112.618 60.1329 110.828 59.71 109.176 60.2611L104.997 61.6541C104.077 61.2147 103.129 60.8218 102.171 60.4825L100.859 57.8579V47.1094C111.489 44.4743 120.183 37.3129 124.982 30.9975C127.09 28.2236 128.159 26.0143 128.159 24.4311C128.159 22.8478 127.09 20.6386 124.983 17.8647C118.968 9.95101 106.839 0.708984 92.4472 0.708984C88.6558 0.708984 84.8418 1.33936 81.1106 2.58222C79.6753 3.0603 78.8992 4.61141 79.3776 6.04638C79.8557 7.48172 81.4057 8.25855 82.8418 7.77938C86.0138 6.72278 89.2453 6.18736 92.4472 6.18736C104.833 6.18736 115.365 14.2636 120.621 21.1799C121.889 22.8482 122.449 23.9596 122.631 24.4311C122.449 24.9026 121.889 26.014 120.621 27.6823C115.365 34.5986 104.833 42.6748 92.4472 42.6748C80.5778 42.6748 70.3946 35.2925 64.8227 28.3836C63.17 26.3346 62.4706 24.9756 62.2617 24.4311C62.4703 23.8865 63.1697 22.5275 64.8227 20.4783C66.2219 18.7438 68.6221 16.1259 72.1126 13.5039C73.3222 12.5952 73.5658 10.8783 72.6575 9.66832C71.7484 8.4587 70.0323 8.21473 68.8219 9.12341C64.8808 12.0839 62.1529 15.0623 60.5583 17.0389C58.814 19.2018 56.7344 22.2401 56.7344 24.4311C56.7344 26.6221 58.8136 29.6604 60.5583 31.8229C65.5845 38.0551 73.9467 44.6244 84.0353 47.1149V57.8572L82.7227 60.4825C81.7636 60.8218 80.8155 61.2147 79.8962 61.6541L75.7181 60.2615C74.0658 59.7104 72.2755 60.1329 71.0458 61.3641L65.8533 66.5558C64.9147 67.4948 64.4461 68.7596 64.521 70.0393L47.9694 64.661C48.0475 63.6639 48.0629 62.6555 48.0143 61.6406C47.4361 49.5805 37.5309 39.7515 25.4638 39.2651C18.9858 39.0014 12.846 41.3271 8.18066 45.8088C3.51271 50.2923 0.941895 56.3255 0.941895 62.7958V92.5258C0.941895 97.3892 2.98241 102.082 6.54006 105.401C9.83659 108.476 14.0531 110.131 18.5275 110.131C18.9493 110.131 19.3737 110.116 19.7996 110.086C28.5781 109.476 35.5934 102.388 36.1182 93.6C36.3979 88.8152 37.3563 84.6552 40.811 80.0235L58.5098 85.7739V91.6278C58.5098 93.3688 59.4769 94.9334 61.0331 95.711L64.9724 97.6806C65.3121 98.6401 65.7051 99.5882 66.1441 100.507L64.7507 104.687C64.2007 106.337 64.6229 108.127 65.8541 109.358L66.2288 109.733L57.4192 121.859H46.5351C41.4771 121.859 37.3625 125.974 37.3625 131.031V138.217C34.4601 137.648 31.3304 138.484 29.092 140.722L26.4952 143.319C24.1735 145.641 24.1735 149.419 26.4952 151.742C44.4033 169.648 43.0728 168.322 43.1517 168.394L43.1542 168.397C43.7068 168.947 44.0238 169.709 44.0238 170.489V177.942C44.0238 180.517 46.1184 182.611 48.6929 182.611H64.8165C67.3909 182.611 69.4855 180.517 69.4855 177.942V170.526C69.4855 169.709 69.8138 168.933 70.4106 168.341C74.1096 164.672 76.1469 159.782 76.1469 154.573V149.29C76.1469 147.777 74.9208 146.551 73.4077 146.551C71.8945 146.551 70.6685 147.777 70.6685 149.29V154.574C70.6685 158.312 69.2068 161.82 66.5528 164.453C64.9111 166.08 64.0068 168.238 64.0068 170.527V177.134H49.5015V170.49C49.5015 168.263 48.5961 166.085 47.0183 164.515C32.2048 149.706 31.8622 149.363 30.3684 147.87C30.1822 147.684 30.1822 147.38 30.3684 147.194L32.9652 144.597C34.3969 143.165 36.734 143.158 38.1744 144.583C38.1784 144.587 38.1828 144.591 38.1868 144.595L45.6714 152.079C47.4694 153.877 50.053 154.622 52.584 154.072C52.8572 154.013 53.1395 153.983 53.4233 153.983C55.1577 153.983 56.665 155.095 57.1734 156.751C57.5353 157.929 58.6197 158.686 59.791 158.686C60.0572 158.686 60.3286 158.647 60.5963 158.565C62.0422 158.121 62.8549 156.589 62.4107 155.142C61.1912 151.172 57.5795 148.505 53.4236 148.505C52.7494 148.505 52.076 148.577 51.4211 148.719C50.7217 148.873 50.0197 148.68 49.5457 148.205L42.8405 141.5V131.032C42.8405 128.995 44.4979 127.338 46.5348 127.338H47.7422V137.907C47.7422 139.42 48.9683 140.646 50.4814 140.646C51.9945 140.646 53.2206 139.42 53.2206 137.907V127.338H57.6719V137.907C57.6719 139.42 58.898 140.646 60.4111 140.646C61.9243 140.646 63.1503 139.42 63.1503 137.907V127.352C67.3369 127.593 70.6688 131.075 70.6688 135.321V136.508C70.6688 138.021 71.8949 139.247 73.408 139.247C74.9212 139.247 76.1472 138.021 76.1472 136.508V135.321C76.1472 132.554 75.3076 129.979 73.87 127.837L82.7881 115.562L84.6928 119.372C85.471 120.928 87.0357 121.895 88.7763 121.895H96.1184C97.8591 121.895 99.4237 120.928 100.202 119.371L102.107 115.562L112 129.179C109.43 132.121 108.362 136.085 109.135 139.95L114.779 168.168C116.647 177.511 124.919 184.292 134.446 184.292C143.974 184.292 152.245 177.511 154.114 168.168L159.757 139.95C160.587 135.803 159.297 131.542 156.307 128.553C152.069 124.315 145.373 123.652 140.386 126.977C138.004 128.565 135.121 129.127 132.354 128.573L118.666 109.735L119.042 109.359C120.272 108.128 120.694 106.338 120.144 104.687L118.751 100.508C119.19 99.5882 119.583 98.6404 119.922 97.6821L123.861 95.7128C125.418 94.9345 126.385 93.3699 126.385 91.6292V85.7754L135.244 82.897C134.435 84.1578 133.78 85.5197 133.302 86.9536C132.439 89.5405 132.859 92.2932 134.454 94.5057C136.048 96.7183 138.527 97.9867 141.254 97.9867H146.715C148.797 97.9867 150.786 98.9812 152.035 100.646C154.029 103.305 157.079 104.83 160.402 104.83C163.725 104.83 166.775 103.305 168.769 100.647C170.019 98.9808 172.007 97.9867 174.089 97.9867H179.55C182.278 97.9867 184.756 96.7179 186.35 94.5057C187.945 92.2925 188.365 89.5401 187.503 86.9529ZM95.3803 48.0257V54.0198H89.5141V48.0268C91.4187 48.1908 93.3665 48.2007 95.3803 48.0257ZM65.7766 76.2072C65.4834 76.8727 65.2142 77.5502 64.9724 78.2331L61.0327 80.2032C60.7935 80.3226 60.5685 80.461 60.3589 80.6155L44.377 75.4227C45.4453 73.7456 46.2904 71.9498 46.8985 70.0733L65.7766 76.2072ZM30.6497 93.2749C30.2888 99.3234 25.4609 104.201 19.4197 104.622C16.0078 104.855 12.762 103.713 10.277 101.395C7.78986 99.0751 6.42027 95.925 6.42027 92.5262V62.7962C6.42027 57.8306 8.39322 53.2013 11.9757 49.7605C15.3741 46.4965 19.7912 44.7245 24.4865 44.7245C34.1854 44.7245 42.0907 52.4815 42.5425 61.9035C42.7865 66.9959 41.0863 71.2047 37.7781 75.0564C33.077 80.5056 31.0591 86.2524 30.6497 93.2749ZM71.0454 114.55C72.2758 115.78 74.0662 116.204 75.7173 115.653L76.0245 115.551L69.9103 123.967C68.2061 122.879 66.242 122.163 64.1339 121.937L70.1506 113.656L71.0454 114.55ZM143.424 131.534C146.246 129.653 150.035 130.028 152.432 132.426C154.124 134.118 154.854 136.528 154.385 138.874L148.741 167.093C147.383 173.884 141.371 178.812 134.446 178.812C127.52 178.812 121.508 173.884 120.15 167.093L114.506 138.874C114.037 136.528 114.767 134.118 116.459 132.426C118.857 130.028 122.644 129.652 125.467 131.534C127.395 132.819 129.521 133.649 131.706 134.026V162.622C131.706 164.135 132.932 165.361 134.446 165.361C135.959 165.361 137.185 164.135 137.185 162.622V134.026C139.37 133.65 141.496 132.819 143.424 131.534ZM122.947 124.946C120.729 124.695 118.468 125.033 116.414 125.935L108.869 115.551L109.177 115.653C110.828 116.203 112.618 115.781 113.848 114.55L114.743 113.655L122.947 124.946ZM120.906 91.0639L117.138 92.948C116.058 93.4878 115.246 94.4236 114.85 95.5846C114.524 96.5433 114.131 97.4911 113.682 98.4031C113.141 99.5031 113.053 100.74 113.435 101.886L114.768 105.884L113.165 107.487C113.142 107.509 113.119 107.531 113.097 107.554L110.374 110.278L106.376 108.945C105.229 108.563 103.992 108.65 102.892 109.193C101.981 109.642 101.033 110.035 100.075 110.361C98.9146 110.755 97.9782 111.568 97.438 112.648L95.5538 116.416H89.3402L87.456 112.648C86.9159 111.568 85.9794 110.755 84.8202 110.361C83.8611 110.034 82.9126 109.641 82.0029 109.193C80.9017 108.651 79.6651 108.562 78.5183 108.945L74.5205 110.278L71.7967 107.554C71.7747 107.531 71.7521 107.509 71.7291 107.487L70.1265 105.884L71.4599 101.884C71.8412 100.739 71.7536 99.5024 71.2116 98.4016C70.7627 97.4911 70.3694 96.5433 70.0428 95.5832C69.648 94.4236 68.8358 93.4878 67.7562 92.948L63.9881 91.0642V84.8503L67.7562 82.9661C68.8361 82.4259 69.6484 81.4902 70.0436 80.3299C70.3701 79.3704 70.7631 78.4223 71.2116 77.5118C71.7532 76.4128 71.8416 75.1762 71.4596 74.0287L70.1265 70.0305L74.5205 65.6369L78.5183 66.9696C79.6658 67.352 80.9032 67.2636 82.0025 66.7216C82.913 66.2727 83.8608 65.8794 84.8209 65.5529C85.9805 65.1581 86.9162 64.3458 87.456 63.2662L89.2026 59.7732C89.219 59.7421 89.2347 59.7107 89.2497 59.679L89.3402 59.4982H95.5542L95.6448 59.6797C95.6597 59.7111 95.6751 59.7418 95.6911 59.7725L97.438 63.2666C97.9778 64.3462 98.9135 65.1584 100.075 65.554C101.033 65.8801 101.981 66.2731 102.892 66.7216C103.992 67.2643 105.229 67.3523 106.376 66.9699L110.374 65.6372L114.768 70.0309L113.435 74.0287C113.052 75.1751 113.14 76.4121 113.683 77.5129C114.131 78.4227 114.524 79.3708 114.851 80.331C115.246 81.4906 116.058 82.4263 117.138 82.9664L120.906 84.8506V91.0639ZM181.906 91.3016C181.354 92.0682 180.495 92.5076 179.55 92.5076H174.089C170.292 92.5076 166.665 94.3209 164.387 97.3585C163.437 98.6247 161.985 99.3508 160.402 99.3508C158.82 99.3508 157.367 98.6247 156.417 97.3585C154.14 94.3209 150.512 92.5076 146.715 92.5076H141.254C140.309 92.5076 139.451 92.0682 138.898 91.3016C138.345 90.535 138.2 89.5814 138.499 88.6851C139.418 85.9281 141.275 83.5493 143.727 81.9876C147.942 79.3025 150.704 75.0104 151.304 70.2124L153.012 56.5486C153.477 52.8295 156.654 50.025 160.402 50.025C164.15 50.025 167.327 52.8299 167.792 56.5486L169.5 70.2124C170.1 75.0107 172.862 79.3029 177.078 81.9873C179.53 83.5493 181.386 85.9281 182.305 88.6848C182.604 89.5814 182.459 90.5354 181.906 91.3016Z" fill="#FDFFA9"/>
    <path d="M24.4913 51.2344C18.1173 51.2344 12.9319 56.4217 12.9319 62.7974V71.1486C12.9319 73.1537 13.7131 75.0383 15.1313 76.4557L15.1985 76.5229C15.5812 76.9053 15.792 77.4141 15.792 77.9561C15.792 78.4973 15.5812 79.0065 15.1974 79.3896L15.1313 79.4557C13.7127 80.8731 12.9319 82.7577 12.9319 84.7631V92.5275C12.9319 94.026 13.5159 95.4347 14.5758 96.4949C15.6356 97.5544 17.0461 98.1384 18.5469 98.1384C20.06 98.1384 21.286 96.9123 21.286 95.3992C21.286 93.8861 20.06 92.66 18.5469 92.66C18.518 92.66 18.484 92.6553 18.4497 92.621C18.4103 92.5819 18.4103 92.5435 18.4103 92.5275V84.7631C18.4103 84.2222 18.621 83.7135 18.9888 83.3457L19.0706 83.2642C20.4895 81.8468 21.2703 79.9615 21.2703 77.9561C21.2703 75.9503 20.4891 74.065 19.0542 72.6311L19.0034 72.5803C18.621 72.1979 18.4103 71.6899 18.4103 71.1486V62.7974C18.4103 59.4421 21.1385 56.7128 24.4913 56.7128C27.7651 56.7128 30.4163 59.3212 30.5679 62.4775C30.6453 64.0863 30.1073 65.6275 29.0533 66.8174C28.0504 67.95 28.1548 69.6812 29.2874 70.6844C30.4203 71.6877 32.1515 71.5829 33.1544 70.4503C35.1617 68.1841 36.1869 65.259 36.04 62.2145C35.7479 56.1299 30.6168 51.2344 24.4913 51.2344Z" fill="#FDFFA9"/>
    <path d="M92.4473 73.873C84.6812 73.873 78.3635 80.1911 78.3635 87.9569C78.3635 95.7226 84.6816 102.041 92.4473 102.041C100.213 102.041 106.531 95.7226 106.531 87.9569C106.531 80.1911 100.213 73.873 92.4473 73.873ZM92.4473 96.5627C87.7023 96.5627 83.8419 92.7022 83.8419 87.9572C83.8419 83.2122 87.7023 79.3518 92.4473 79.3518C97.1923 79.3518 101.053 83.2122 101.053 87.9572C101.053 92.7022 97.1923 96.5627 92.4473 96.5627Z" fill="#FDFFA9"/>
    </svg>
    