<svg width="164" height="164" viewBox="0 0 164 164" fill="none" xmlns="http://www.w3.org/2000/svg">
<g clip-path="url(#clip0_57_278)">
<path d="M142.052 31.8134C140.179 27.3777 136.622 23.821 132.187 21.9478L155.288 4.61245L152.213 0.512451L125.542 20.5256C125.368 20.5205 125.196 20.5 125.022 20.5C123.467 20.5 121.914 20.6973 120.404 21.0868C109.009 24.026 98.0619 28.413 87.8017 34.1145L84.5473 4.84308C84.4038 3.54389 83.3071 2.56245 82.0002 2.56245H51.2502C50.3277 2.56245 49.4744 3.05958 49.0208 3.86164C48.5647 4.6637 48.5775 5.65026 49.0541 6.44208L62.0998 28.1875H48.6877C47.7319 28.1875 46.8555 28.7205 46.4148 29.5661C45.974 30.4143 46.0406 31.4367 46.589 32.2183L61.3208 53.2641C41.6741 71.3502 27.77 94.505 21.087 120.402C20.6975 121.911 20.5002 123.464 20.5002 125.019C20.5002 125.196 20.5207 125.365 20.5258 125.539L0.512695 152.21L4.6127 155.287L21.948 132.187C23.8212 136.622 27.3779 140.179 31.8136 142.052L8.7127 159.387L11.7877 163.487L38.4556 143.474C38.6299 143.479 38.8016 143.5 38.9784 143.5C40.5338 143.5 42.0867 143.303 43.596 142.913C55.6884 139.789 67.1941 135.072 77.9463 128.886L74.6612 134.518C74.1974 135.313 74.1948 136.289 74.6535 137.086C75.1122 137.883 75.9578 138.375 76.8752 138.375H83.571L77.0059 158.065C76.7445 158.847 76.8778 159.708 77.3595 160.374C77.8413 161.04 78.6151 161.437 79.4377 161.437H105.063C105.78 161.437 106.462 161.138 106.949 160.61C107.433 160.084 107.676 159.377 107.618 158.662L105.055 127.912C104.942 126.582 103.833 125.562 102.5 125.562H97.3752V115.384C119.859 96.7138 135.603 71.9242 142.913 43.5983C143.303 42.0864 143.5 40.5336 143.5 38.9781C143.5 38.8013 143.48 38.6322 143.475 38.458L163.488 11.7875L159.388 8.71245L142.052 31.8134ZM66.6252 33.3125C67.5477 33.3125 68.401 32.8153 68.8546 32.0133C69.3107 31.2112 69.2979 30.2246 68.8213 29.4328L55.7756 7.68745H79.7068L84.1373 47.5523L72.5625 43.6931C71.6323 43.3831 70.6073 43.6316 69.9206 44.3312C69.2338 45.0308 69.0083 46.0634 69.3363 46.986L75.7477 64.9388L53.6077 33.3125H66.6252ZM64.2856 57.4999L82.464 83.4683C82.9586 84.1755 83.7504 84.5624 84.5627 84.5624C84.9599 84.5624 85.3622 84.4702 85.7363 84.278C86.8766 83.6886 87.4045 82.3484 86.974 81.1389L75.9322 50.2224L86.3129 53.6843C87.1431 53.956 88.0554 53.7945 88.7344 53.2461C89.4135 52.6978 89.7671 51.8393 89.6698 50.9706L88.4141 39.6674C98.8333 33.6533 110.011 29.0638 121.683 26.0529C122.775 25.7685 123.897 25.625 125.022 25.625C127.29 25.625 129.394 26.2451 131.264 27.247L90.582 62.1175L93.9184 66.0099L135.29 30.5501C135.636 30.9703 135.977 31.388 136.269 31.8467C112.281 76.4778 75.8989 112.296 30.8963 135.582C30.6298 135.377 30.3709 135.167 30.1224 134.944L68.6752 83.5374L64.5752 80.4624L29.3793 127.39L31.7829 121.081C39.3602 101.193 50.8299 83.4811 65.8744 68.4366L62.251 64.8133C46.6915 80.3728 34.8297 98.6895 26.9936 119.256L26.0275 121.79C26.0352 121.755 26.0378 121.719 26.048 121.685C32.4261 96.9701 45.6332 74.848 64.2856 57.4999ZM100.143 130.687L102.277 156.312H82.9919L89.557 136.622C89.8184 135.841 89.6851 134.98 89.2034 134.313C88.7216 133.647 87.9478 133.25 87.1252 133.25H81.3365L92.2502 114.541V128.125C92.2502 129.542 93.3982 130.687 94.8127 130.687H100.143ZM137.95 42.3171C131.272 68.2009 117.288 91.0276 97.3752 108.655V105.062C97.3752 103.904 96.5988 102.889 95.4815 102.587C94.3643 102.287 93.1829 102.772 92.5987 103.771L83.4711 119.418C70.8866 127.907 57.0466 134.149 42.3148 137.95C41.2257 138.231 40.1033 138.375 38.9784 138.375C38.2737 138.375 37.5972 138.272 36.9233 138.167C79.676 115.172 114.549 80.957 138.342 38.663C138.347 38.7706 138.375 38.8705 138.375 38.9781C138.375 40.1031 138.232 41.2254 137.95 42.3171Z" fill="#FDFFA9"/>
</g>
<defs>
<clipPath id="clip0_57_278">
<rect width="164" height="164" fill="white"/>
</clipPath>
</defs>
</svg>
