<svg width="188" height="188" viewBox="0 0 188 188" fill="none" xmlns="http://www.w3.org/2000/svg">
    <g clip-path="url(#clip0_2_2441)">
    <path d="M25.3141 49.0706C25.3141 50.5915 26.5467 51.8245 28.068 51.8245C29.5893 51.8245 30.8219 50.5915 30.8219 49.0706C30.8219 43.0087 25.8902 38.077 19.8287 38.077C13.7671 38.077 8.83545 43.0087 8.83545 49.0706C8.83545 50.5915 10.0681 51.8245 11.5894 51.8245C13.1106 51.8245 14.3433 50.5915 14.3433 49.0706C14.3433 46.0457 16.8042 43.5848 19.8287 43.5848C22.8532 43.5848 25.3141 46.0457 25.3141 49.0706Z" fill="#FDFFA9"/>
    <path d="M54.8613 49.0706C54.8613 50.5915 56.094 51.8245 57.6152 51.8245C59.1365 51.8245 60.3691 50.5915 60.3691 49.0706C60.3691 43.0087 55.4371 38.077 49.3756 38.077C43.314 38.077 38.3823 43.0087 38.3823 49.0706C38.3823 50.5915 39.615 51.8245 41.1362 51.8245C42.6575 51.8245 43.8901 50.5915 43.8901 49.0706C43.8901 46.0457 46.351 43.5848 49.3756 43.5848C52.4004 43.5848 54.8613 46.0457 54.8613 49.0706Z" fill="#FDFFA9"/>
    <path d="M34.6023 74.2528C43.9112 74.2528 51.4845 66.6795 51.4845 57.3706C51.4845 55.8497 50.2518 54.6167 48.7305 54.6167C47.2093 54.6167 45.9766 55.8497 45.9766 57.3706C45.9766 63.6425 40.8742 68.745 34.6023 68.745C28.3303 68.745 23.2275 63.6425 23.2275 57.3706C23.2275 55.8497 21.9949 54.6167 20.4736 54.6167C18.9524 54.6167 17.7197 55.8497 17.7197 57.3706C17.7201 66.6795 25.2933 74.2528 34.6023 74.2528Z" fill="#FDFFA9"/>
    <path d="M168.382 55.9451C174.444 55.9451 179.376 51.0134 179.376 44.9515C179.376 43.4306 178.143 42.1976 176.622 42.1976C175.1 42.1976 173.868 43.4306 173.868 44.9515C173.868 47.9764 171.407 50.4373 168.382 50.4373C165.358 50.4373 162.897 47.9764 162.897 44.9515C162.897 43.4306 161.664 42.1976 160.143 42.1976C158.622 42.1976 157.389 43.4306 157.389 44.9515C157.389 51.0134 162.32 55.9451 168.382 55.9451Z" fill="#FDFFA9"/>
    <path d="M149.829 44.9515C149.829 43.4306 148.596 42.1976 147.075 42.1976C145.554 42.1976 144.321 43.4306 144.321 44.9515C144.321 47.9764 141.86 50.4373 138.836 50.4373C135.811 50.4373 133.35 47.9764 133.35 44.9515C133.35 43.4306 132.117 42.1976 130.596 42.1976C129.075 42.1976 127.842 43.4306 127.842 44.9515C127.842 51.0134 132.774 55.9451 138.836 55.9451C144.897 55.9451 149.829 51.0134 149.829 44.9515Z" fill="#FDFFA9"/>
    <path d="M164.983 73.5511C164.983 75.072 166.216 76.305 167.737 76.305C169.259 76.305 170.491 75.072 170.491 73.5511C170.491 64.2426 162.917 56.6693 153.609 56.6693C144.3 56.6693 136.727 64.2426 136.727 73.5515C136.727 75.0724 137.959 76.3054 139.48 76.3054C141.002 76.3054 142.234 75.0724 142.234 73.5515C142.234 67.2796 147.337 62.1771 153.609 62.1771C159.881 62.1771 164.983 67.2792 164.983 73.5511Z" fill="#FDFFA9"/>
    <path d="M174.568 87.3587H169.867C180.732 80.7251 188 68.7563 188 55.1215C188 34.3097 171.068 17.3779 150.256 17.3779C129.445 17.3779 112.513 34.3097 112.513 55.1215C112.513 68.7563 119.781 80.7251 130.646 87.3587H108.167C105.051 82.4325 99.5585 79.1521 93.3111 79.1521C87.0646 79.1521 81.5725 82.4318 78.4562 87.3569H57.3569C68.2201 80.7229 75.4864 68.7548 75.4864 55.1211C75.4864 41.4643 68.0773 28.8371 56.1507 22.1675C54.8229 21.4251 53.1449 21.8991 52.4028 23.2269C51.6607 24.5542 52.1347 26.2323 53.4625 26.9747C63.6501 32.672 69.9786 43.4571 69.9786 55.1211C69.9786 72.896 55.5176 87.3565 37.7432 87.3565C19.9688 87.3565 5.50781 72.896 5.50781 55.1215C5.50781 37.3471 19.9688 22.8861 37.7432 22.8861C39.372 22.8861 40.9939 23.0076 42.5636 23.2474C44.0673 23.4769 45.4721 22.4444 45.7016 20.9407C45.9311 19.4371 44.8982 18.0323 43.395 17.8028C41.5509 17.5211 39.6496 17.3783 37.7432 17.3783C16.9314 17.3783 0 34.3097 0 55.1215C0 68.7552 7.26664 80.7229 18.1295 87.3573H12.054C9.55348 87.3573 7.20275 88.331 5.43548 90.0987C3.66747 91.8667 2.69332 94.2185 2.69332 96.7216C2.69332 101.885 6.89284 106.086 12.054 106.086H78.4547C78.8322 106.683 79.2427 107.257 79.6874 107.802L63.9049 135.569C63.1533 136.891 63.616 138.572 64.9382 139.324C65.3678 139.568 65.8352 139.684 66.2964 139.684C67.2544 139.684 68.186 139.183 68.6931 138.291L83.895 111.546C86.6188 113.282 89.8482 114.293 93.3108 114.293C96.8075 114.293 100.066 113.262 102.807 111.495L125.704 151.783H61.0214L62.4369 149.291C63.1882 147.969 62.7248 146.288 61.4029 145.536C60.08 144.785 58.3993 145.248 57.6477 146.57L54.6867 151.783H46.8663C41.6721 151.783 37.4465 156.008 37.4465 161.202C37.4465 166.397 41.6725 170.622 46.8663 170.622H139.862C145.056 170.622 149.282 166.397 149.282 161.202C149.282 156.008 145.056 151.783 139.862 151.783H132.04L106.998 107.721C107.418 107.2 107.808 106.653 108.168 106.085H140.137C141.659 106.085 142.891 104.852 142.891 103.331C142.891 101.811 141.659 100.577 140.137 100.577H110.45C110.729 99.336 110.881 98.0468 110.881 96.7224C110.881 95.3976 110.729 94.1084 110.45 92.8665H174.568C176.692 92.8665 178.42 94.596 178.42 96.722C178.42 97.7549 178.02 98.7225 177.288 99.452C176.565 100.178 175.599 100.577 174.568 100.577H152.915C151.394 100.577 150.161 101.811 150.161 103.331C150.161 104.852 151.394 106.085 152.915 106.085H174.568C177.073 106.085 179.425 105.11 181.183 103.347C182.953 101.582 183.928 99.2299 183.928 96.722C183.928 91.5594 179.729 87.3587 174.568 87.3587ZM118.021 55.1215C118.021 37.3467 132.482 22.8857 150.256 22.8857C168.031 22.8857 182.492 37.3467 182.492 55.1215C182.492 72.8963 168.031 87.3569 150.256 87.3569C132.482 87.3569 118.021 72.896 118.021 55.1215ZM143.774 161.202C143.774 163.359 142.019 165.114 139.862 165.114H46.8663C44.7091 165.114 42.9543 163.359 42.9543 161.202C42.9543 159.045 44.7091 157.29 46.8663 157.29H139.862C142.019 157.29 143.774 159.045 143.774 161.202ZM12.054 100.578C9.92948 100.578 8.20113 98.848 8.20113 96.7213C8.20113 95.6899 8.6021 94.7208 9.32987 93.9931C10.0573 93.2657 11.0248 92.8647 12.054 92.8647H76.173C75.8936 94.1069 75.7412 95.3968 75.7412 96.7224C75.7412 98.0472 75.8936 99.3364 76.1727 100.578H12.054ZM81.2487 96.7224C81.2487 90.0712 86.6595 84.6599 93.3111 84.6599C99.9627 84.6599 105.374 90.0712 105.374 96.7224C105.374 103.374 99.9627 108.785 93.3111 108.785C86.6595 108.785 81.2487 103.374 81.2487 96.7224Z" fill="#FDFFA9"/>
    <path d="M93.3113 88.0543C88.5312 88.0543 84.6431 91.9428 84.6431 96.7225C84.6431 101.502 88.5316 105.391 93.3113 105.391C98.0909 105.391 101.979 101.502 101.979 96.7225C101.979 91.9428 98.0913 88.0543 93.3113 88.0543ZM93.3113 99.8829C91.5686 99.8829 90.1509 98.4652 90.1509 96.7225C90.1509 94.9798 91.5686 93.5621 93.3113 93.5621C95.0539 93.5621 96.4716 94.9798 96.4716 96.7225C96.4716 98.4652 95.0539 99.8829 93.3113 99.8829Z" fill="#FDFFA9"/>
    </g>
    <defs>
    <clipPath id="clip0_2_2441">
    <rect width="188" height="188" fill="white"/>
    </clipPath>
    </defs>
    </svg>
    