<svg width="214" height="187" viewBox="0 0 214 187" fill="none" xmlns="http://www.w3.org/2000/svg">
    <path d="M107.739 0.323222C107.226 0.305534 106.722 0.46576 106.313 0.776768C105.904 1.08778 105.615 1.53038 105.495 2.02981L101.183 18.9667C101.047 19.2795 100.985 19.6192 101.001 19.9598C101.017 20.3005 101.111 20.6329 101.276 20.9314C101.441 21.23 101.672 21.4868 101.952 21.682C102.232 21.8771 102.553 22.0055 102.89 22.0571L107.435 22.8136L103.907 30.3997C103.774 30.666 103.697 30.9561 103.678 31.2528C103.66 31.5496 103.701 31.8472 103.799 32.1278C103.897 32.4084 104.051 32.6665 104.251 32.8869C104.451 33.1073 104.692 33.2854 104.962 33.4109C105.232 33.5364 105.524 33.6067 105.821 33.6175C106.119 33.6284 106.415 33.5797 106.693 33.4742C106.971 33.3687 107.226 33.2085 107.441 33.0033C107.656 32.798 107.828 32.5518 107.947 32.2791L112.503 22.4813C112.858 22.0277 113.024 21.4543 112.965 20.8816C112.906 20.3088 112.627 19.7811 112.188 19.4091C111.791 19.0545 111.281 18.8533 110.749 18.842C110.734 18.8422 110.72 18.8425 110.706 18.8429L106.012 18.061L109.813 3.13423C109.901 2.81015 109.914 2.47034 109.852 2.14037C109.79 1.81039 109.654 1.49873 109.455 1.22864C109.255 0.958555 108.997 0.73708 108.7 0.58072C108.403 0.42436 108.075 0.334684 107.739 0.323222ZM152.523 19.4456C152.096 19.4368 151.675 19.5509 151.311 19.7742L136.291 28.6957C135.837 28.871 135.453 29.1899 135.197 29.6037C134.897 30.0572 134.774 30.6046 134.85 31.1427C134.926 31.6808 135.196 32.1726 135.61 32.5254L137.978 35.8377L130.115 38.7081C129.839 38.8077 129.585 38.9609 129.368 39.1587C129.152 39.3565 128.976 39.5951 128.852 39.8608C128.728 40.1266 128.657 40.4143 128.644 40.7074C128.632 41.0005 128.677 41.293 128.777 41.5686C128.878 41.8441 129.032 42.0972 129.231 42.3131C129.43 42.5289 129.669 42.7034 129.935 42.8266C130.202 42.9498 130.49 43.0194 130.783 43.031C131.076 43.0427 131.369 42.9964 131.644 42.8948L141.996 39.1134C142.295 39.0465 142.576 38.9191 142.823 38.7389C143.069 38.5588 143.277 38.3298 143.431 38.0663C143.688 37.6414 143.795 37.143 143.735 36.6503C143.676 36.1575 143.454 35.6986 143.104 35.3465L140.335 31.4722L153.586 23.6049C154.009 23.3625 154.34 22.9882 154.53 22.5393C154.72 22.0904 154.757 21.5917 154.636 21.1196C154.515 20.6476 154.243 20.2282 153.86 19.9257C153.478 19.6233 153.011 19.4549 152.523 19.4456ZM61.36 19.4491C60.8789 19.4727 60.4185 19.6515 60.0476 19.9587C59.6768 20.2658 59.4154 20.6848 59.3027 21.1528C59.19 21.6208 59.2321 22.1127 59.4225 22.5549C59.613 22.997 59.9416 23.3656 60.3592 23.6054L73.6092 31.4732L70.8574 35.3242C70.4622 35.7126 70.2259 36.2343 70.1948 36.7873C70.1636 37.3404 70.3398 37.8852 70.6888 38.3155C70.7158 38.3514 70.7439 38.3865 70.7731 38.4208C70.7869 38.435 70.801 38.4491 70.8152 38.4629C71.1175 38.7879 71.51 39.0153 71.9424 39.1159L82.3117 42.9022C82.5872 43.0047 82.8802 43.0517 83.174 43.0406C83.4678 43.0294 83.7564 42.9604 84.0234 42.8373C84.2903 42.7142 84.5303 42.5396 84.7294 42.3235C84.9286 42.1074 85.083 41.854 85.1839 41.578C85.2847 41.302 85.33 41.0089 85.317 40.7154C85.304 40.4218 85.2331 40.1337 85.1083 39.8677C84.9835 39.6016 84.8073 39.3629 84.5899 39.1652C84.3724 38.9675 84.118 38.8147 83.8412 38.7157L75.9757 35.8462L78.3437 32.532C78.7581 32.178 79.0284 31.6845 79.1034 31.1449C79.1784 30.6052 79.0528 30.0568 78.7506 29.6033C78.4966 29.1955 78.1174 28.8808 77.6697 28.7059L62.6458 19.7806C62.2626 19.5464 61.8176 19.4333 61.369 19.4563L61.36 19.4491ZM107.46 43.6742C104.414 43.6742 101.463 44.3735 98.6813 45.5915C95.8999 46.8114 93.2817 48.5451 90.8246 50.6457C88.629 52.523 86.5629 54.6971 84.6273 57.0745L3.09949 57.0781C2.51301 57.0852 1.95296 57.3231 1.54075 57.7401C1.12853 58.1571 0.897323 58.7197 0.897323 59.3059C0.897323 59.8921 1.12853 60.4547 1.54075 60.8717C1.95296 61.2887 2.51301 61.5265 3.09949 61.5336L85.1216 61.5303C85.5448 61.6324 85.9886 61.6083 86.3983 61.4611C86.808 61.314 87.1656 61.0501 87.427 60.7021C87.4412 60.6883 87.4553 60.6742 87.4691 60.66C89.4454 58.1469 91.5456 55.901 93.7267 54.0362C95.9143 52.1653 98.1805 50.6822 100.478 49.6755C102.775 48.6684 105.098 48.1333 107.467 48.1333C109.531 48.1333 111.639 48.654 113.79 49.6566C115.941 50.6574 118.123 52.14 120.265 54.0164C122.408 55.8936 124.512 58.1584 126.514 60.689C126.773 61.0377 127.127 61.3035 127.535 61.4536C127.942 61.6036 128.384 61.6316 128.807 61.5339L210.853 61.5372C211.148 61.5408 211.441 61.4859 211.714 61.3755C211.988 61.2652 212.237 61.1017 212.447 60.8945C212.656 60.6872 212.823 60.4404 212.937 60.1684C213.05 59.8963 213.109 59.6043 213.109 59.3095C213.109 59.0146 213.05 58.7228 212.937 58.4507C212.823 58.1787 212.656 57.9319 212.447 57.7246C212.237 57.5174 211.988 57.3538 211.714 57.2435C211.441 57.1331 211.148 57.0782 210.853 57.0817L129.323 57.0783C127.385 54.7071 125.342 52.5422 123.203 50.6693C120.812 48.5751 118.302 46.8421 115.672 45.6177C113.043 44.3936 110.276 43.6742 107.46 43.6742ZM106.973 55.0424C103.412 55.0424 100.309 57.0398 97.7407 59.801C95.1726 62.5614 93.0081 66.1857 91.1993 70.1199C87.5818 77.9883 85.3927 86.997 85.4285 93.0636C85.4538 98.274 86.7327 104.051 90.1206 108.697C93.5087 113.343 99.1521 116.678 106.973 116.678C114.548 116.678 120.175 113.343 123.632 108.717C127.088 104.091 128.521 98.3116 128.521 93.0505C128.521 86.9259 126.046 77.9398 122.309 70.0938C120.441 66.1709 118.257 62.5653 115.765 59.8209C113.272 57.0767 110.36 55.0424 106.973 55.0424ZM106.973 59.4956C108.471 59.4956 110.418 60.5638 112.464 62.8165C114.51 65.0692 116.545 68.3551 118.285 72.0079C121.764 79.3134 124.063 88.2192 124.063 93.0505C124.063 97.4815 122.788 102.402 120.059 106.053C117.331 109.704 113.296 112.222 106.973 112.222C100.358 112.222 96.3709 109.704 93.723 106.073C91.075 102.442 89.9104 97.5195 89.884 93.0375C89.8672 88.1482 91.9024 79.2645 95.2499 71.9818C96.9249 68.3404 98.9273 65.073 101.008 62.8366C103.09 60.6 105.115 59.4956 106.973 59.4956ZM2.19201 71.1953C1.69133 71.2037 1.20801 71.3805 0.820061 71.6969C0.432114 72.0134 0.162166 72.4511 0.053608 72.9397C-0.0549498 73.4283 0.00429629 73.9392 0.22176 74.39C0.439223 74.8409 0.802197 75.2053 1.25227 75.4247C1.25227 75.4247 4.00606 76.8195 7.62917 78.2062C11.2524 79.5947 15.7155 81.0445 19.7117 81.0445C23.7074 81.0445 26.7851 79.4579 29.4434 78.1139C32.1015 76.7697 34.3391 75.6649 37.1625 75.6649C39.986 75.6649 42.2235 76.7689 44.8816 78.1139C47.5399 79.4582 50.6186 81.0445 54.6143 81.0445C58.6105 81.0445 61.6889 79.4579 64.3469 78.1139C67.0052 76.7697 69.2417 75.6649 72.0654 75.6649C73.477 75.6649 74.7211 75.937 75.968 76.3793C77.2154 76.8216 78.4589 77.4433 79.7881 78.1155C81.1176 78.7878 82.532 79.5082 84.1311 80.0749C84.4097 80.1858 84.7079 80.2393 85.0077 80.2323C85.3075 80.2253 85.6028 80.1578 85.8759 80.0341C86.149 79.9103 86.3943 79.7326 86.5971 79.5119C86.8 79.2911 86.9561 79.0317 87.0562 78.7491C87.1564 78.4666 87.1985 78.1668 87.18 77.8676C87.1614 77.5685 87.0827 77.2762 86.9484 77.0082C86.8142 76.7402 86.6272 76.5019 86.3987 76.3079C86.1702 76.1138 85.9049 75.9678 85.6186 75.8786C84.3713 75.4363 83.1277 74.8125 81.7985 74.1383C80.469 73.466 79.0545 72.7456 77.4553 72.1789C75.8561 71.6119 74.0639 71.2118 72.0658 71.2118C68.0699 71.2118 64.9921 72.7941 62.334 74.1385C59.6757 75.4827 57.4384 76.5886 54.6147 76.5886C51.7912 76.5886 49.5539 75.4825 46.8959 74.1385C44.2376 72.7942 41.1589 71.2118 37.1629 71.2118C33.1669 71.2118 30.0883 72.7941 27.4301 74.1385C24.772 75.4827 22.5355 76.5886 19.7121 76.5886C16.8884 76.5886 12.6235 75.3477 9.2252 74.0464C5.82703 72.7444 3.26379 71.4518 3.26379 71.4518C2.93349 71.2777 2.56538 71.1898 2.19201 71.1953ZM211.709 71.2121C211.704 71.2124 211.698 71.2127 211.693 71.213C207.697 71.213 204.618 72.7953 201.96 74.1391C199.302 75.4833 197.064 76.5893 194.241 76.5893C191.417 76.5893 189.181 75.4832 186.522 74.1391C183.864 72.7949 180.786 71.213 176.79 71.213C172.794 71.213 169.715 72.7953 167.057 74.1391C164.399 75.4833 162.161 76.5893 159.338 76.5893C156.514 76.5893 154.274 75.4832 151.616 74.1391C148.958 72.7949 145.88 71.213 141.883 71.213C139.886 71.213 138.093 71.6132 136.494 72.18C134.895 72.747 133.48 73.4674 132.151 74.1395C130.821 74.8118 129.578 75.4374 128.331 75.8799C128.044 75.969 127.779 76.115 127.55 76.3091C127.321 76.5033 127.134 76.7416 127 77.0098C126.866 77.278 126.787 77.5705 126.768 77.8698C126.75 78.1691 126.792 78.4692 126.892 78.7518C126.993 79.0345 127.149 79.2939 127.352 79.5147C127.555 79.7354 127.801 79.9129 128.074 80.0365C128.348 80.1601 128.643 80.2272 128.943 80.2338C129.243 80.2405 129.542 80.1867 129.82 80.0753C131.42 79.5083 132.834 78.788 134.164 78.1159C135.493 77.4436 136.737 76.8202 137.984 76.3798C139.231 75.9375 140.471 75.6653 141.883 75.6653C144.706 75.6653 146.946 76.7714 149.605 78.1155C152.263 79.4597 155.341 81.0449 159.337 81.0449C163.333 81.0449 166.409 79.4605 169.067 78.1155C171.725 76.7713 173.966 75.6653 176.789 75.6653C179.613 75.6653 181.849 76.7714 184.508 78.1155C187.166 79.4597 190.244 81.0449 194.24 81.0449C198.236 81.0449 201.315 79.4605 203.973 78.1155C206.631 76.7713 208.869 75.6653 211.692 75.6653C211.99 75.6759 212.288 75.6265 212.567 75.5199C212.846 75.4134 213.101 75.2518 213.316 75.0449C213.531 74.838 213.703 74.5901 213.82 74.3157C213.938 74.0413 213.999 73.7461 214 73.4476C214.001 73.1491 213.942 72.8535 213.827 72.5782C213.711 72.3029 213.542 72.0535 213.328 71.845C213.114 71.6365 212.861 71.4732 212.583 71.3645C212.305 71.2558 212.008 71.2038 211.709 71.2121ZM106.973 77.6941C105.049 77.6941 103.408 78.6463 102.126 79.8509C100.845 81.056 99.8222 82.5694 98.9682 84.1988C97.2595 87.4575 96.2138 91.0948 96.2138 94.0279C96.2138 99.8935 101.073 104.665 106.973 104.665C112.873 104.665 117.735 99.8935 117.735 94.0279C117.735 93.2949 117.676 92.5299 117.525 91.7318C117.466 91.3316 117.377 90.9272 117.286 90.5162C117.226 90.2277 117.108 89.954 116.941 89.7113C116.773 89.4685 116.56 89.2613 116.311 89.1018C116.063 88.9422 115.786 88.8335 115.496 88.7819C115.205 88.7303 114.907 88.7368 114.62 88.8011C114.332 88.8654 114.059 88.9861 113.819 89.1563C113.578 89.3265 113.373 89.5429 113.216 89.7928C113.06 90.0426 112.955 90.321 112.906 90.6119C112.858 90.9028 112.869 91.2003 112.936 91.4873C113.021 91.8184 113.063 92.1402 113.126 92.4439C113.231 93.053 113.273 93.6006 113.273 94.0283C113.273 97.4531 110.493 100.21 106.969 100.21C103.444 100.21 100.665 97.4531 100.665 94.0283C100.665 92.3153 101.531 88.9002 102.912 86.2672C103.601 84.9505 104.416 83.8082 105.176 83.094C105.937 82.3795 106.538 82.1501 106.969 82.1501C107.184 82.1501 107.42 82.1923 107.724 82.3397C108.025 82.4872 108.387 82.7314 108.766 83.0895C109.146 83.4458 109.544 83.911 109.927 84.4506C110.313 84.9898 110.684 85.6053 111.029 86.2626C111.305 86.7837 111.776 87.1743 112.34 87.3489C112.903 87.5235 113.513 87.4678 114.035 87.1941C114.557 86.9204 114.95 86.4509 115.127 85.8885C115.303 85.3261 115.25 84.7166 114.978 84.1935C114.55 83.378 114.078 82.5945 113.556 81.8619C113.033 81.1289 112.458 80.448 111.818 79.8455C111.177 79.2431 110.465 78.7162 109.656 78.3264C108.847 77.9364 107.936 77.6941 106.973 77.6941ZM36.5621 86.1083C31.6649 86.1083 27.6483 90.1228 27.6483 95.017C27.6483 99.9112 31.6649 103.929 36.5621 103.929C41.459 103.929 45.4747 99.9112 45.4747 95.017C45.4747 90.1228 41.459 86.1083 36.5621 86.1083ZM177.48 86.1083C172.583 86.1083 168.567 90.1228 168.567 95.017C168.567 99.9112 172.583 103.929 177.48 103.929C182.377 103.929 186.396 99.9112 186.396 95.017C186.396 90.1228 182.377 86.1083 177.48 86.1083ZM4.45885 90.5649C2.02367 90.5649 0 92.5833 0 95.017C0 97.451 2.02257 99.4727 4.45885 99.4727C6.89394 99.4727 8.91679 97.4501 8.91679 95.017C8.91679 92.5831 6.8942 90.5649 4.45885 90.5649ZM36.5621 90.5649C39.0501 90.5649 41.02 92.5306 41.02 95.017C41.02 97.5036 39.0501 99.4727 36.5621 99.4727C34.074 99.4727 32.1032 97.5028 32.1032 95.017C32.1032 92.5305 34.0731 90.5649 36.5621 90.5649ZM71.7184 90.5649C69.283 90.5649 67.2627 92.5833 67.2627 95.017C67.2627 97.451 69.2832 99.4727 71.7184 99.4727C74.1535 99.4727 76.1762 97.4501 76.1762 95.017C76.1762 92.5831 74.1535 90.5649 71.7184 90.5649ZM142.139 90.5649C139.704 90.5649 137.685 92.5833 137.685 95.017C137.685 97.451 139.703 99.4727 142.139 99.4727C144.575 99.4724 146.597 97.4501 146.597 95.017C146.597 92.5831 144.575 90.5649 142.139 90.5649ZM177.48 90.5649C179.968 90.5649 181.938 92.5306 181.938 95.017C181.938 97.5036 179.968 99.4727 177.48 99.4727C174.992 99.4727 173.025 97.5028 173.025 95.017C173.025 92.5305 174.992 90.5649 177.48 90.5649ZM209.491 90.5649C207.056 90.5649 205.033 92.5833 205.033 95.017C205.033 97.451 207.056 99.4727 209.491 99.4727C211.926 99.4727 213.946 97.4501 213.946 95.017C213.946 92.5831 211.927 90.5649 209.491 90.5649ZM71.7645 119.256C66.8674 119.256 62.8508 123.271 62.8508 128.165C62.8508 133.059 66.8674 137.073 71.7645 137.073C76.6612 137.073 80.677 133.059 80.677 128.165C80.677 123.271 76.6612 119.256 71.7645 119.256ZM142.186 119.256C137.289 119.256 133.269 123.271 133.269 128.165C133.269 133.059 137.289 137.073 142.186 137.073C147.082 137.073 151.099 133.059 151.099 128.165C151.099 123.271 147.082 119.256 142.186 119.256ZM71.7645 123.709C74.2523 123.709 76.2223 125.677 76.2223 128.165C76.2223 130.651 74.2523 132.62 71.7645 132.62C69.2763 132.62 67.3055 130.652 67.3055 128.165C67.3055 125.678 69.2754 123.709 71.7645 123.709ZM142.186 123.709C144.674 123.709 146.64 125.677 146.64 128.165C146.64 130.651 144.674 132.62 142.186 132.62C139.698 132.62 137.728 130.652 137.728 128.165C137.728 125.678 139.698 123.709 142.186 123.709ZM36.5621 125.268C34.1269 125.268 32.1032 127.291 32.1032 129.724C32.1032 132.158 34.1279 134.18 36.5621 134.18C38.9972 134.18 41.02 132.158 41.02 129.724C41.02 127.29 38.9974 125.268 36.5621 125.268ZM107.019 125.268C104.584 125.268 102.561 127.291 102.561 129.724C102.561 132.158 104.584 134.18 107.019 134.18C109.454 134.18 111.475 132.158 111.475 129.724C111.475 127.29 109.454 125.268 107.019 125.268ZM177.48 125.268C175.045 125.268 173.025 127.291 173.025 129.724C173.025 132.158 175.045 134.18 177.48 134.18C179.916 134.18 181.938 132.158 181.938 129.724C181.938 127.29 179.916 125.268 177.48 125.268ZM107.019 147.669C102.122 147.669 98.1029 151.687 98.1029 156.581C98.1029 161.475 102.122 165.489 107.019 165.489C111.916 165.489 115.933 161.475 115.933 156.581C115.933 151.687 111.916 147.669 107.019 147.669ZM71.7645 152.125C69.3292 152.125 67.3055 154.147 67.3055 156.581C67.3055 159.015 69.3302 161.033 71.7645 161.033C74.1995 161.033 76.2223 159.015 76.2223 156.581C76.2223 154.147 74.1997 152.125 71.7645 152.125ZM107.019 152.125C109.507 152.125 111.475 154.095 111.475 156.581C111.475 159.068 109.507 161.033 107.019 161.033C104.531 161.033 102.561 159.067 102.561 156.581C102.561 154.094 104.531 152.125 107.019 152.125ZM142.186 152.125C139.75 152.125 137.728 154.147 137.728 156.581C137.728 159.015 139.75 161.033 142.186 161.033C144.621 161.033 146.64 159.015 146.64 156.581C146.64 154.147 144.622 152.125 142.186 152.125ZM107.019 177.864C104.584 177.864 102.561 179.884 102.561 182.319C102.561 184.753 104.584 186.772 107.019 186.772C109.454 186.772 111.475 184.754 111.475 182.319C111.475 179.885 109.454 177.864 107.019 177.864Z" fill="#FDFFA9"/>
    </svg>
    