<svg width="234" height="234" viewBox="0 0 234 234" fill="none" xmlns="http://www.w3.org/2000/svg">
    <path d="M171.048 148.535C168.148 145.892 165.448 143.038 162.969 139.997C157.512 133.257 154.131 125.076 153.239 116.449C152.454 108.685 152.163 100.88 152.366 93.0788C152.375 92.9013 153.239 79.2928 164.285 69.7635C175.33 60.2342 179.791 41.8755 180.245 29.0592C180.264 28.6945 180.209 28.3297 180.086 27.9861C179.962 27.6425 179.771 27.327 179.525 27.0579C179.278 26.7887 178.98 26.5714 178.648 26.4185C178.317 26.2656 177.958 26.1802 177.593 26.1673C177.228 26.1543 176.864 26.2141 176.523 26.3432C176.181 26.4723 175.868 26.668 175.603 26.919C175.338 27.17 175.125 27.4713 174.978 27.8053C174.83 28.1393 174.75 28.4993 174.743 28.8644C174.296 41.497 169.776 57.7531 160.687 65.5948C154.298 71.2029 149.807 78.6553 147.833 86.9239C146.694 85.4718 145.685 83.9221 144.817 82.2928C144.799 82.255 144.781 82.2178 144.76 82.1813C143.261 79.354 142.266 76.2866 141.821 73.1173C144.814 72.0376 147.402 70.0643 149.236 67.4648C153.983 60.6803 156.5 52.5858 156.436 44.3057C156.458 41.5916 155.844 38.9101 154.643 36.4763C153.447 34.0659 151.766 31.9283 149.706 30.1975C147.377 28.2997 144.451 27.288 141.447 27.3419C138.443 27.3958 135.556 28.5119 133.296 30.4921C129.051 34.2313 126.058 39.6683 124.64 46.2148C124.485 46.9284 124.62 47.6742 125.015 48.2881C125.411 48.9021 126.034 49.3338 126.747 49.4884C127.461 49.643 128.207 49.5078 128.821 49.1125C129.435 48.7173 129.866 48.0943 130.021 47.3807C131.205 41.9147 133.531 37.6222 136.936 34.6236C138.206 33.5038 139.832 32.8701 141.525 32.8348C143.218 32.7996 144.869 33.365 146.186 34.4309C147.665 35.6805 148.871 37.2222 149.728 38.9594C150.54 40.6209 150.952 42.4495 150.93 44.2988C150.992 51.4426 148.827 58.4283 144.736 64.2851C143.752 65.6774 142.432 66.798 140.898 67.5423C139.365 68.2866 137.668 68.6305 135.965 68.5419L130.954 68.3147C130.413 68.2902 129.877 68.4257 129.413 68.7043C128.948 68.9829 128.577 69.3923 128.344 69.8812L123.343 80.3857C123.318 80.4387 123.283 80.5234 123.261 80.5764C123.117 80.9349 119.562 89.4319 103.807 93.9329C102.318 94.3583 100.732 94.8517 99.0944 95.3982C98.4018 95.6294 97.8294 96.1262 97.5031 96.7794C97.1768 97.4326 97.1233 98.1887 97.3545 98.8813C97.5857 99.574 98.0825 100.146 98.7358 100.473C99.389 100.799 100.145 100.852 100.838 100.621C102.399 100.1 103.908 99.6308 105.32 99.2268C123.026 94.1683 127.772 84.0671 128.349 82.6803L132.532 73.895L135.719 74.0395C135.944 74.0498 136.168 74.0484 136.391 74.0491C136.879 77.4326 137.893 80.719 139.395 83.7897C138.382 87.1979 135.183 98.2736 132.066 112.521C131.986 112.875 131.978 113.242 132.04 113.599C132.103 113.956 132.235 114.297 132.43 114.603C132.625 114.909 132.879 115.173 133.176 115.381C133.474 115.589 133.809 115.735 134.163 115.813C134.518 115.891 134.884 115.897 135.241 115.833C135.598 115.768 135.939 115.634 136.243 115.438C136.548 115.241 136.811 114.986 137.017 114.688C137.223 114.389 137.369 114.053 137.444 113.698C139.63 103.707 141.854 95.3066 143.314 90.0809C144.4 91.4838 145.575 92.8159 146.83 94.0692C146.672 101.738 146.984 109.41 147.764 117.041C148.77 126.726 152.569 135.91 158.7 143.476C161.351 146.728 164.239 149.78 167.34 152.606C177.051 161.447 187.712 176.845 193.261 190.046C193.544 190.719 194.082 191.252 194.758 191.528C195.434 191.804 196.192 191.8 196.865 191.517C197.539 191.234 198.072 190.695 198.348 190.019C198.623 189.343 198.619 188.585 198.337 187.912C192.509 174.055 181.288 157.858 171.048 148.535Z" fill="#FDFFA9"/>
    <path d="M69.5869 175.175C69.5545 175.201 69.5284 175.232 69.4974 175.259C69.4451 175.304 69.3962 175.351 69.3481 175.397C69.277 175.469 69.2101 175.544 69.1478 175.623C69.1051 175.677 69.0618 175.73 69.0232 175.787C68.9658 175.874 68.9132 175.965 68.8656 176.058C68.8374 176.112 68.8057 176.164 68.781 176.22C68.7293 176.34 68.6863 176.464 68.6523 176.59C68.6433 176.623 68.6282 176.658 68.6199 176.689V176.7L67.2434 182.556C66.8261 184.327 66.2224 186.049 65.4423 187.693L53.5235 212.797C53.3685 213.124 53.2793 213.478 53.2612 213.839C53.243 214.2 53.2962 214.562 53.4177 214.902C53.5391 215.243 53.7265 215.556 53.9691 215.825C54.2116 216.093 54.5047 216.311 54.8315 216.466C55.1582 216.621 55.5123 216.71 55.8735 216.728C56.2348 216.746 56.596 216.693 56.9367 216.572C57.2773 216.45 57.5907 216.263 57.859 216.02C58.1272 215.777 58.3451 215.484 58.5001 215.158L70.4141 190.057C71.3612 188.061 72.0942 185.97 72.6007 183.82L73.7142 179.086L95.1032 166.078C95.4121 165.89 95.681 165.644 95.8946 165.352C96.1081 165.06 96.2621 164.729 96.3477 164.378C96.4333 164.027 96.449 163.662 96.3937 163.305C96.3384 162.948 96.2132 162.605 96.0254 162.296C95.8376 161.987 95.5908 161.718 95.2991 161.504C95.0073 161.291 94.6764 161.137 94.3252 161.051C93.9739 160.966 93.6093 160.95 93.252 161.005C92.8947 161.061 92.5518 161.186 92.2429 161.373L83.5877 166.637C83.7923 166.156 83.9715 165.665 84.1245 165.166C85.6021 160.197 86.2725 147.937 86.5409 141.072C86.639 138.488 86.1613 135.914 85.1424 133.537L82.8712 128.264C82.3331 127.021 82.2998 125.617 82.7783 124.35L84.7143 119.194C85.5608 116.946 85.9279 114.547 85.7921 112.149L85.4789 106.608C86.2236 106.283 86.9765 105.96 87.7377 105.637C88.0722 105.497 88.3758 105.292 88.6311 105.035C88.8863 104.777 89.0881 104.472 89.225 104.136C89.3618 103.8 89.431 103.441 89.4285 103.078C89.426 102.715 89.3518 102.357 89.2104 102.023C89.0689 101.689 88.8629 101.386 88.6041 101.132C88.3454 100.878 88.039 100.678 87.7025 100.543C87.3661 100.407 87.0063 100.34 86.6437 100.344C86.2811 100.348 85.9229 100.424 85.5897 100.567C78.6619 103.503 72.3391 106.551 68.2551 108.591C67.19 109.126 65.9996 109.36 64.8115 109.269C63.6234 109.179 62.4823 108.767 61.5104 108.077L58.5187 105.957C57.6006 105.312 56.8644 104.441 56.3812 103.429C55.8979 102.416 55.6841 101.296 55.7602 100.176C56.1354 92.7545 56.0179 85.316 55.4085 77.9098C55.2717 76.1521 54.7158 74.4528 53.7873 72.9542C52.8588 71.4555 51.5848 70.201 50.072 69.2958L43.2467 65.2229C42.2765 64.6458 41.5473 63.7377 41.1932 62.6658C40.8392 61.5939 40.8841 60.4302 41.3197 59.3887C44.6611 51.2049 50.3789 44.3453 53.4897 40.9846C54.7838 39.5796 55.778 37.9257 56.4119 36.1239C57.0458 34.322 57.306 32.4099 57.1766 30.5042L56.6191 22.3678C56.5973 22.005 56.5039 21.6502 56.3442 21.3237C56.1845 20.9972 55.9617 20.7055 55.6888 20.4656C55.4158 20.2256 55.098 20.0421 54.7537 19.9256C54.4095 19.8091 54.0455 19.7619 53.6829 19.7867C53.3203 19.8116 52.9663 19.908 52.6411 20.0704C52.316 20.2328 52.0262 20.4579 51.7885 20.7329C51.5508 21.0079 51.3699 21.3272 51.2563 21.6724C51.1426 22.0176 51.0985 22.3819 51.1263 22.7443L51.6866 30.8806C51.7659 32.0375 51.6088 33.1983 51.2248 34.2925C50.8409 35.3866 50.2381 36.3911 49.4532 37.2447C45.3397 41.6838 39.7113 48.7685 36.2212 57.3068C35.2815 59.5674 35.1896 62.0914 35.9624 64.4144C36.7353 66.7374 38.3209 68.7033 40.4277 69.9504L47.2536 74.0233C48.0104 74.4767 48.6475 75.1048 49.1118 75.855C49.576 76.6051 49.8538 77.4556 49.9219 78.3351C50.5104 85.4815 50.6254 92.6589 50.2661 99.8205C50.1255 101.879 50.5184 103.939 51.4067 105.802C52.295 107.665 53.6487 109.266 55.337 110.453L58.3287 112.572C60.1137 113.838 62.2095 114.596 64.3917 114.762C66.5739 114.929 68.7604 114.499 70.717 113.518C73.154 112.302 76.4032 110.718 80.099 109.019L80.2896 112.46C80.3828 114.095 80.1324 115.731 79.5546 117.264L77.6186 122.42C76.6373 125.019 76.7059 127.898 77.8099 130.448L80.0811 135.721C80.7761 137.343 81.1019 139.099 81.035 140.862C80.5959 152.106 79.7962 160.395 78.843 163.602C77.4954 168.136 71.7039 173.495 69.5869 175.175Z" fill="#FDFFA9"/>
    <path d="M120.348 41.8824C119.657 41.5077 119.07 40.966 118.641 40.3066C118.212 39.6471 117.955 38.8909 117.893 38.1067L117.796 36.9167C117.7 35.7014 117.362 34.5174 116.803 33.4339C116.244 32.3504 115.475 31.3892 114.54 30.6063C107.55 24.6558 103.138 16.2282 102.231 7.09344C102.197 6.73345 102.093 6.38357 101.925 6.06377C101.756 5.74396 101.526 5.4605 101.248 5.22957C100.97 4.99864 100.649 4.82475 100.303 4.71784C99.9581 4.61094 99.595 4.5731 99.235 4.6065C98.508 4.67394 97.8376 5.02743 97.3712 5.58921C97.1402 5.86737 96.9663 6.18829 96.8594 6.53366C96.7525 6.87902 96.7147 7.24206 96.7481 7.60204C97.796 18.173 102.9 27.9263 110.988 34.8128C111.366 35.1285 111.678 35.5162 111.904 35.9534C112.131 36.3906 112.268 36.8685 112.308 37.3593L112.405 38.5485C112.539 40.2451 113.096 41.8811 114.024 43.3075C114.952 44.734 116.223 45.9056 117.719 46.7158C118.037 46.895 118.388 47.0092 118.75 47.0516C119.113 47.0941 119.48 47.064 119.831 46.9632C120.182 46.8623 120.509 46.6927 120.794 46.4642C121.079 46.2356 121.315 45.9528 121.489 45.6321C121.664 45.3113 121.773 44.9591 121.809 44.596C121.846 44.2328 121.811 43.8659 121.705 43.5166C121.598 43.1674 121.424 42.8427 121.191 42.5615C120.958 42.2804 120.672 42.0483 120.348 41.8789V41.8824Z" fill="#FDFFA9"/>
    <path d="M141.226 164.331C140.502 164.232 139.769 164.424 139.188 164.866C138.606 165.307 138.224 165.962 138.125 166.685C138.026 167.408 138.218 168.141 138.659 168.723C139.101 169.305 139.755 169.687 140.478 169.786C140.969 169.853 141.451 169.928 141.924 170.011C142.081 170.038 142.241 170.052 142.401 170.052C143.09 170.052 143.755 169.794 144.262 169.328C144.77 168.862 145.085 168.222 145.144 167.536C145.203 166.849 145.002 166.165 144.582 165.619C144.161 165.073 143.551 164.705 142.872 164.587C142.332 164.493 141.783 164.408 141.226 164.331Z" fill="#FDFFA9"/>
    <path d="M159.023 170.781C158.226 170.244 157.402 169.749 156.553 169.299C155.911 168.951 155.157 168.873 154.457 169.082C153.757 169.29 153.169 169.768 152.822 170.411C152.474 171.053 152.396 171.807 152.605 172.507C152.813 173.206 153.291 173.795 153.934 174.142C154.605 174.498 155.257 174.887 155.89 175.308L155.958 175.357C166.054 182.017 172.119 192.746 173.984 207.243C174.069 207.907 174.393 208.517 174.895 208.959C175.397 209.401 176.043 209.645 176.711 209.646C176.83 209.646 176.949 209.638 177.067 209.622C177.791 209.529 178.448 209.152 178.894 208.575C179.34 207.997 179.539 207.265 179.446 206.541C177.4 190.623 170.338 178.258 159.023 170.781Z" fill="#FDFFA9"/>
    <path d="M126.541 170.438C126.895 170.356 127.229 170.205 127.524 169.994C127.819 169.783 128.069 169.515 128.261 169.207C128.452 168.898 128.58 168.555 128.638 168.197C128.697 167.839 128.683 167.472 128.599 167.119C128.515 166.766 128.362 166.433 128.149 166.139C127.936 165.846 127.667 165.597 127.357 165.407C127.048 165.218 126.704 165.092 126.345 165.036C125.987 164.98 125.621 164.995 125.268 165.082C114.748 167.685 105.553 174.067 99.433 183.011C93.3139 191.769 86.3393 206.485 87.8644 226.858C87.9164 227.549 88.2278 228.196 88.7362 228.668C89.2446 229.14 89.9125 229.403 90.6063 229.404C90.6752 229.404 90.744 229.404 90.8128 229.396C91.5408 229.341 92.2173 229 92.6936 228.446C93.1698 227.893 93.4068 227.173 93.3524 226.445C91.9491 207.69 98.3373 194.188 103.944 186.163C109.292 178.326 117.335 172.73 126.541 170.438Z" fill="#FDFFA9"/>
    <path d="M111.965 51.8928C111.794 52.6024 111.911 53.3511 112.291 53.9742C112.672 54.5973 113.284 55.0439 113.994 55.2156L122.781 57.3409C123.487 57.5017 124.227 57.3782 124.843 56.997C125.458 56.6158 125.898 56.0076 126.069 55.3041C126.239 54.6006 126.125 53.8584 125.752 53.2381C125.379 52.6178 124.777 52.1693 124.076 51.9898L115.29 49.8646C114.938 49.7794 114.573 49.7643 114.216 49.8201C113.859 49.876 113.516 50.0017 113.207 50.19C112.899 50.3784 112.63 50.6257 112.417 50.9178C112.204 51.21 112.05 51.5413 111.965 51.8928Z" fill="#FDFFA9"/>
    <path d="M133.198 55.2165C132.944 55.7063 132.588 56.1362 132.155 56.4772C131.721 56.8183 131.22 57.0626 130.684 57.1938C129.964 57.3124 129.32 57.7124 128.894 58.3058C128.469 58.8991 128.296 59.6372 128.415 60.3576C128.534 61.0781 128.934 61.7219 129.527 62.1474C130.12 62.573 130.858 62.7454 131.579 62.6267C132.946 62.36 134.237 61.7909 135.357 60.961C136.476 60.1311 137.396 59.0615 138.048 57.8304C138.068 57.7981 138.088 57.7678 138.105 57.7347C138.236 57.4904 138.353 57.2268 138.469 56.9612C138.741 56.4895 139.156 56.1171 139.654 55.8986C140.153 55.6801 140.708 55.627 141.239 55.7471C141.963 55.8436 142.695 55.6486 143.275 55.2051C143.855 54.7615 144.235 54.1057 144.331 53.382C144.428 52.6583 144.233 51.9259 143.789 51.3459C143.346 50.7659 142.69 50.3859 141.966 50.2894C141.132 50.1748 140.285 50.1774 139.451 50.297C139.438 50.1043 139.438 49.9247 139.42 49.7264C139.166 47.6063 139.515 45.4576 140.427 43.5268C140.568 43.2604 140.783 43.0406 141.046 42.8939C141.309 42.7472 141.61 42.68 141.91 42.7003C142.211 42.7206 142.499 42.8276 142.741 43.0084C142.982 43.1892 143.165 43.4359 143.269 43.7188C143.371 44.0748 143.543 44.4066 143.776 44.6945C144.009 44.9823 144.297 45.2203 144.624 45.3941C144.951 45.5678 145.309 45.6739 145.678 45.706C146.047 45.738 146.419 45.6953 146.77 45.5805C147.122 45.4656 147.448 45.281 147.726 45.0376C148.005 44.7942 148.232 44.497 148.394 44.1639C148.555 43.8308 148.648 43.4685 148.666 43.0988C148.684 42.729 148.628 42.3594 148.5 42.012C148.056 40.69 147.231 39.5288 146.129 38.6749C145.026 37.8209 143.696 37.3123 142.305 37.2132C140.914 37.1141 139.525 37.4288 138.312 38.1178C137.1 38.8068 136.119 39.8392 135.492 41.085C134.121 43.932 133.583 47.1083 133.938 50.2481C134.133 51.6915 133.989 53.1605 133.518 54.5386C133.399 54.7588 133.292 54.9851 133.198 55.2165Z" fill="#FDFFA9"/>
    <path d="M130.696 134.39C131.052 134.45 131.417 134.439 131.769 134.357C132.121 134.276 132.454 134.126 132.748 133.916C133.042 133.706 133.292 133.44 133.483 133.134C133.674 132.827 133.803 132.486 133.862 132.129C134.063 130.926 134.269 129.733 134.481 128.551C134.601 127.836 134.434 127.102 134.016 126.51C133.598 125.917 132.964 125.514 132.25 125.386C131.536 125.259 130.801 125.418 130.204 125.829C129.607 126.241 129.197 126.871 129.061 127.583C128.846 128.786 128.636 129.998 128.431 131.222C128.372 131.578 128.383 131.943 128.465 132.296C128.546 132.648 128.697 132.981 128.907 133.275C129.117 133.569 129.384 133.819 129.691 134.01C129.998 134.202 130.339 134.33 130.696 134.39Z" fill="#FDFFA9"/>
    </svg>
    