<svg width="26" height="26" viewBox="0 0 26 26" fill="none" xmlns="http://www.w3.org/2000/svg">
<path d="M21.3761 3.89454C16.4938 -1.11141 8.5792 -1.11021 3.6984 3.89729C-1.1824 8.90479 -1.18123 17.0223 3.70109 22.0282C8.5834 27.0342 16.4979 27.033 21.3787 22.0255C23.7228 19.6206 25.0393 16.3591 25.0385 12.9586C25.0379 9.55869 23.7204 6.29828 21.3761 3.89454ZM18.9694 17.9997C18.9688 18.0002 18.9683 18.0008 18.9677 18.0014V17.9971L18.3344 18.6424C17.5153 19.4931 16.3223 19.8431 15.1885 19.5655C14.0462 19.2519 12.9602 18.7527 11.9719 18.0869C11.0536 17.485 10.2026 16.7813 9.43438 15.9886C8.72749 15.2689 8.09243 14.4786 7.53853 13.6296C6.93267 12.716 6.45313 11.7208 6.11353 10.6723C5.72423 9.44055 6.04683 8.08894 6.94688 7.18089L7.68853 6.42022C7.89473 6.20778 8.22979 6.20703 8.43687 6.41852C8.4374 6.41907 8.43799 6.41962 8.43853 6.42022L10.7802 8.82191C10.9873 9.0334 10.988 9.37705 10.7818 9.58944C10.7813 9.58999 10.7808 9.59054 10.7802 9.59114L9.40518 11.0014C9.01065 11.4016 8.96104 12.0376 9.28853 12.4971C9.78584 13.1972 10.3362 13.8559 10.9344 14.4672C11.6013 15.1542 12.3264 15.7792 13.101 16.3348C13.5486 16.655 14.1555 16.601 14.5427 16.2066L15.8718 14.8219C16.078 14.6095 16.4131 14.6088 16.6202 14.8202C16.6207 14.8208 16.6212 14.8213 16.6218 14.8219L18.9677 17.2322C19.1748 17.4436 19.1756 17.7872 18.9694 17.9997Z" fill="#FFD360"/>
</svg>
