<svg width="26" height="26" viewBox="0 0 26 26" fill="none" xmlns="http://www.w3.org/2000/svg">
<path d="M12.5384 6.25049C9.79194 6.25049 8.1521 7.96728 8.1521 10.8427C8.1521 12.479 10.3263 16.2595 12.5376 19.2778C14.7357 16.2493 16.9247 12.5157 16.9247 10.8427C16.9247 7.96728 15.2849 6.25049 12.5384 6.25049ZM12.5337 12.8102C11.4697 12.8102 10.6072 11.9477 10.6072 10.8837C10.6072 9.81962 11.4697 8.95712 12.5337 8.95712C13.5978 8.95712 14.4603 9.81962 14.4603 10.8837C14.4603 11.9477 13.5978 12.8102 12.5337 12.8102Z" fill="#FFD360"/>
<path d="M12.5385 0.781738C5.63505 0.781738 0.0385742 6.37821 0.0385742 13.2817C0.0385742 20.1852 5.63505 25.7817 12.5385 25.7817C19.4421 25.7817 25.0385 20.1852 25.0385 13.2817C25.0385 6.37821 19.4421 0.781738 12.5385 0.781738ZM13.2706 20.9145L12.5385 21.8754L11.8108 20.9145C11.2753 20.2145 6.58973 13.9591 6.58973 10.8427C6.58973 7.10399 8.92332 4.68798 12.5385 4.68798C16.1538 4.68798 18.4874 7.10399 18.4874 10.8427C18.4874 13.9544 13.8014 20.2098 13.2706 20.9145Z" fill="#FFD360"/>
</svg>
