<svg width="26" height="26" viewBox="0 0 26 26" fill="none" xmlns="http://www.w3.org/2000/svg">
<path fill-rule="evenodd" clip-rule="evenodd" d="M12.5385 25.2817C5.64603 25.2817 0.0385742 19.6742 0.0385742 12.7817C0.0385742 5.8892 5.64603 0.281738 12.5385 0.281738C19.4311 0.281738 25.0385 5.8892 25.0385 12.7817C25.0385 19.6742 19.4311 25.2817 12.5385 25.2817ZM19.0209 17.1729C19.175 17.1729 19.3004 17.0475 19.3004 16.8933V9.04583L12.9406 14.0962C12.8229 14.1897 12.6806 14.2364 12.5385 14.2364C12.3964 14.2364 12.2542 14.1897 12.1365 14.0962L5.77665 9.04583V16.8933C5.77665 17.0475 5.90209 17.1729 6.05619 17.1729H19.0209ZM18.0463 8.39056L12.5385 12.7643L7.0308 8.39056H18.0463ZM20.5935 8.6701V16.8934C20.5935 17.7606 19.888 18.4661 19.0209 18.4661H6.05619C5.189 18.4661 4.48358 17.7606 4.48358 16.8934V8.6701C4.48358 7.80296 5.18905 7.0975 6.05619 7.0975H19.0209C19.888 7.09745 20.5935 7.80296 20.5935 8.6701Z" fill="#FFD360"/>
</svg>
